<ttFont>
    <TTGlyph name="A" xMin="68" yMin="-30" xMax="1480" yMax="1567">
      <contour>
        <pt x="552" y="1393" on="1"/>
        <pt x="487" y="1393" on="0"/>
        <pt x="399" y="1373" on="0"/>
        <pt x="345" y="1337" on="0"/>
        <pt x="322" y="1288" on="0"/>
        <pt x="322" y="1259" on="1"/>
        <pt x="322" y="1216" on="0"/>
        <pt x="362" y="1149" on="0"/>
        <pt x="421" y="1087" on="0"/>
        <pt x="490" y="1024" on="0"/>
        <pt x="549" y="948" on="0"/>
        <pt x="589" y="854" on="0"/>
        <pt x="589" y="792" on="1"/>
        <pt x="589" y="745" on="0"/>
        <pt x="554" y="662" on="0"/>
        <pt x="493" y="601" on="0"/>
        <pt x="410" y="566" on="0"/>
        <pt x="363" y="566" on="1"/>
        <pt x="317" y="566" on="0"/>
        <pt x="236" y="601" on="0"/>
        <pt x="176" y="662" on="0"/>
        <pt x="141" y="745" on="0"/>
        <pt x="141" y="792" on="1"/>
        <pt x="141" y="828" on="0"/>
        <pt x="163" y="895" on="0"/>
        <pt x="203" y="950" on="0"/>
        <pt x="257" y="991" on="0"/>
        <pt x="290" y="1002" on="1"/>
        <pt x="263" y="1022" on="0"/>
        <pt x="212" y="1067" on="0"/>
        <pt x="172" y="1126" on="0"/>
        <pt x="147" y="1205" on="0"/>
        <pt x="147" y="1259" on="1"/>
        <pt x="147" y="1326" on="0"/>
        <pt x="193" y="1439" on="0"/>
        <pt x="290" y="1521" on="0"/>
        <pt x="444" y="1567" on="0"/>
        <pt x="552" y="1567" on="1"/>
        <pt x="648" y="1567" on="0"/>
        <pt x="826" y="1521" on="0"/>
        <pt x="962" y="1420" on="0"/>
        <pt x="1043" y="1261" on="0"/>
        <pt x="1043" y="1148" on="1"/>
        <pt x="1043" y="1076" on="0"/>
        <pt x="1013" y="945" on="0"/>
        <pt x="963" y="824" on="0"/>
        <pt x="899" y="712" on="0"/>
        <pt x="866" y="659" on="1"/>
        <pt x="928" y="596" on="1"/>
        <pt x="1073" y="697" on="1"/>
        <pt x="1073" y="1167" on="1"/>
        <pt x="1073" y="1256" on="0"/>
        <pt x="1138" y="1403" on="0"/>
        <pt x="1249" y="1509" on="0"/>
        <pt x="1397" y="1567" on="0"/>
        <pt x="1480" y="1567" on="1"/>
        <pt x="1480" y="1394" on="1"/>
        <pt x="1413" y="1394" on="0"/>
        <pt x="1322" y="1346" on="0"/>
        <pt x="1267" y="1265" on="0"/>
        <pt x="1243" y="1159" on="0"/>
        <pt x="1243" y="1101" on="1"/>
        <pt x="1243" y="398" on="1"/>
        <pt x="1243" y="353" on="0"/>
        <pt x="1276" y="276" on="0"/>
        <pt x="1335" y="207" on="0"/>
        <pt x="1414" y="145" on="0"/>
        <pt x="1460" y="114" on="1"/>
        <pt x="1360" y="-30" on="1"/>
        <pt x="1301" y="10" on="0"/>
        <pt x="1197" y="95" on="0"/>
        <pt x="1119" y="196" on="0"/>
        <pt x="1073" y="317" on="0"/>
        <pt x="1073" y="393" on="1"/>
        <pt x="1073" y="496" on="1"/>
        <pt x="915" y="380" on="1"/>
        <pt x="763" y="519" on="1"/>
        <pt x="701" y="441" on="0"/>
        <pt x="557" y="283" on="0"/>
        <pt x="407" y="138" on="0"/>
        <pt x="260" y="14" on="0"/>
        <pt x="196" y="-30" on="1"/>
        <pt x="68" y="89" on="1"/>
        <pt x="160" y="155" on="0"/>
        <pt x="351" y="316" on="0"/>
        <pt x="531" y="493" on="0"/>
        <pt x="688" y="682" on="0"/>
        <pt x="806" y="872" on="0"/>
        <pt x="874" y="1058" on="0"/>
        <pt x="874" y="1143" on="1"/>
        <pt x="874" y="1195" on="0"/>
        <pt x="834" y="1287" on="0"/>
        <pt x="753" y="1354" on="0"/>
        <pt x="632" y="1393" on="0"/>
      </contour>
      <contour>
        <pt x="311" y="790" on="1"/>
        <pt x="311" y="767" on="0"/>
        <pt x="342" y="736" on="0"/>
        <pt x="365" y="736" on="1"/>
        <pt x="387" y="736" on="0"/>
        <pt x="419" y="767" on="0"/>
        <pt x="419" y="790" on="1"/>
        <pt x="419" y="812" on="0"/>
        <pt x="387" y="844" on="0"/>
        <pt x="365" y="844" on="1"/>
        <pt x="342" y="844" on="0"/>
        <pt x="311" y="812" on="0"/>
      </contour>
    </TTGlyph>
    <TTGlyph name="AE" xMin="64" yMin="-30" xMax="2411" yMax="1617">
      <contour>
        <pt x="165" y="808" on="1"/>
        <pt x="165" y="874" on="0"/>
        <pt x="232" y="979" on="0"/>
        <pt x="286" y="1007" on="1"/>
        <pt x="258" y="1029" on="0"/>
        <pt x="204" y="1079" on="0"/>
        <pt x="162" y="1137" on="0"/>
        <pt x="136" y="1208" on="0"/>
        <pt x="136" y="1253" on="1"/>
        <pt x="136" y="1327" on="0"/>
        <pt x="192" y="1444" on="0"/>
        <pt x="299" y="1525" on="0"/>
        <pt x="452" y="1567" on="0"/>
        <pt x="548" y="1567" on="1"/>
        <pt x="644" y="1567" on="0"/>
        <pt x="822" y="1521" on="0"/>
        <pt x="958" y="1420" on="0"/>
        <pt x="1039" y="1261" on="0"/>
        <pt x="1039" y="1148" on="1"/>
        <pt x="1039" y="1076" on="0"/>
        <pt x="1009" y="945" on="0"/>
        <pt x="959" y="824" on="0"/>
        <pt x="895" y="712" on="0"/>
        <pt x="862" y="659" on="1"/>
        <pt x="924" y="596" on="1"/>
        <pt x="1069" y="697" on="1"/>
        <pt x="1069" y="1167" on="1"/>
        <pt x="1069" y="1256" on="0"/>
        <pt x="1134" y="1403" on="0"/>
        <pt x="1245" y="1509" on="0"/>
        <pt x="1393" y="1567" on="0"/>
        <pt x="1476" y="1567" on="1"/>
        <pt x="1535" y="1567" on="0"/>
        <pt x="1624" y="1528" on="0"/>
        <pt x="1653" y="1491" on="1"/>
        <pt x="1755" y="1617" on="1"/>
        <pt x="1772" y="1563" on="0"/>
        <pt x="1817" y="1454" on="0"/>
        <pt x="1870" y="1368" on="0"/>
        <pt x="1930" y="1314" on="0"/>
        <pt x="1963" y="1314" on="1"/>
        <pt x="1994" y="1314" on="0"/>
        <pt x="2042" y="1347" on="0"/>
        <pt x="2076" y="1406" on="0"/>
        <pt x="2094" y="1488" on="0"/>
        <pt x="2094" y="1537" on="1"/>
        <pt x="2268" y="1537" on="1"/>
        <pt x="2268" y="1451" on="0"/>
        <pt x="2227" y="1305" on="0"/>
        <pt x="2148" y="1199" on="0"/>
        <pt x="2035" y="1139" on="0"/>
        <pt x="1963" y="1139" on="1"/>
        <pt x="1918" y="1139" on="0"/>
        <pt x="1841" y="1160" on="0"/>
        <pt x="1777" y="1197" on="0"/>
        <pt x="1725" y="1246" on="0"/>
        <pt x="1704" y="1275" on="1"/>
        <pt x="1632" y="1187" on="1"/>
        <pt x="1621" y="1173" on="0"/>
        <pt x="1602" y="1139" on="0"/>
        <pt x="1602" y="1119" on="1"/>
        <pt x="1602" y="1097" on="0"/>
        <pt x="1626" y="1060" on="0"/>
        <pt x="1667" y="1027" on="0"/>
        <pt x="1719" y="996" on="0"/>
        <pt x="1748" y="980" on="1"/>
        <pt x="1774" y="966" on="0"/>
        <pt x="1826" y="936" on="0"/>
        <pt x="1852" y="918" on="1"/>
        <pt x="1868" y="952" on="0"/>
        <pt x="1908" y="1012" on="0"/>
        <pt x="1960" y="1056" on="0"/>
        <pt x="2027" y="1081" on="0"/>
        <pt x="2069" y="1081" on="1"/>
        <pt x="2096" y="1081" on="0"/>
        <pt x="2139" y="1071" on="0"/>
        <pt x="2172" y="1055" on="0"/>
        <pt x="2200" y="1034" on="0"/>
        <pt x="2212" y="1024" on="1"/>
        <pt x="2212" y="1131" on="1"/>
        <pt x="2382" y="1131" on="1"/>
        <pt x="2382" y="1078" on="0"/>
        <pt x="2375" y="974" on="0"/>
        <pt x="2345" y="893" on="0"/>
        <pt x="2284" y="843" on="0"/>
        <pt x="2230" y="843" on="1"/>
        <pt x="2197" y="843" on="0"/>
        <pt x="2159" y="863" on="0"/>
        <pt x="2132" y="887" on="0"/>
        <pt x="2108" y="907" on="0"/>
        <pt x="2090" y="907" on="1"/>
        <pt x="2070" y="907" on="0"/>
        <pt x="2039" y="886" on="0"/>
        <pt x="2015" y="852" on="0"/>
        <pt x="1996" y="808" on="0"/>
        <pt x="1988" y="785" on="1"/>
        <pt x="2011" y="747" on="0"/>
        <pt x="2036" y="661" on="0"/>
        <pt x="2036" y="605" on="1"/>
        <pt x="2036" y="542" on="0"/>
        <pt x="1988" y="430" on="0"/>
        <pt x="1904" y="347" on="0"/>
        <pt x="1792" y="299" on="0"/>
        <pt x="1729" y="299" on="1"/>
        <pt x="1666" y="299" on="0"/>
        <pt x="1554" y="347" on="0"/>
        <pt x="1471" y="430" on="0"/>
        <pt x="1423" y="542" on="0"/>
        <pt x="1423" y="605" on="1"/>
        <pt x="1423" y="653" on="0"/>
        <pt x="1450" y="738" on="0"/>
        <pt x="1475" y="775" on="1"/>
        <pt x="1613" y="673" on="1"/>
        <pt x="1595" y="643" on="0"/>
        <pt x="1595" y="605" on="1"/>
        <pt x="1595" y="577" on="0"/>
        <pt x="1616" y="529" on="0"/>
        <pt x="1652" y="493" on="0"/>
        <pt x="1700" y="472" on="0"/>
        <pt x="1728" y="472" on="1"/>
        <pt x="1756" y="472" on="0"/>
        <pt x="1805" y="493" on="0"/>
        <pt x="1841" y="529" on="0"/>
        <pt x="1862" y="577" on="0"/>
        <pt x="1862" y="605" on="1"/>
        <pt x="1862" y="645" on="0"/>
        <pt x="1826" y="710" on="0"/>
        <pt x="1768" y="764" on="0"/>
        <pt x="1697" y="808" on="0"/>
        <pt x="1663" y="828" on="1"/>
        <pt x="1619" y="852" on="0"/>
        <pt x="1534" y="906" on="0"/>
        <pt x="1468" y="974" on="0"/>
        <pt x="1427" y="1061" on="0"/>
        <pt x="1427" y="1118" on="1"/>
        <pt x="1427" y="1152" on="0"/>
        <pt x="1440" y="1206" on="0"/>
        <pt x="1460" y="1249" on="0"/>
        <pt x="1485" y="1283" on="0"/>
        <pt x="1498" y="1298" on="1"/>
        <pt x="1509" y="1311" on="0"/>
        <pt x="1525" y="1338" on="0"/>
        <pt x="1525" y="1354" on="1"/>
        <pt x="1525" y="1374" on="0"/>
        <pt x="1497" y="1394" on="0"/>
        <pt x="1476" y="1394" on="1"/>
        <pt x="1409" y="1394" on="0"/>
        <pt x="1318" y="1346" on="0"/>
        <pt x="1263" y="1265" on="0"/>
        <pt x="1239" y="1159" on="0"/>
        <pt x="1239" y="1101" on="1"/>
        <pt x="1239" y="588" on="1"/>
        <pt x="1239" y="480" on="0"/>
        <pt x="1301" y="323" on="0"/>
        <pt x="1421" y="222" on="0"/>
        <pt x="1598" y="173" on="0"/>
        <pt x="1713" y="173" on="1"/>
        <pt x="1825" y="173" on="0"/>
        <pt x="1999" y="252" on="0"/>
        <pt x="2130" y="377" on="0"/>
        <pt x="2220" y="532" on="0"/>
        <pt x="2249" y="607" on="1"/>
        <pt x="2411" y="543" on="1"/>
        <pt x="2387" y="480" on="0"/>
        <pt x="2319" y="351" on="0"/>
        <pt x="2229" y="230" on="0"/>
        <pt x="2116" y="124" on="0"/>
        <pt x="1976" y="45" on="0"/>
        <pt x="1810" y="-1" on="0"/>
        <pt x="1711" y="-1" on="1"/>
        <pt x="1569" y="-1" on="0"/>
        <pt x="1340" y="55" on="0"/>
        <pt x="1175" y="175" on="0"/>
        <pt x="1079" y="364" on="0"/>
        <pt x="1071" y="497" on="1"/>
        <pt x="911" y="380" on="1"/>
        <pt x="759" y="519" on="1"/>
        <pt x="697" y="441" on="0"/>
        <pt x="553" y="283" on="0"/>
        <pt x="403" y="138" on="0"/>
        <pt x="256" y="14" on="0"/>
        <pt x="192" y="-30" on="1"/>
        <pt x="64" y="89" on="1"/>
        <pt x="156" y="155" on="0"/>
        <pt x="347" y="316" on="0"/>
        <pt x="527" y="493" on="0"/>
        <pt x="684" y="682" on="0"/>
        <pt x="802" y="872" on="0"/>
        <pt x="870" y="1058" on="0"/>
        <pt x="870" y="1143" on="1"/>
        <pt x="870" y="1195" on="0"/>
        <pt x="830" y="1287" on="0"/>
        <pt x="749" y="1354" on="0"/>
        <pt x="628" y="1393" on="0"/>
        <pt x="548" y="1393" on="1"/>
        <pt x="492" y="1393" on="0"/>
        <pt x="403" y="1372" on="0"/>
        <pt x="341" y="1335" on="0"/>
        <pt x="309" y="1285" on="0"/>
        <pt x="309" y="1257" on="1"/>
        <pt x="309" y="1210" on="0"/>
        <pt x="354" y="1141" on="0"/>
        <pt x="421" y="1082" on="0"/>
        <pt x="500" y="1026" on="0"/>
        <pt x="567" y="957" on="0"/>
        <pt x="612" y="869" on="0"/>
        <pt x="612" y="808" on="1"/>
        <pt x="612" y="761" on="0"/>
        <pt x="577" y="680" on="0"/>
        <pt x="516" y="620" on="0"/>
        <pt x="434" y="585" on="0"/>
        <pt x="388" y="585" on="1"/>
        <pt x="341" y="585" on="0"/>
        <pt x="260" y="620" on="0"/>
        <pt x="200" y="680" on="0"/>
        <pt x="165" y="761" on="0"/>
      </contour>
      <contour>
        <pt x="317" y="806" on="1"/>
        <pt x="317" y="776" on="0"/>
        <pt x="359" y="734" on="0"/>
        <pt x="389" y="734" on="1"/>
        <pt x="419" y="734" on="0"/>
        <pt x="462" y="776" on="0"/>
        <pt x="462" y="806" on="1"/>
        <pt x="462" y="836" on="0"/>
        <pt x="419" y="879" on="0"/>
        <pt x="389" y="879" on="1"/>
        <pt x="359" y="879" on="0"/>
        <pt x="317" y="836" on="0"/>
      </contour>
    </TTGlyph>
    <TTGlyph name="Aacute" xMin="68" yMin="-30" xMax="1480" yMax="1995">
      <contour>
        <pt x="552" y="1393" on="1"/>
        <pt x="487" y="1393" on="0"/>
        <pt x="399" y="1373" on="0"/>
        <pt x="345" y="1337" on="0"/>
        <pt x="322" y="1288" on="0"/>
        <pt x="322" y="1259" on="1"/>
        <pt x="322" y="1216" on="0"/>
        <pt x="362" y="1149" on="0"/>
        <pt x="421" y="1087" on="0"/>
        <pt x="490" y="1024" on="0"/>
        <pt x="549" y="948" on="0"/>
        <pt x="589" y="854" on="0"/>
        <pt x="589" y="792" on="1"/>
        <pt x="589" y="745" on="0"/>
        <pt x="554" y="662" on="0"/>
        <pt x="493" y="601" on="0"/>
        <pt x="410" y="566" on="0"/>
        <pt x="363" y="566" on="1"/>
        <pt x="317" y="566" on="0"/>
        <pt x="236" y="601" on="0"/>
        <pt x="176" y="662" on="0"/>
        <pt x="141" y="745" on="0"/>
        <pt x="141" y="792" on="1"/>
        <pt x="141" y="828" on="0"/>
        <pt x="163" y="895" on="0"/>
        <pt x="203" y="950" on="0"/>
        <pt x="257" y="991" on="0"/>
        <pt x="290" y="1002" on="1"/>
        <pt x="263" y="1022" on="0"/>
        <pt x="212" y="1067" on="0"/>
        <pt x="172" y="1126" on="0"/>
        <pt x="147" y="1205" on="0"/>
        <pt x="147" y="1259" on="1"/>
        <pt x="147" y="1326" on="0"/>
        <pt x="193" y="1439" on="0"/>
        <pt x="290" y="1521" on="0"/>
        <pt x="444" y="1567" on="0"/>
        <pt x="552" y="1567" on="1"/>
        <pt x="648" y="1567" on="0"/>
        <pt x="826" y="1521" on="0"/>
        <pt x="962" y="1420" on="0"/>
        <pt x="1043" y="1261" on="0"/>
        <pt x="1043" y="1148" on="1"/>
        <pt x="1043" y="1076" on="0"/>
        <pt x="1013" y="945" on="0"/>
        <pt x="963" y="824" on="0"/>
        <pt x="899" y="712" on="0"/>
        <pt x="866" y="659" on="1"/>
        <pt x="928" y="596" on="1"/>
        <pt x="1073" y="697" on="1"/>
        <pt x="1073" y="1167" on="1"/>
        <pt x="1073" y="1256" on="0"/>
        <pt x="1138" y="1403" on="0"/>
        <pt x="1249" y="1509" on="0"/>
        <pt x="1397" y="1567" on="0"/>
        <pt x="1480" y="1567" on="1"/>
        <pt x="1480" y="1394" on="1"/>
        <pt x="1413" y="1394" on="0"/>
        <pt x="1322" y="1346" on="0"/>
        <pt x="1267" y="1265" on="0"/>
        <pt x="1243" y="1159" on="0"/>
        <pt x="1243" y="1101" on="1"/>
        <pt x="1243" y="398" on="1"/>
        <pt x="1243" y="353" on="0"/>
        <pt x="1276" y="276" on="0"/>
        <pt x="1335" y="207" on="0"/>
        <pt x="1414" y="145" on="0"/>
        <pt x="1460" y="114" on="1"/>
        <pt x="1360" y="-30" on="1"/>
        <pt x="1301" y="10" on="0"/>
        <pt x="1197" y="95" on="0"/>
        <pt x="1119" y="196" on="0"/>
        <pt x="1073" y="317" on="0"/>
        <pt x="1073" y="393" on="1"/>
        <pt x="1073" y="496" on="1"/>
        <pt x="915" y="380" on="1"/>
        <pt x="763" y="519" on="1"/>
        <pt x="701" y="441" on="0"/>
        <pt x="557" y="283" on="0"/>
        <pt x="407" y="138" on="0"/>
        <pt x="260" y="14" on="0"/>
        <pt x="196" y="-30" on="1"/>
        <pt x="68" y="89" on="1"/>
        <pt x="160" y="155" on="0"/>
        <pt x="351" y="316" on="0"/>
        <pt x="531" y="493" on="0"/>
        <pt x="688" y="682" on="0"/>
        <pt x="806" y="872" on="0"/>
        <pt x="874" y="1058" on="0"/>
        <pt x="874" y="1143" on="1"/>
        <pt x="874" y="1195" on="0"/>
        <pt x="834" y="1287" on="0"/>
        <pt x="753" y="1354" on="0"/>
        <pt x="632" y="1393" on="0"/>
      </contour>
      <contour>
        <pt x="1072" y="1599" on="1"/>
        <pt x="982" y="1741" on="1"/>
        <pt x="1331" y="1995" on="1"/>
        <pt x="1447" y="1837" on="1"/>
      </contour>
      <contour>
        <pt x="311" y="790" on="1"/>
        <pt x="311" y="767" on="0"/>
        <pt x="342" y="736" on="0"/>
        <pt x="365" y="736" on="1"/>
        <pt x="387" y="736" on="0"/>
        <pt x="419" y="767" on="0"/>
        <pt x="419" y="790" on="1"/>
        <pt x="419" y="812" on="0"/>
        <pt x="387" y="844" on="0"/>
        <pt x="365" y="844" on="1"/>
        <pt x="342" y="844" on="0"/>
        <pt x="311" y="812" on="0"/>
      </contour>
    </TTGlyph>
    <TTGlyph name="Acircumflex" xMin="68" yMin="-30" xMax="1480" yMax="1997">
      <contour>
        <pt x="552" y="1393" on="1"/>
        <pt x="487" y="1393" on="0"/>
        <pt x="399" y="1373" on="0"/>
        <pt x="345" y="1337" on="0"/>
        <pt x="322" y="1288" on="0"/>
        <pt x="322" y="1259" on="1"/>
        <pt x="322" y="1216" on="0"/>
        <pt x="362" y="1149" on="0"/>
        <pt x="421" y="1087" on="0"/>
        <pt x="490" y="1024" on="0"/>
        <pt x="549" y="948" on="0"/>
        <pt x="589" y="854" on="0"/>
        <pt x="589" y="792" on="1"/>
        <pt x="589" y="745" on="0"/>
        <pt x="554" y="662" on="0"/>
        <pt x="493" y="601" on="0"/>
        <pt x="410" y="566" on="0"/>
        <pt x="363" y="566" on="1"/>
        <pt x="317" y="566" on="0"/>
        <pt x="236" y="601" on="0"/>
        <pt x="176" y="662" on="0"/>
        <pt x="141" y="745" on="0"/>
        <pt x="141" y="792" on="1"/>
        <pt x="141" y="828" on="0"/>
        <pt x="163" y="895" on="0"/>
        <pt x="203" y="950" on="0"/>
        <pt x="257" y="991" on="0"/>
        <pt x="290" y="1002" on="1"/>
        <pt x="263" y="1022" on="0"/>
        <pt x="212" y="1067" on="0"/>
        <pt x="172" y="1126" on="0"/>
        <pt x="147" y="1205" on="0"/>
        <pt x="147" y="1259" on="1"/>
        <pt x="147" y="1326" on="0"/>
        <pt x="193" y="1439" on="0"/>
        <pt x="290" y="1521" on="0"/>
        <pt x="444" y="1567" on="0"/>
        <pt x="552" y="1567" on="1"/>
        <pt x="648" y="1567" on="0"/>
        <pt x="826" y="1521" on="0"/>
        <pt x="962" y="1420" on="0"/>
        <pt x="1043" y="1261" on="0"/>
        <pt x="1043" y="1148" on="1"/>
        <pt x="1043" y="1076" on="0"/>
        <pt x="1013" y="945" on="0"/>
        <pt x="963" y="824" on="0"/>
        <pt x="899" y="712" on="0"/>
        <pt x="866" y="659" on="1"/>
        <pt x="928" y="596" on="1"/>
        <pt x="1073" y="697" on="1"/>
        <pt x="1073" y="1167" on="1"/>
        <pt x="1073" y="1256" on="0"/>
        <pt x="1138" y="1403" on="0"/>
        <pt x="1249" y="1509" on="0"/>
        <pt x="1397" y="1567" on="0"/>
        <pt x="1480" y="1567" on="1"/>
        <pt x="1480" y="1394" on="1"/>
        <pt x="1413" y="1394" on="0"/>
        <pt x="1322" y="1346" on="0"/>
        <pt x="1267" y="1265" on="0"/>
        <pt x="1243" y="1159" on="0"/>
        <pt x="1243" y="1101" on="1"/>
        <pt x="1243" y="398" on="1"/>
        <pt x="1243" y="353" on="0"/>
        <pt x="1276" y="276" on="0"/>
        <pt x="1335" y="207" on="0"/>
        <pt x="1414" y="145" on="0"/>
        <pt x="1460" y="114" on="1"/>
        <pt x="1360" y="-30" on="1"/>
        <pt x="1301" y="10" on="0"/>
        <pt x="1197" y="95" on="0"/>
        <pt x="1119" y="196" on="0"/>
        <pt x="1073" y="317" on="0"/>
        <pt x="1073" y="393" on="1"/>
        <pt x="1073" y="496" on="1"/>
        <pt x="915" y="380" on="1"/>
        <pt x="763" y="519" on="1"/>
        <pt x="701" y="441" on="0"/>
        <pt x="557" y="283" on="0"/>
        <pt x="407" y="138" on="0"/>
        <pt x="260" y="14" on="0"/>
        <pt x="196" y="-30" on="1"/>
        <pt x="68" y="89" on="1"/>
        <pt x="160" y="155" on="0"/>
        <pt x="351" y="316" on="0"/>
        <pt x="531" y="493" on="0"/>
        <pt x="688" y="682" on="0"/>
        <pt x="806" y="872" on="0"/>
        <pt x="874" y="1058" on="0"/>
        <pt x="874" y="1143" on="1"/>
        <pt x="874" y="1195" on="0"/>
        <pt x="834" y="1287" on="0"/>
        <pt x="753" y="1354" on="0"/>
        <pt x="632" y="1393" on="0"/>
      </contour>
      <contour>
        <pt x="705" y="1745" on="1"/>
        <pt x="1066" y="1997" on="1"/>
        <pt x="1414" y="1745" on="1"/>
        <pt x="1311" y="1609" on="1"/>
        <pt x="1066" y="1790" on="1"/>
        <pt x="1037" y="1767" on="0"/>
        <pt x="950" y="1706" on="0"/>
        <pt x="908" y="1677" on="1"/>
        <pt x="860" y="1644" on="0"/>
        <pt x="808" y="1609" on="1"/>
      </contour>
      <contour>
        <pt x="311" y="790" on="1"/>
        <pt x="311" y="767" on="0"/>
        <pt x="342" y="736" on="0"/>
        <pt x="365" y="736" on="1"/>
        <pt x="387" y="736" on="0"/>
        <pt x="419" y="767" on="0"/>
        <pt x="419" y="790" on="1"/>
        <pt x="419" y="812" on="0"/>
        <pt x="387" y="844" on="0"/>
        <pt x="365" y="844" on="1"/>
        <pt x="342" y="844" on="0"/>
        <pt x="311" y="812" on="0"/>
      </contour>
    </TTGlyph>
    <TTGlyph name="Adieresis" xMin="68" yMin="-30" xMax="1480" yMax="1992">
      <contour>
        <pt x="552" y="1393" on="1"/>
        <pt x="487" y="1393" on="0"/>
        <pt x="399" y="1373" on="0"/>
        <pt x="345" y="1337" on="0"/>
        <pt x="322" y="1288" on="0"/>
        <pt x="322" y="1259" on="1"/>
        <pt x="322" y="1216" on="0"/>
        <pt x="362" y="1149" on="0"/>
        <pt x="421" y="1087" on="0"/>
        <pt x="490" y="1024" on="0"/>
        <pt x="549" y="948" on="0"/>
        <pt x="589" y="854" on="0"/>
        <pt x="589" y="792" on="1"/>
        <pt x="589" y="745" on="0"/>
        <pt x="554" y="662" on="0"/>
        <pt x="493" y="601" on="0"/>
        <pt x="410" y="566" on="0"/>
        <pt x="363" y="566" on="1"/>
        <pt x="317" y="566" on="0"/>
        <pt x="236" y="601" on="0"/>
        <pt x="176" y="662" on="0"/>
        <pt x="141" y="745" on="0"/>
        <pt x="141" y="792" on="1"/>
        <pt x="141" y="828" on="0"/>
        <pt x="163" y="895" on="0"/>
        <pt x="203" y="950" on="0"/>
        <pt x="257" y="991" on="0"/>
        <pt x="290" y="1002" on="1"/>
        <pt x="263" y="1022" on="0"/>
        <pt x="212" y="1067" on="0"/>
        <pt x="172" y="1126" on="0"/>
        <pt x="147" y="1205" on="0"/>
        <pt x="147" y="1259" on="1"/>
        <pt x="147" y="1326" on="0"/>
        <pt x="193" y="1439" on="0"/>
        <pt x="290" y="1521" on="0"/>
        <pt x="444" y="1567" on="0"/>
        <pt x="552" y="1567" on="1"/>
        <pt x="648" y="1567" on="0"/>
        <pt x="826" y="1521" on="0"/>
        <pt x="962" y="1420" on="0"/>
        <pt x="1043" y="1261" on="0"/>
        <pt x="1043" y="1148" on="1"/>
        <pt x="1043" y="1076" on="0"/>
        <pt x="1013" y="945" on="0"/>
        <pt x="963" y="824" on="0"/>
        <pt x="899" y="712" on="0"/>
        <pt x="866" y="659" on="1"/>
        <pt x="928" y="596" on="1"/>
        <pt x="1073" y="697" on="1"/>
        <pt x="1073" y="1167" on="1"/>
        <pt x="1073" y="1256" on="0"/>
        <pt x="1138" y="1403" on="0"/>
        <pt x="1249" y="1509" on="0"/>
        <pt x="1397" y="1567" on="0"/>
        <pt x="1480" y="1567" on="1"/>
        <pt x="1480" y="1394" on="1"/>
        <pt x="1413" y="1394" on="0"/>
        <pt x="1322" y="1346" on="0"/>
        <pt x="1267" y="1265" on="0"/>
        <pt x="1243" y="1159" on="0"/>
        <pt x="1243" y="1101" on="1"/>
        <pt x="1243" y="398" on="1"/>
        <pt x="1243" y="353" on="0"/>
        <pt x="1276" y="276" on="0"/>
        <pt x="1335" y="207" on="0"/>
        <pt x="1414" y="145" on="0"/>
        <pt x="1460" y="114" on="1"/>
        <pt x="1360" y="-30" on="1"/>
        <pt x="1301" y="10" on="0"/>
        <pt x="1197" y="95" on="0"/>
        <pt x="1119" y="196" on="0"/>
        <pt x="1073" y="317" on="0"/>
        <pt x="1073" y="393" on="1"/>
        <pt x="1073" y="496" on="1"/>
        <pt x="915" y="380" on="1"/>
        <pt x="763" y="519" on="1"/>
        <pt x="701" y="441" on="0"/>
        <pt x="557" y="283" on="0"/>
        <pt x="407" y="138" on="0"/>
        <pt x="260" y="14" on="0"/>
        <pt x="196" y="-30" on="1"/>
        <pt x="68" y="89" on="1"/>
        <pt x="160" y="155" on="0"/>
        <pt x="351" y="316" on="0"/>
        <pt x="531" y="493" on="0"/>
        <pt x="688" y="682" on="0"/>
        <pt x="806" y="872" on="0"/>
        <pt x="874" y="1058" on="0"/>
        <pt x="874" y="1143" on="1"/>
        <pt x="874" y="1195" on="0"/>
        <pt x="834" y="1287" on="0"/>
        <pt x="753" y="1354" on="0"/>
        <pt x="632" y="1393" on="0"/>
      </contour>
      <contour>
        <pt x="964" y="1657" on="1"/>
        <pt x="806" y="1710" on="1"/>
        <pt x="925" y="1992" on="1"/>
        <pt x="1102" y="1921" on="1"/>
      </contour>
      <contour>
        <pt x="1269" y="1657" on="1"/>
        <pt x="1111" y="1710" on="1"/>
        <pt x="1229" y="1992" on="1"/>
        <pt x="1406" y="1921" on="1"/>
      </contour>
      <contour>
        <pt x="311" y="790" on="1"/>
        <pt x="311" y="767" on="0"/>
        <pt x="342" y="736" on="0"/>
        <pt x="365" y="736" on="1"/>
        <pt x="387" y="736" on="0"/>
        <pt x="419" y="767" on="0"/>
        <pt x="419" y="790" on="1"/>
        <pt x="419" y="812" on="0"/>
        <pt x="387" y="844" on="0"/>
        <pt x="365" y="844" on="1"/>
        <pt x="342" y="844" on="0"/>
        <pt x="311" y="812" on="0"/>
      </contour>
    </TTGlyph>
    <TTGlyph name="Agrave" xMin="68" yMin="-30" xMax="1480" yMax="1995">
      <contour>
        <pt x="552" y="1393" on="1"/>
        <pt x="487" y="1393" on="0"/>
        <pt x="399" y="1373" on="0"/>
        <pt x="345" y="1337" on="0"/>
        <pt x="322" y="1288" on="0"/>
        <pt x="322" y="1259" on="1"/>
        <pt x="322" y="1216" on="0"/>
        <pt x="362" y="1149" on="0"/>
        <pt x="421" y="1087" on="0"/>
        <pt x="490" y="1024" on="0"/>
        <pt x="549" y="948" on="0"/>
        <pt x="589" y="854" on="0"/>
        <pt x="589" y="792" on="1"/>
        <pt x="589" y="745" on="0"/>
        <pt x="554" y="662" on="0"/>
        <pt x="493" y="601" on="0"/>
        <pt x="410" y="566" on="0"/>
        <pt x="363" y="566" on="1"/>
        <pt x="317" y="566" on="0"/>
        <pt x="236" y="601" on="0"/>
        <pt x="176" y="662" on="0"/>
        <pt x="141" y="745" on="0"/>
        <pt x="141" y="792" on="1"/>
        <pt x="141" y="828" on="0"/>
        <pt x="163" y="895" on="0"/>
        <pt x="203" y="950" on="0"/>
        <pt x="257" y="991" on="0"/>
        <pt x="290" y="1002" on="1"/>
        <pt x="263" y="1022" on="0"/>
        <pt x="212" y="1067" on="0"/>
        <pt x="172" y="1126" on="0"/>
        <pt x="147" y="1205" on="0"/>
        <pt x="147" y="1259" on="1"/>
        <pt x="147" y="1326" on="0"/>
        <pt x="193" y="1439" on="0"/>
        <pt x="290" y="1521" on="0"/>
        <pt x="444" y="1567" on="0"/>
        <pt x="552" y="1567" on="1"/>
        <pt x="648" y="1567" on="0"/>
        <pt x="826" y="1521" on="0"/>
        <pt x="962" y="1420" on="0"/>
        <pt x="1043" y="1261" on="0"/>
        <pt x="1043" y="1148" on="1"/>
        <pt x="1043" y="1076" on="0"/>
        <pt x="1013" y="945" on="0"/>
        <pt x="963" y="824" on="0"/>
        <pt x="899" y="712" on="0"/>
        <pt x="866" y="659" on="1"/>
        <pt x="928" y="596" on="1"/>
        <pt x="1073" y="697" on="1"/>
        <pt x="1073" y="1167" on="1"/>
        <pt x="1073" y="1256" on="0"/>
        <pt x="1138" y="1403" on="0"/>
        <pt x="1249" y="1509" on="0"/>
        <pt x="1397" y="1567" on="0"/>
        <pt x="1480" y="1567" on="1"/>
        <pt x="1480" y="1394" on="1"/>
        <pt x="1413" y="1394" on="0"/>
        <pt x="1322" y="1346" on="0"/>
        <pt x="1267" y="1265" on="0"/>
        <pt x="1243" y="1159" on="0"/>
        <pt x="1243" y="1101" on="1"/>
        <pt x="1243" y="398" on="1"/>
        <pt x="1243" y="353" on="0"/>
        <pt x="1276" y="276" on="0"/>
        <pt x="1335" y="207" on="0"/>
        <pt x="1414" y="145" on="0"/>
        <pt x="1460" y="114" on="1"/>
        <pt x="1360" y="-30" on="1"/>
        <pt x="1301" y="10" on="0"/>
        <pt x="1197" y="95" on="0"/>
        <pt x="1119" y="196" on="0"/>
        <pt x="1073" y="317" on="0"/>
        <pt x="1073" y="393" on="1"/>
        <pt x="1073" y="496" on="1"/>
        <pt x="915" y="380" on="1"/>
        <pt x="763" y="519" on="1"/>
        <pt x="701" y="441" on="0"/>
        <pt x="557" y="283" on="0"/>
        <pt x="407" y="138" on="0"/>
        <pt x="260" y="14" on="0"/>
        <pt x="196" y="-30" on="1"/>
        <pt x="68" y="89" on="1"/>
        <pt x="160" y="155" on="0"/>
        <pt x="351" y="316" on="0"/>
        <pt x="531" y="493" on="0"/>
        <pt x="688" y="682" on="0"/>
        <pt x="806" y="872" on="0"/>
        <pt x="874" y="1058" on="0"/>
        <pt x="874" y="1143" on="1"/>
        <pt x="874" y="1195" on="0"/>
        <pt x="834" y="1287" on="0"/>
        <pt x="753" y="1354" on="0"/>
        <pt x="632" y="1393" on="0"/>
      </contour>
      <contour>
        <pt x="667" y="1837" on="1"/>
        <pt x="783" y="1995" on="1"/>
        <pt x="1131" y="1741" on="1"/>
        <pt x="1040" y="1598" on="1"/>
      </contour>
      <contour>
        <pt x="311" y="790" on="1"/>
        <pt x="311" y="767" on="0"/>
        <pt x="342" y="736" on="0"/>
        <pt x="365" y="736" on="1"/>
        <pt x="387" y="736" on="0"/>
        <pt x="419" y="767" on="0"/>
        <pt x="419" y="790" on="1"/>
        <pt x="419" y="812" on="0"/>
        <pt x="387" y="844" on="0"/>
        <pt x="365" y="844" on="1"/>
        <pt x="342" y="844" on="0"/>
        <pt x="311" y="812" on="0"/>
      </contour>
    </TTGlyph>
    <TTGlyph name="Aring" xMin="68" yMin="-30" xMax="1480" yMax="2013">
      <contour>
        <pt x="552" y="1393" on="1"/>
        <pt x="487" y="1393" on="0"/>
        <pt x="399" y="1373" on="0"/>
        <pt x="345" y="1337" on="0"/>
        <pt x="322" y="1288" on="0"/>
        <pt x="322" y="1259" on="1"/>
        <pt x="322" y="1216" on="0"/>
        <pt x="362" y="1149" on="0"/>
        <pt x="421" y="1087" on="0"/>
        <pt x="490" y="1024" on="0"/>
        <pt x="549" y="948" on="0"/>
        <pt x="589" y="854" on="0"/>
        <pt x="589" y="792" on="1"/>
        <pt x="589" y="745" on="0"/>
        <pt x="554" y="662" on="0"/>
        <pt x="493" y="601" on="0"/>
        <pt x="410" y="566" on="0"/>
        <pt x="363" y="566" on="1"/>
        <pt x="317" y="566" on="0"/>
        <pt x="236" y="601" on="0"/>
        <pt x="176" y="662" on="0"/>
        <pt x="141" y="745" on="0"/>
        <pt x="141" y="792" on="1"/>
        <pt x="141" y="828" on="0"/>
        <pt x="163" y="895" on="0"/>
        <pt x="203" y="950" on="0"/>
        <pt x="257" y="991" on="0"/>
        <pt x="290" y="1002" on="1"/>
        <pt x="263" y="1022" on="0"/>
        <pt x="212" y="1067" on="0"/>
        <pt x="172" y="1126" on="0"/>
        <pt x="147" y="1205" on="0"/>
        <pt x="147" y="1259" on="1"/>
        <pt x="147" y="1326" on="0"/>
        <pt x="193" y="1439" on="0"/>
        <pt x="290" y="1521" on="0"/>
        <pt x="444" y="1567" on="0"/>
        <pt x="552" y="1567" on="1"/>
        <pt x="648" y="1567" on="0"/>
        <pt x="826" y="1521" on="0"/>
        <pt x="962" y="1420" on="0"/>
        <pt x="1043" y="1261" on="0"/>
        <pt x="1043" y="1148" on="1"/>
        <pt x="1043" y="1076" on="0"/>
        <pt x="1013" y="945" on="0"/>
        <pt x="963" y="824" on="0"/>
        <pt x="899" y="712" on="0"/>
        <pt x="866" y="659" on="1"/>
        <pt x="928" y="596" on="1"/>
        <pt x="1073" y="697" on="1"/>
        <pt x="1073" y="1167" on="1"/>
        <pt x="1073" y="1256" on="0"/>
        <pt x="1138" y="1403" on="0"/>
        <pt x="1249" y="1509" on="0"/>
        <pt x="1397" y="1567" on="0"/>
        <pt x="1480" y="1567" on="1"/>
        <pt x="1480" y="1394" on="1"/>
        <pt x="1413" y="1394" on="0"/>
        <pt x="1322" y="1346" on="0"/>
        <pt x="1267" y="1265" on="0"/>
        <pt x="1243" y="1159" on="0"/>
        <pt x="1243" y="1101" on="1"/>
        <pt x="1243" y="398" on="1"/>
        <pt x="1243" y="353" on="0"/>
        <pt x="1276" y="276" on="0"/>
        <pt x="1335" y="207" on="0"/>
        <pt x="1414" y="145" on="0"/>
        <pt x="1460" y="114" on="1"/>
        <pt x="1360" y="-30" on="1"/>
        <pt x="1301" y="10" on="0"/>
        <pt x="1197" y="95" on="0"/>
        <pt x="1119" y="196" on="0"/>
        <pt x="1073" y="317" on="0"/>
        <pt x="1073" y="393" on="1"/>
        <pt x="1073" y="496" on="1"/>
        <pt x="915" y="380" on="1"/>
        <pt x="763" y="519" on="1"/>
        <pt x="701" y="441" on="0"/>
        <pt x="557" y="283" on="0"/>
        <pt x="407" y="138" on="0"/>
        <pt x="260" y="14" on="0"/>
        <pt x="196" y="-30" on="1"/>
        <pt x="68" y="89" on="1"/>
        <pt x="160" y="155" on="0"/>
        <pt x="351" y="316" on="0"/>
        <pt x="531" y="493" on="0"/>
        <pt x="688" y="682" on="0"/>
        <pt x="806" y="872" on="0"/>
        <pt x="874" y="1058" on="0"/>
        <pt x="874" y="1143" on="1"/>
        <pt x="874" y="1195" on="0"/>
        <pt x="834" y="1287" on="0"/>
        <pt x="753" y="1354" on="0"/>
        <pt x="632" y="1393" on="0"/>
      </contour>
      <contour>
        <pt x="843" y="1798" on="1"/>
        <pt x="843" y="1843" on="0"/>
        <pt x="876" y="1921" on="0"/>
        <pt x="934" y="1980" on="0"/>
        <pt x="1012" y="2013" on="0"/>
        <pt x="1057" y="2013" on="1"/>
        <pt x="1102" y="2013" on="0"/>
        <pt x="1181" y="1980" on="0"/>
        <pt x="1239" y="1921" on="0"/>
        <pt x="1273" y="1843" on="0"/>
        <pt x="1273" y="1798" on="1"/>
        <pt x="1273" y="1753" on="0"/>
        <pt x="1239" y="1675" on="0"/>
        <pt x="1181" y="1616" on="0"/>
        <pt x="1102" y="1583" on="0"/>
        <pt x="1057" y="1583" on="1"/>
        <pt x="1012" y="1583" on="0"/>
        <pt x="934" y="1616" on="0"/>
        <pt x="876" y="1675" on="0"/>
        <pt x="843" y="1753" on="0"/>
      </contour>
      <contour>
        <pt x="991" y="1798" on="1"/>
        <pt x="991" y="1769" on="0"/>
        <pt x="1031" y="1730" on="0"/>
        <pt x="1059" y="1730" on="1"/>
        <pt x="1088" y="1730" on="0"/>
        <pt x="1129" y="1769" on="0"/>
        <pt x="1129" y="1798" on="1"/>
        <pt x="1129" y="1826" on="0"/>
        <pt x="1088" y="1867" on="0"/>
        <pt x="1059" y="1867" on="1"/>
        <pt x="1031" y="1867" on="0"/>
        <pt x="991" y="1826" on="0"/>
      </contour>
      <contour>
        <pt x="311" y="790" on="1"/>
        <pt x="311" y="767" on="0"/>
        <pt x="342" y="736" on="0"/>
        <pt x="365" y="736" on="1"/>
        <pt x="387" y="736" on="0"/>
        <pt x="419" y="767" on="0"/>
        <pt x="419" y="790" on="1"/>
        <pt x="419" y="812" on="0"/>
        <pt x="387" y="844" on="0"/>
        <pt x="365" y="844" on="1"/>
        <pt x="342" y="844" on="0"/>
        <pt x="311" y="812" on="0"/>
      </contour>
    </TTGlyph>
    <TTGlyph name="Atilde" xMin="68" yMin="-30" xMax="1480" yMax="1955">
      <contour>
        <pt x="552" y="1393" on="1"/>
        <pt x="487" y="1393" on="0"/>
        <pt x="399" y="1373" on="0"/>
        <pt x="345" y="1337" on="0"/>
        <pt x="322" y="1288" on="0"/>
        <pt x="322" y="1259" on="1"/>
        <pt x="322" y="1216" on="0"/>
        <pt x="362" y="1149" on="0"/>
        <pt x="421" y="1087" on="0"/>
        <pt x="490" y="1024" on="0"/>
        <pt x="549" y="948" on="0"/>
        <pt x="589" y="854" on="0"/>
        <pt x="589" y="792" on="1"/>
        <pt x="589" y="745" on="0"/>
        <pt x="554" y="662" on="0"/>
        <pt x="493" y="601" on="0"/>
        <pt x="410" y="566" on="0"/>
        <pt x="363" y="566" on="1"/>
        <pt x="317" y="566" on="0"/>
        <pt x="236" y="601" on="0"/>
        <pt x="176" y="662" on="0"/>
        <pt x="141" y="745" on="0"/>
        <pt x="141" y="792" on="1"/>
        <pt x="141" y="828" on="0"/>
        <pt x="163" y="895" on="0"/>
        <pt x="203" y="950" on="0"/>
        <pt x="257" y="991" on="0"/>
        <pt x="290" y="1002" on="1"/>
        <pt x="263" y="1022" on="0"/>
        <pt x="212" y="1067" on="0"/>
        <pt x="172" y="1126" on="0"/>
        <pt x="147" y="1205" on="0"/>
        <pt x="147" y="1259" on="1"/>
        <pt x="147" y="1326" on="0"/>
        <pt x="193" y="1439" on="0"/>
        <pt x="290" y="1521" on="0"/>
        <pt x="444" y="1567" on="0"/>
        <pt x="552" y="1567" on="1"/>
        <pt x="648" y="1567" on="0"/>
        <pt x="826" y="1521" on="0"/>
        <pt x="962" y="1420" on="0"/>
        <pt x="1043" y="1261" on="0"/>
        <pt x="1043" y="1148" on="1"/>
        <pt x="1043" y="1076" on="0"/>
        <pt x="1013" y="945" on="0"/>
        <pt x="963" y="824" on="0"/>
        <pt x="899" y="712" on="0"/>
        <pt x="866" y="659" on="1"/>
        <pt x="928" y="596" on="1"/>
        <pt x="1073" y="697" on="1"/>
        <pt x="1073" y="1167" on="1"/>
        <pt x="1073" y="1256" on="0"/>
        <pt x="1138" y="1403" on="0"/>
        <pt x="1249" y="1509" on="0"/>
        <pt x="1397" y="1567" on="0"/>
        <pt x="1480" y="1567" on="1"/>
        <pt x="1480" y="1394" on="1"/>
        <pt x="1413" y="1394" on="0"/>
        <pt x="1322" y="1346" on="0"/>
        <pt x="1267" y="1265" on="0"/>
        <pt x="1243" y="1159" on="0"/>
        <pt x="1243" y="1101" on="1"/>
        <pt x="1243" y="398" on="1"/>
        <pt x="1243" y="353" on="0"/>
        <pt x="1276" y="276" on="0"/>
        <pt x="1335" y="207" on="0"/>
        <pt x="1414" y="145" on="0"/>
        <pt x="1460" y="114" on="1"/>
        <pt x="1360" y="-30" on="1"/>
        <pt x="1301" y="10" on="0"/>
        <pt x="1197" y="95" on="0"/>
        <pt x="1119" y="196" on="0"/>
        <pt x="1073" y="317" on="0"/>
        <pt x="1073" y="393" on="1"/>
        <pt x="1073" y="496" on="1"/>
        <pt x="915" y="380" on="1"/>
        <pt x="763" y="519" on="1"/>
        <pt x="701" y="441" on="0"/>
        <pt x="557" y="283" on="0"/>
        <pt x="407" y="138" on="0"/>
        <pt x="260" y="14" on="0"/>
        <pt x="196" y="-30" on="1"/>
        <pt x="68" y="89" on="1"/>
        <pt x="160" y="155" on="0"/>
        <pt x="351" y="316" on="0"/>
        <pt x="531" y="493" on="0"/>
        <pt x="688" y="682" on="0"/>
        <pt x="806" y="872" on="0"/>
        <pt x="874" y="1058" on="0"/>
        <pt x="874" y="1143" on="1"/>
        <pt x="874" y="1195" on="0"/>
        <pt x="834" y="1287" on="0"/>
        <pt x="753" y="1354" on="0"/>
        <pt x="632" y="1393" on="0"/>
      </contour>
      <contour>
        <pt x="1459" y="1872" on="1"/>
        <pt x="1434" y="1827" on="0"/>
        <pt x="1368" y="1742" on="0"/>
        <pt x="1294" y="1677" on="0"/>
        <pt x="1219" y="1637" on="0"/>
        <pt x="1185" y="1637" on="1"/>
        <pt x="1141" y="1637" on="0"/>
        <pt x="1073" y="1677" on="0"/>
        <pt x="1017" y="1725" on="0"/>
        <pt x="971" y="1765" on="0"/>
        <pt x="948" y="1765" on="1"/>
        <pt x="900" y="1765" on="0"/>
        <pt x="821" y="1686" on="0"/>
        <pt x="789" y="1624" on="1"/>
        <pt x="640" y="1708" on="1"/>
        <pt x="666" y="1757" on="0"/>
        <pt x="731" y="1841" on="0"/>
        <pt x="804" y="1902" on="0"/>
        <pt x="883" y="1936" on="0"/>
        <pt x="922" y="1936" on="1"/>
        <pt x="964" y="1936" on="0"/>
        <pt x="1030" y="1896" on="0"/>
        <pt x="1085" y="1848" on="0"/>
        <pt x="1135" y="1808" on="0"/>
        <pt x="1162" y="1808" on="1"/>
        <pt x="1181" y="1808" on="0"/>
        <pt x="1221" y="1833" on="0"/>
        <pt x="1259" y="1874" on="0"/>
        <pt x="1295" y="1927" on="0"/>
        <pt x="1310" y="1955" on="1"/>
      </contour>
      <contour>
        <pt x="311" y="790" on="1"/>
        <pt x="311" y="767" on="0"/>
        <pt x="342" y="736" on="0"/>
        <pt x="365" y="736" on="1"/>
        <pt x="387" y="736" on="0"/>
        <pt x="419" y="767" on="0"/>
        <pt x="419" y="790" on="1"/>
        <pt x="419" y="812" on="0"/>
        <pt x="387" y="844" on="0"/>
        <pt x="365" y="844" on="1"/>
        <pt x="342" y="844" on="0"/>
        <pt x="311" y="812" on="0"/>
      </contour>
    </TTGlyph>
    <TTGlyph name="B" xMin="80" yMin="0" xMax="1662" yMax="1567">
      <contour>
        <pt x="513" y="1393" on="1"/>
        <pt x="430" y="1393" on="0"/>
        <pt x="347" y="1318" on="0"/>
        <pt x="347" y="1259" on="1"/>
        <pt x="347" y="1216" on="0"/>
        <pt x="387" y="1149" on="0"/>
        <pt x="446" y="1087" on="0"/>
        <pt x="515" y="1024" on="0"/>
        <pt x="574" y="948" on="0"/>
        <pt x="614" y="854" on="0"/>
        <pt x="614" y="792" on="1"/>
        <pt x="614" y="745" on="0"/>
        <pt x="579" y="662" on="0"/>
        <pt x="518" y="601" on="0"/>
        <pt x="435" y="566" on="0"/>
        <pt x="388" y="566" on="1"/>
        <pt x="342" y="566" on="0"/>
        <pt x="261" y="601" on="0"/>
        <pt x="201" y="662" on="0"/>
        <pt x="166" y="745" on="0"/>
        <pt x="166" y="792" on="1"/>
        <pt x="166" y="828" on="0"/>
        <pt x="188" y="895" on="0"/>
        <pt x="228" y="950" on="0"/>
        <pt x="282" y="991" on="0"/>
        <pt x="315" y="1002" on="1"/>
        <pt x="288" y="1022" on="0"/>
        <pt x="237" y="1067" on="0"/>
        <pt x="197" y="1126" on="0"/>
        <pt x="172" y="1205" on="0"/>
        <pt x="172" y="1259" on="1"/>
        <pt x="172" y="1326" on="0"/>
        <pt x="216" y="1439" on="0"/>
        <pt x="301" y="1521" on="0"/>
        <pt x="429" y="1567" on="0"/>
        <pt x="513" y="1567" on="1"/>
        <pt x="610" y="1567" on="0"/>
        <pt x="773" y="1467" on="0"/>
        <pt x="832" y="1386" on="1"/>
        <pt x="849" y="1426" on="0"/>
        <pt x="896" y="1493" on="0"/>
        <pt x="959" y="1541" on="0"/>
        <pt x="1039" y="1567" on="0"/>
        <pt x="1089" y="1567" on="1"/>
        <pt x="1141" y="1567" on="0"/>
        <pt x="1217" y="1528" on="0"/>
        <pt x="1273" y="1465" on="0"/>
        <pt x="1315" y="1386" on="0"/>
        <pt x="1334" y="1346" on="1"/>
        <pt x="1344" y="1324" on="0"/>
        <pt x="1365" y="1281" on="0"/>
        <pt x="1386" y="1247" on="0"/>
        <pt x="1408" y="1226" on="0"/>
        <pt x="1419" y="1226" on="1"/>
        <pt x="1432" y="1226" on="0"/>
        <pt x="1453" y="1246" on="0"/>
        <pt x="1470" y="1282" on="0"/>
        <pt x="1485" y="1329" on="0"/>
        <pt x="1492" y="1356" on="1"/>
        <pt x="1662" y="1314" on="1"/>
        <pt x="1642" y="1220" on="0"/>
        <pt x="1563" y="1093" on="0"/>
        <pt x="1496" y="1063" on="1"/>
        <pt x="1335" y="990" on="1"/>
        <pt x="1376" y="954" on="0"/>
        <pt x="1461" y="858" on="0"/>
        <pt x="1530" y="739" on="0"/>
        <pt x="1573" y="596" on="0"/>
        <pt x="1573" y="514" on="1"/>
        <pt x="1573" y="416" on="0"/>
        <pt x="1505" y="231" on="0"/>
        <pt x="1373" y="87" on="0"/>
        <pt x="1176" y="0" on="0"/>
        <pt x="1047" y="0" on="1"/>
        <pt x="965" y="0" on="0"/>
        <pt x="848" y="37" on="0"/>
        <pt x="760" y="94" on="0"/>
        <pt x="692" y="164" on="0"/>
        <pt x="628" y="229" on="0"/>
        <pt x="559" y="283" on="0"/>
        <pt x="513" y="296" on="1"/>
        <pt x="522" y="275" on="0"/>
        <pt x="527" y="247" on="0"/>
        <pt x="527" y="223" on="1"/>
        <pt x="527" y="176" on="0"/>
        <pt x="492" y="95" on="0"/>
        <pt x="431" y="35" on="0"/>
        <pt x="349" y="0" on="0"/>
        <pt x="303" y="0" on="1"/>
        <pt x="256" y="0" on="0"/>
        <pt x="175" y="35" on="0"/>
        <pt x="115" y="95" on="0"/>
        <pt x="80" y="176" on="0"/>
        <pt x="80" y="223" on="1"/>
        <pt x="80" y="295" on="0"/>
        <pt x="142" y="390" on="0"/>
        <pt x="250" y="445" on="0"/>
        <pt x="396" y="467" on="0"/>
        <pt x="480" y="467" on="1"/>
        <pt x="549" y="513" on="0"/>
        <pt x="659" y="639" on="0"/>
        <pt x="736" y="786" on="0"/>
        <pt x="776" y="948" on="0"/>
        <pt x="776" y="1030" on="1"/>
        <pt x="776" y="1095" on="0"/>
        <pt x="736" y="1225" on="0"/>
        <pt x="665" y="1328" on="0"/>
        <pt x="569" y="1393" on="0"/>
      </contour>
      <contour>
        <pt x="1156" y="907" on="1"/>
        <pt x="1094" y="878" on="0"/>
        <pt x="972" y="823" on="0"/>
        <pt x="910" y="794" on="1"/>
        <pt x="892" y="741" on="0"/>
        <pt x="832" y="636" on="0"/>
        <pt x="757" y="537" on="0"/>
        <pt x="669" y="447" on="0"/>
        <pt x="623" y="411" on="1"/>
        <pt x="651" y="401" on="0"/>
        <pt x="712" y="359" on="0"/>
        <pt x="780" y="306" on="0"/>
        <pt x="852" y="250" on="0"/>
        <pt x="929" y="204" on="0"/>
        <pt x="1010" y="174" on="0"/>
        <pt x="1053" y="174" on="1"/>
        <pt x="1137" y="174" on="0"/>
        <pt x="1266" y="232" on="0"/>
        <pt x="1354" y="327" on="0"/>
        <pt x="1399" y="449" on="0"/>
        <pt x="1399" y="514" on="1"/>
        <pt x="1399" y="587" on="0"/>
        <pt x="1349" y="709" on="0"/>
        <pt x="1275" y="808" on="0"/>
        <pt x="1190" y="883" on="0"/>
      </contour>
      <contour>
        <pt x="1078" y="1393" on="1"/>
        <pt x="1049" y="1393" on="0"/>
        <pt x="1008" y="1358" on="0"/>
        <pt x="980" y="1299" on="0"/>
        <pt x="963" y="1221" on="0"/>
        <pt x="953" y="1134" on="0"/>
        <pt x="950" y="1045" on="0"/>
        <pt x="950" y="1005" on="1"/>
        <pt x="1246" y="1142" on="1"/>
        <pt x="1223" y="1171" on="0"/>
        <pt x="1193" y="1237" on="0"/>
        <pt x="1176" y="1272" on="1"/>
        <pt x="1165" y="1294" on="0"/>
        <pt x="1144" y="1338" on="0"/>
        <pt x="1120" y="1372" on="0"/>
        <pt x="1094" y="1393" on="0"/>
      </contour>
      <contour>
        <pt x="248" y="226" on="1"/>
        <pt x="248" y="203" on="0"/>
        <pt x="279" y="172" on="0"/>
        <pt x="302" y="172" on="1"/>
        <pt x="324" y="172" on="0"/>
        <pt x="356" y="203" on="0"/>
        <pt x="356" y="226" on="1"/>
        <pt x="356" y="248" on="0"/>
        <pt x="324" y="280" on="0"/>
        <pt x="302" y="280" on="1"/>
        <pt x="279" y="280" on="0"/>
        <pt x="248" y="248" on="0"/>
      </contour>
      <contour>
        <pt x="336" y="790" on="1"/>
        <pt x="336" y="767" on="0"/>
        <pt x="367" y="736" on="0"/>
        <pt x="390" y="736" on="1"/>
        <pt x="412" y="736" on="0"/>
        <pt x="444" y="767" on="0"/>
        <pt x="444" y="790" on="1"/>
        <pt x="444" y="812" on="0"/>
        <pt x="412" y="844" on="0"/>
        <pt x="390" y="844" on="1"/>
        <pt x="367" y="844" on="0"/>
        <pt x="336" y="812" on="0"/>
      </contour>
    </TTGlyph>
    <TTGlyph name="C" xMin="91" yMin="0" xMax="1502" yMax="1567">
      <contour>
        <pt x="891" y="1383" on="1"/>
        <pt x="865" y="1388" on="0"/>
        <pt x="803" y="1391" on="0"/>
        <pt x="781" y="1392" on="1"/>
        <pt x="718" y="1390" on="0"/>
        <pt x="594" y="1349" on="0"/>
        <pt x="479" y="1273" on="0"/>
        <pt x="380" y="1163" on="0"/>
        <pt x="308" y="1023" on="0"/>
        <pt x="266" y="854" on="0"/>
        <pt x="266" y="757" on="1"/>
        <pt x="266" y="623" on="0"/>
        <pt x="337" y="407" on="0"/>
        <pt x="473" y="256" on="0"/>
        <pt x="674" y="175" on="0"/>
        <pt x="803" y="175" on="1"/>
        <pt x="879" y="175" on="0"/>
        <pt x="1010" y="212" on="0"/>
        <pt x="1120" y="273" on="0"/>
        <pt x="1210" y="351" on="0"/>
        <pt x="1278" y="434" on="0"/>
        <pt x="1326" y="515" on="0"/>
        <pt x="1339" y="548" on="1"/>
        <pt x="1501" y="484" on="1"/>
        <pt x="1484" y="441" on="0"/>
        <pt x="1423" y="336" on="0"/>
        <pt x="1335" y="228" on="0"/>
        <pt x="1220" y="127" on="0"/>
        <pt x="1076" y="48" on="0"/>
        <pt x="904" y="0" on="0"/>
        <pt x="803" y="0" on="1"/>
        <pt x="613" y="0" on="0"/>
        <pt x="343" y="121" on="0"/>
        <pt x="171" y="328" on="0"/>
        <pt x="91" y="603" on="0"/>
        <pt x="91" y="758" on="1"/>
        <pt x="91" y="884" on="0"/>
        <pt x="144" y="1102" on="0"/>
        <pt x="238" y="1281" on="0"/>
        <pt x="368" y="1421" on="0"/>
        <pt x="521" y="1517" on="0"/>
        <pt x="692" y="1567" on="0"/>
        <pt x="781" y="1567" on="1"/>
        <pt x="808" y="1567" on="0"/>
        <pt x="884" y="1559" on="0"/>
        <pt x="965" y="1541" on="0"/>
        <pt x="1042" y="1511" on="0"/>
        <pt x="1069" y="1489" on="1"/>
        <pt x="1076" y="1461" on="0"/>
        <pt x="1098" y="1399" on="0"/>
        <pt x="1130" y="1347" on="0"/>
        <pt x="1174" y="1313" on="0"/>
        <pt x="1204" y="1313" on="1"/>
        <pt x="1222" y="1313" on="0"/>
        <pt x="1258" y="1331" on="0"/>
        <pt x="1291" y="1373" on="0"/>
        <pt x="1320" y="1442" on="0"/>
        <pt x="1331" y="1492" on="1"/>
        <pt x="1502" y="1459" on="1"/>
        <pt x="1483" y="1369" on="0"/>
        <pt x="1420" y="1246" on="0"/>
        <pt x="1342" y="1171" on="0"/>
        <pt x="1251" y="1138" on="0"/>
        <pt x="1204" y="1138" on="1"/>
        <pt x="1158" y="1138" on="0"/>
        <pt x="1087" y="1171" on="0"/>
        <pt x="1055" y="1213" on="1"/>
        <pt x="1047" y="1153" on="0"/>
        <pt x="980" y="1063" on="0"/>
        <pt x="888" y="988" on="0"/>
        <pt x="785" y="921" on="0"/>
        <pt x="698" y="849" on="0"/>
        <pt x="641" y="766" on="0"/>
        <pt x="641" y="711" on="1"/>
        <pt x="641" y="684" on="0"/>
        <pt x="665" y="630" on="0"/>
        <pt x="720" y="585" on="0"/>
        <pt x="810" y="557" on="0"/>
        <pt x="876" y="557" on="1"/>
        <pt x="876" y="383" on="1"/>
        <pt x="761" y="383" on="0"/>
        <pt x="604" y="442" on="0"/>
        <pt x="508" y="536" on="0"/>
        <pt x="466" y="653" on="0"/>
        <pt x="466" y="711" on="1"/>
        <pt x="466" y="775" on="0"/>
        <pt x="503" y="877" on="0"/>
        <pt x="562" y="960" on="0"/>
        <pt x="639" y="1028" on="0"/>
        <pt x="718" y="1087" on="0"/>
        <pt x="795" y="1140" on="0"/>
        <pt x="854" y="1195" on="0"/>
        <pt x="891" y="1255" on="0"/>
        <pt x="891" y="1291" on="1"/>
      </contour>
    </TTGlyph>
    <TTGlyph name="Ccedilla" xMin="90" yMin="-462" xMax="1501" yMax="1567">
      <contour>
        <pt x="499" y="-106" on="1"/>
        <pt x="689" y="6" on="1"/>
        <pt x="530" y="24" on="0"/>
        <pt x="303" y="156" on="0"/>
        <pt x="158" y="358" on="0"/>
        <pt x="90" y="615" on="0"/>
        <pt x="90" y="758" on="1"/>
        <pt x="90" y="884" on="0"/>
        <pt x="143" y="1102" on="0"/>
        <pt x="237" y="1281" on="0"/>
        <pt x="367" y="1421" on="0"/>
        <pt x="520" y="1517" on="0"/>
        <pt x="691" y="1567" on="0"/>
        <pt x="780" y="1567" on="1"/>
        <pt x="807" y="1567" on="0"/>
        <pt x="883" y="1559" on="0"/>
        <pt x="964" y="1541" on="0"/>
        <pt x="1041" y="1511" on="0"/>
        <pt x="1068" y="1489" on="1"/>
        <pt x="1075" y="1461" on="0"/>
        <pt x="1097" y="1399" on="0"/>
        <pt x="1129" y="1347" on="0"/>
        <pt x="1173" y="1313" on="0"/>
        <pt x="1203" y="1313" on="1"/>
        <pt x="1221" y="1313" on="0"/>
        <pt x="1257" y="1331" on="0"/>
        <pt x="1290" y="1373" on="0"/>
        <pt x="1319" y="1442" on="0"/>
        <pt x="1330" y="1492" on="1"/>
        <pt x="1501" y="1459" on="1"/>
        <pt x="1482" y="1369" on="0"/>
        <pt x="1419" y="1246" on="0"/>
        <pt x="1341" y="1171" on="0"/>
        <pt x="1250" y="1138" on="0"/>
        <pt x="1203" y="1138" on="1"/>
        <pt x="1157" y="1138" on="0"/>
        <pt x="1086" y="1171" on="0"/>
        <pt x="1054" y="1213" on="1"/>
        <pt x="1046" y="1153" on="0"/>
        <pt x="979" y="1063" on="0"/>
        <pt x="887" y="988" on="0"/>
        <pt x="784" y="921" on="0"/>
        <pt x="697" y="849" on="0"/>
        <pt x="640" y="766" on="0"/>
        <pt x="640" y="711" on="1"/>
        <pt x="640" y="684" on="0"/>
        <pt x="664" y="630" on="0"/>
        <pt x="719" y="585" on="0"/>
        <pt x="809" y="557" on="0"/>
        <pt x="875" y="557" on="1"/>
        <pt x="875" y="383" on="1"/>
        <pt x="760" y="383" on="0"/>
        <pt x="603" y="442" on="0"/>
        <pt x="507" y="536" on="0"/>
        <pt x="465" y="653" on="0"/>
        <pt x="465" y="711" on="1"/>
        <pt x="465" y="775" on="0"/>
        <pt x="502" y="877" on="0"/>
        <pt x="561" y="960" on="0"/>
        <pt x="638" y="1028" on="0"/>
        <pt x="717" y="1087" on="0"/>
        <pt x="794" y="1140" on="0"/>
        <pt x="853" y="1195" on="0"/>
        <pt x="890" y="1255" on="0"/>
        <pt x="890" y="1291" on="1"/>
        <pt x="890" y="1383" on="1"/>
        <pt x="864" y="1388" on="0"/>
        <pt x="802" y="1391" on="0"/>
        <pt x="780" y="1392" on="1"/>
        <pt x="717" y="1390" on="0"/>
        <pt x="593" y="1349" on="0"/>
        <pt x="478" y="1273" on="0"/>
        <pt x="379" y="1163" on="0"/>
        <pt x="307" y="1023" on="0"/>
        <pt x="265" y="854" on="0"/>
        <pt x="265" y="757" on="1"/>
        <pt x="265" y="623" on="0"/>
        <pt x="336" y="407" on="0"/>
        <pt x="472" y="256" on="0"/>
        <pt x="673" y="175" on="0"/>
        <pt x="802" y="175" on="1"/>
        <pt x="878" y="175" on="0"/>
        <pt x="1009" y="212" on="0"/>
        <pt x="1119" y="273" on="0"/>
        <pt x="1209" y="351" on="0"/>
        <pt x="1277" y="434" on="0"/>
        <pt x="1325" y="515" on="0"/>
        <pt x="1338" y="548" on="1"/>
        <pt x="1500" y="484" on="1"/>
        <pt x="1484" y="445" on="0"/>
        <pt x="1432" y="352" on="0"/>
        <pt x="1358" y="255" on="0"/>
        <pt x="1261" y="161" on="0"/>
        <pt x="1142" y="81" on="0"/>
        <pt x="1001" y="22" on="0"/>
        <pt x="918" y="9" on="1"/>
        <pt x="734" y="-136" on="1"/>
        <pt x="782" y="-166" on="0"/>
        <pt x="812" y="-239" on="0"/>
        <pt x="812" y="-277" on="1"/>
        <pt x="812" y="-320" on="0"/>
        <pt x="767" y="-388" on="0"/>
        <pt x="691" y="-436" on="0"/>
        <pt x="590" y="-462" on="0"/>
        <pt x="535" y="-462" on="1"/>
        <pt x="535" y="-291" on="1"/>
        <pt x="555" y="-291" on="0"/>
        <pt x="591" y="-290" on="0"/>
        <pt x="618" y="-284" on="0"/>
        <pt x="633" y="-270" on="0"/>
        <pt x="633" y="-257" on="1"/>
        <pt x="633" y="-233" on="0"/>
        <pt x="582" y="-225" on="0"/>
        <pt x="532" y="-225" on="1"/>
      </contour>
    </TTGlyph>
    <TTGlyph name="D" xMin="89" yMin="0" xMax="1645" yMax="1568">
      <contour>
        <pt x="462" y="734" on="1"/>
        <pt x="462" y="787" on="0"/>
        <pt x="506" y="877" on="0"/>
        <pt x="544" y="908" on="1"/>
        <pt x="511" y="929" on="0"/>
        <pt x="453" y="974" on="0"/>
        <pt x="410" y="1028" on="0"/>
        <pt x="385" y="1096" on="0"/>
        <pt x="385" y="1141" on="1"/>
        <pt x="645" y="1391" on="1"/>
        <pt x="556" y="1384" on="0"/>
        <pt x="414" y="1333" on="0"/>
        <pt x="316" y="1255" on="0"/>
        <pt x="264" y="1156" on="0"/>
        <pt x="264" y="1101" on="1"/>
        <pt x="264" y="1053" on="0"/>
        <pt x="321" y="969" on="0"/>
        <pt x="381" y="947" on="1"/>
        <pt x="381" y="762" on="1"/>
        <pt x="303" y="778" on="0"/>
        <pt x="192" y="854" on="0"/>
        <pt x="122" y="950" on="0"/>
        <pt x="89" y="1054" on="0"/>
        <pt x="89" y="1098" on="1"/>
        <pt x="89" y="1198" on="0"/>
        <pt x="174" y="1370" on="0"/>
        <pt x="333" y="1496" on="0"/>
        <pt x="560" y="1568" on="0"/>
        <pt x="702" y="1568" on="1"/>
        <pt x="831" y="1568" on="0"/>
        <pt x="1071" y="1495" on="0"/>
        <pt x="1281" y="1369" on="0"/>
        <pt x="1453" y="1199" on="0"/>
        <pt x="1577" y="1003" on="0"/>
        <pt x="1645" y="792" on="0"/>
        <pt x="1645" y="688" on="1"/>
        <pt x="1645" y="597" on="0"/>
        <pt x="1608" y="425" on="0"/>
        <pt x="1538" y="272" on="0"/>
        <pt x="1437" y="145" on="0"/>
        <pt x="1309" y="52" on="0"/>
        <pt x="1157" y="1" on="0"/>
        <pt x="1070" y="1" on="1"/>
        <pt x="1003" y="1" on="0"/>
        <pt x="895" y="37" on="0"/>
        <pt x="805" y="94" on="0"/>
        <pt x="727" y="165" on="0"/>
        <pt x="654" y="235" on="0"/>
        <pt x="582" y="297" on="0"/>
        <pt x="542" y="317" on="1"/>
        <pt x="552" y="296" on="0"/>
        <pt x="563" y="248" on="0"/>
        <pt x="563" y="223" on="1"/>
        <pt x="563" y="176" on="0"/>
        <pt x="528" y="95" on="0"/>
        <pt x="467" y="35" on="0"/>
        <pt x="385" y="0" on="0"/>
        <pt x="339" y="0" on="1"/>
        <pt x="292" y="0" on="0"/>
        <pt x="211" y="35" on="0"/>
        <pt x="151" y="95" on="0"/>
        <pt x="116" y="176" on="0"/>
        <pt x="116" y="223" on="1"/>
        <pt x="116" y="284" on="0"/>
        <pt x="172" y="377" on="0"/>
        <pt x="263" y="440" on="0"/>
        <pt x="379" y="473" on="0"/>
        <pt x="439" y="473" on="1"/>
        <pt x="521" y="473" on="0"/>
        <pt x="650" y="429" on="0"/>
        <pt x="757" y="363" on="0"/>
        <pt x="848" y="285" on="0"/>
        <pt x="936" y="219" on="0"/>
        <pt x="1029" y="175" on="0"/>
        <pt x="1083" y="175" on="1"/>
        <pt x="1168" y="175" on="0"/>
        <pt x="1311" y="260" on="0"/>
        <pt x="1414" y="402" on="0"/>
        <pt x="1471" y="587" on="0"/>
        <pt x="1471" y="688" on="1"/>
        <pt x="1471" y="759" on="0"/>
        <pt x="1428" y="903" on="0"/>
        <pt x="1351" y="1040" on="0"/>
        <pt x="1242" y="1166" on="0"/>
        <pt x="1109" y="1270" on="0"/>
        <pt x="958" y="1349" on="0"/>
        <pt x="876" y="1371" on="1"/>
        <pt x="588" y="1095" on="1"/>
        <pt x="612" y="1060" on="0"/>
        <pt x="679" y="1009" on="0"/>
        <pt x="750" y="964" on="0"/>
        <pt x="820" y="919" on="0"/>
        <pt x="875" y="862" on="0"/>
        <pt x="909" y="787" on="0"/>
        <pt x="909" y="734" on="1"/>
        <pt x="909" y="686" on="0"/>
        <pt x="873" y="604" on="0"/>
        <pt x="812" y="544" on="0"/>
        <pt x="730" y="511" on="0"/>
        <pt x="685" y="511" on="1"/>
        <pt x="638" y="511" on="0"/>
        <pt x="557" y="546" on="0"/>
        <pt x="497" y="606" on="0"/>
        <pt x="462" y="687" on="0"/>
      </contour>
      <contour>
        <pt x="631" y="734" on="1"/>
        <pt x="631" y="711" on="0"/>
        <pt x="662" y="680" on="0"/>
        <pt x="685" y="680" on="1"/>
        <pt x="707" y="680" on="0"/>
        <pt x="739" y="711" on="0"/>
        <pt x="739" y="734" on="1"/>
        <pt x="739" y="756" on="0"/>
        <pt x="707" y="788" on="0"/>
        <pt x="685" y="788" on="1"/>
        <pt x="662" y="788" on="0"/>
        <pt x="631" y="756" on="0"/>
      </contour>
      <contour>
        <pt x="285" y="226" on="1"/>
        <pt x="285" y="203" on="0"/>
        <pt x="316" y="172" on="0"/>
        <pt x="339" y="172" on="1"/>
        <pt x="361" y="172" on="0"/>
        <pt x="393" y="203" on="0"/>
        <pt x="393" y="226" on="1"/>
        <pt x="393" y="248" on="0"/>
        <pt x="361" y="280" on="0"/>
        <pt x="339" y="280" on="1"/>
        <pt x="316" y="280" on="0"/>
        <pt x="285" y="248" on="0"/>
      </contour>
    </TTGlyph>
    <TTGlyph name="E" xMin="97" yMin="-1" xMax="1461" yMax="1617">
      <contour>
        <pt x="663" y="673" on="1"/>
        <pt x="645" y="643" on="0"/>
        <pt x="645" y="605" on="1"/>
        <pt x="645" y="577" on="0"/>
        <pt x="666" y="529" on="0"/>
        <pt x="702" y="493" on="0"/>
        <pt x="750" y="472" on="0"/>
        <pt x="778" y="472" on="1"/>
        <pt x="806" y="472" on="0"/>
        <pt x="855" y="493" on="0"/>
        <pt x="891" y="529" on="0"/>
        <pt x="912" y="577" on="0"/>
        <pt x="912" y="605" on="1"/>
        <pt x="912" y="645" on="0"/>
        <pt x="876" y="710" on="0"/>
        <pt x="818" y="764" on="0"/>
        <pt x="747" y="808" on="0"/>
        <pt x="713" y="828" on="1"/>
        <pt x="669" y="852" on="0"/>
        <pt x="584" y="906" on="0"/>
        <pt x="518" y="974" on="0"/>
        <pt x="477" y="1061" on="0"/>
        <pt x="477" y="1118" on="1"/>
        <pt x="477" y="1152" on="0"/>
        <pt x="490" y="1206" on="0"/>
        <pt x="510" y="1249" on="0"/>
        <pt x="535" y="1283" on="0"/>
        <pt x="548" y="1298" on="1"/>
        <pt x="559" y="1311" on="0"/>
        <pt x="575" y="1338" on="0"/>
        <pt x="575" y="1354" on="1"/>
        <pt x="575" y="1374" on="0"/>
        <pt x="547" y="1393" on="0"/>
        <pt x="526" y="1393" on="1"/>
        <pt x="480" y="1393" on="0"/>
        <pt x="389" y="1318" on="0"/>
        <pt x="317" y="1165" on="0"/>
        <pt x="272" y="933" on="0"/>
        <pt x="272" y="776" on="1"/>
        <pt x="272" y="619" on="0"/>
        <pt x="358" y="392" on="0"/>
        <pt x="500" y="244" on="0"/>
        <pt x="683" y="173" on="0"/>
        <pt x="781" y="173" on="1"/>
        <pt x="886" y="173" on="0"/>
        <pt x="1053" y="252" on="0"/>
        <pt x="1181" y="377" on="0"/>
        <pt x="1270" y="532" on="0"/>
        <pt x="1299" y="607" on="1"/>
        <pt x="1461" y="543" on="1"/>
        <pt x="1437" y="480" on="0"/>
        <pt x="1370" y="351" on="0"/>
        <pt x="1281" y="230" on="0"/>
        <pt x="1170" y="124" on="0"/>
        <pt x="1035" y="45" on="0"/>
        <pt x="874" y="-1" on="0"/>
        <pt x="781" y="-1" on="1"/>
        <pt x="695" y="-1" on="0"/>
        <pt x="526" y="39" on="0"/>
        <pt x="374" y="122" on="0"/>
        <pt x="245" y="249" on="0"/>
        <pt x="150" y="421" on="0"/>
        <pt x="97" y="641" on="0"/>
        <pt x="97" y="776" on="1"/>
        <pt x="97" y="978" on="0"/>
        <pt x="173" y="1275" on="0"/>
        <pt x="295" y="1471" on="0"/>
        <pt x="448" y="1567" on="0"/>
        <pt x="526" y="1567" on="1"/>
        <pt x="585" y="1567" on="0"/>
        <pt x="674" y="1528" on="0"/>
        <pt x="703" y="1491" on="1"/>
        <pt x="805" y="1617" on="1"/>
        <pt x="822" y="1563" on="0"/>
        <pt x="867" y="1454" on="0"/>
        <pt x="920" y="1368" on="0"/>
        <pt x="980" y="1314" on="0"/>
        <pt x="1013" y="1314" on="1"/>
        <pt x="1044" y="1314" on="0"/>
        <pt x="1092" y="1347" on="0"/>
        <pt x="1126" y="1406" on="0"/>
        <pt x="1144" y="1488" on="0"/>
        <pt x="1144" y="1537" on="1"/>
        <pt x="1318" y="1537" on="1"/>
        <pt x="1318" y="1451" on="0"/>
        <pt x="1277" y="1305" on="0"/>
        <pt x="1198" y="1199" on="0"/>
        <pt x="1085" y="1139" on="0"/>
        <pt x="1013" y="1139" on="1"/>
        <pt x="968" y="1139" on="0"/>
        <pt x="891" y="1160" on="0"/>
        <pt x="827" y="1197" on="0"/>
        <pt x="775" y="1246" on="0"/>
        <pt x="754" y="1275" on="1"/>
        <pt x="682" y="1187" on="1"/>
        <pt x="671" y="1173" on="0"/>
        <pt x="652" y="1139" on="0"/>
        <pt x="652" y="1119" on="1"/>
        <pt x="652" y="1097" on="0"/>
        <pt x="676" y="1060" on="0"/>
        <pt x="717" y="1027" on="0"/>
        <pt x="769" y="996" on="0"/>
        <pt x="798" y="980" on="1"/>
        <pt x="824" y="966" on="0"/>
        <pt x="876" y="936" on="0"/>
        <pt x="902" y="918" on="1"/>
        <pt x="918" y="952" on="0"/>
        <pt x="958" y="1012" on="0"/>
        <pt x="1010" y="1056" on="0"/>
        <pt x="1077" y="1081" on="0"/>
        <pt x="1119" y="1081" on="1"/>
        <pt x="1146" y="1081" on="0"/>
        <pt x="1189" y="1071" on="0"/>
        <pt x="1222" y="1055" on="0"/>
        <pt x="1250" y="1034" on="0"/>
        <pt x="1262" y="1024" on="1"/>
        <pt x="1262" y="1131" on="1"/>
        <pt x="1432" y="1131" on="1"/>
        <pt x="1432" y="1078" on="0"/>
        <pt x="1425" y="974" on="0"/>
        <pt x="1395" y="893" on="0"/>
        <pt x="1334" y="843" on="0"/>
        <pt x="1280" y="843" on="1"/>
        <pt x="1247" y="843" on="0"/>
        <pt x="1209" y="863" on="0"/>
        <pt x="1182" y="887" on="0"/>
        <pt x="1158" y="907" on="0"/>
        <pt x="1140" y="907" on="1"/>
        <pt x="1120" y="907" on="0"/>
        <pt x="1089" y="886" on="0"/>
        <pt x="1065" y="852" on="0"/>
        <pt x="1046" y="808" on="0"/>
        <pt x="1038" y="785" on="1"/>
        <pt x="1061" y="747" on="0"/>
        <pt x="1086" y="661" on="0"/>
        <pt x="1086" y="605" on="1"/>
        <pt x="1086" y="542" on="0"/>
        <pt x="1038" y="430" on="0"/>
        <pt x="954" y="347" on="0"/>
        <pt x="842" y="299" on="0"/>
        <pt x="779" y="299" on="1"/>
        <pt x="716" y="299" on="0"/>
        <pt x="604" y="347" on="0"/>
        <pt x="521" y="430" on="0"/>
        <pt x="473" y="542" on="0"/>
        <pt x="473" y="605" on="1"/>
        <pt x="473" y="653" on="0"/>
        <pt x="500" y="738" on="0"/>
        <pt x="525" y="775" on="1"/>
      </contour>
    </TTGlyph>
    <TTGlyph name="Eacute" xMin="97" yMin="-1" xMax="1461" yMax="1995">
      <contour>
        <pt x="809" y="1603" on="1"/>
        <pt x="826" y="1550" on="0"/>
        <pt x="870" y="1447" on="0"/>
        <pt x="922" y="1365" on="0"/>
        <pt x="981" y="1314" on="0"/>
        <pt x="1013" y="1314" on="1"/>
        <pt x="1044" y="1314" on="0"/>
        <pt x="1092" y="1347" on="0"/>
        <pt x="1126" y="1406" on="0"/>
        <pt x="1144" y="1488" on="0"/>
        <pt x="1144" y="1537" on="1"/>
        <pt x="1318" y="1537" on="1"/>
        <pt x="1318" y="1451" on="0"/>
        <pt x="1277" y="1305" on="0"/>
        <pt x="1198" y="1199" on="0"/>
        <pt x="1085" y="1139" on="0"/>
        <pt x="1013" y="1139" on="1"/>
        <pt x="968" y="1139" on="0"/>
        <pt x="891" y="1160" on="0"/>
        <pt x="827" y="1197" on="0"/>
        <pt x="775" y="1246" on="0"/>
        <pt x="754" y="1275" on="1"/>
        <pt x="682" y="1187" on="1"/>
        <pt x="671" y="1173" on="0"/>
        <pt x="652" y="1139" on="0"/>
        <pt x="652" y="1119" on="1"/>
        <pt x="652" y="1097" on="0"/>
        <pt x="676" y="1060" on="0"/>
        <pt x="717" y="1027" on="0"/>
        <pt x="769" y="996" on="0"/>
        <pt x="798" y="980" on="1"/>
        <pt x="824" y="966" on="0"/>
        <pt x="876" y="936" on="0"/>
        <pt x="902" y="918" on="1"/>
        <pt x="918" y="952" on="0"/>
        <pt x="958" y="1012" on="0"/>
        <pt x="1010" y="1056" on="0"/>
        <pt x="1077" y="1081" on="0"/>
        <pt x="1119" y="1081" on="1"/>
        <pt x="1146" y="1081" on="0"/>
        <pt x="1189" y="1071" on="0"/>
        <pt x="1222" y="1055" on="0"/>
        <pt x="1250" y="1034" on="0"/>
        <pt x="1262" y="1024" on="1"/>
        <pt x="1262" y="1131" on="1"/>
        <pt x="1432" y="1131" on="1"/>
        <pt x="1432" y="1078" on="0"/>
        <pt x="1425" y="974" on="0"/>
        <pt x="1395" y="893" on="0"/>
        <pt x="1334" y="843" on="0"/>
        <pt x="1280" y="843" on="1"/>
        <pt x="1247" y="843" on="0"/>
        <pt x="1209" y="863" on="0"/>
        <pt x="1182" y="887" on="0"/>
        <pt x="1158" y="907" on="0"/>
        <pt x="1140" y="907" on="1"/>
        <pt x="1120" y="907" on="0"/>
        <pt x="1089" y="886" on="0"/>
        <pt x="1065" y="852" on="0"/>
        <pt x="1046" y="808" on="0"/>
        <pt x="1038" y="785" on="1"/>
        <pt x="1061" y="747" on="0"/>
        <pt x="1086" y="661" on="0"/>
        <pt x="1086" y="605" on="1"/>
        <pt x="1086" y="542" on="0"/>
        <pt x="1038" y="430" on="0"/>
        <pt x="954" y="347" on="0"/>
        <pt x="842" y="299" on="0"/>
        <pt x="779" y="299" on="1"/>
        <pt x="716" y="299" on="0"/>
        <pt x="604" y="347" on="0"/>
        <pt x="521" y="430" on="0"/>
        <pt x="473" y="542" on="0"/>
        <pt x="473" y="605" on="1"/>
        <pt x="473" y="653" on="0"/>
        <pt x="500" y="738" on="0"/>
        <pt x="525" y="775" on="1"/>
        <pt x="663" y="673" on="1"/>
        <pt x="645" y="643" on="0"/>
        <pt x="645" y="605" on="1"/>
        <pt x="645" y="577" on="0"/>
        <pt x="666" y="529" on="0"/>
        <pt x="702" y="493" on="0"/>
        <pt x="750" y="472" on="0"/>
        <pt x="778" y="472" on="1"/>
        <pt x="806" y="472" on="0"/>
        <pt x="855" y="493" on="0"/>
        <pt x="891" y="529" on="0"/>
        <pt x="912" y="577" on="0"/>
        <pt x="912" y="605" on="1"/>
        <pt x="912" y="645" on="0"/>
        <pt x="876" y="710" on="0"/>
        <pt x="818" y="764" on="0"/>
        <pt x="747" y="808" on="0"/>
        <pt x="713" y="828" on="1"/>
        <pt x="669" y="852" on="0"/>
        <pt x="584" y="906" on="0"/>
        <pt x="518" y="974" on="0"/>
        <pt x="477" y="1061" on="0"/>
        <pt x="477" y="1118" on="1"/>
        <pt x="477" y="1152" on="0"/>
        <pt x="490" y="1206" on="0"/>
        <pt x="510" y="1249" on="0"/>
        <pt x="535" y="1283" on="0"/>
        <pt x="548" y="1298" on="1"/>
        <pt x="559" y="1311" on="0"/>
        <pt x="575" y="1338" on="0"/>
        <pt x="575" y="1354" on="1"/>
        <pt x="575" y="1374" on="0"/>
        <pt x="547" y="1393" on="0"/>
        <pt x="526" y="1393" on="1"/>
        <pt x="480" y="1393" on="0"/>
        <pt x="389" y="1318" on="0"/>
        <pt x="317" y="1165" on="0"/>
        <pt x="272" y="933" on="0"/>
        <pt x="272" y="776" on="1"/>
        <pt x="272" y="619" on="0"/>
        <pt x="358" y="392" on="0"/>
        <pt x="500" y="244" on="0"/>
        <pt x="683" y="173" on="0"/>
        <pt x="781" y="173" on="1"/>
        <pt x="886" y="173" on="0"/>
        <pt x="1053" y="252" on="0"/>
        <pt x="1181" y="377" on="0"/>
        <pt x="1270" y="532" on="0"/>
        <pt x="1299" y="607" on="1"/>
        <pt x="1461" y="543" on="1"/>
        <pt x="1437" y="480" on="0"/>
        <pt x="1370" y="351" on="0"/>
        <pt x="1281" y="230" on="0"/>
        <pt x="1170" y="124" on="0"/>
        <pt x="1035" y="45" on="0"/>
        <pt x="874" y="-1" on="0"/>
        <pt x="781" y="-1" on="1"/>
        <pt x="695" y="-1" on="0"/>
        <pt x="526" y="39" on="0"/>
        <pt x="374" y="122" on="0"/>
        <pt x="245" y="249" on="0"/>
        <pt x="150" y="421" on="0"/>
        <pt x="97" y="641" on="0"/>
        <pt x="97" y="776" on="1"/>
        <pt x="97" y="978" on="0"/>
        <pt x="173" y="1275" on="0"/>
        <pt x="295" y="1471" on="0"/>
        <pt x="448" y="1567" on="0"/>
        <pt x="526" y="1567" on="1"/>
        <pt x="585" y="1567" on="0"/>
        <pt x="674" y="1528" on="0"/>
        <pt x="703" y="1491" on="1"/>
        <pt x="797" y="1607" on="1"/>
        <pt x="713" y="1741" on="1"/>
        <pt x="1062" y="1995" on="1"/>
        <pt x="1178" y="1837" on="1"/>
      </contour>
    </TTGlyph>
    <TTGlyph name="Ecircumflex" xMin="97" yMin="-1" xMax="1461" yMax="1997">
      <contour>
        <pt x="663" y="673" on="1"/>
        <pt x="645" y="643" on="0"/>
        <pt x="645" y="605" on="1"/>
        <pt x="645" y="577" on="0"/>
        <pt x="666" y="529" on="0"/>
        <pt x="702" y="493" on="0"/>
        <pt x="750" y="472" on="0"/>
        <pt x="778" y="472" on="1"/>
        <pt x="806" y="472" on="0"/>
        <pt x="855" y="493" on="0"/>
        <pt x="891" y="529" on="0"/>
        <pt x="912" y="577" on="0"/>
        <pt x="912" y="605" on="1"/>
        <pt x="912" y="645" on="0"/>
        <pt x="876" y="710" on="0"/>
        <pt x="818" y="764" on="0"/>
        <pt x="747" y="808" on="0"/>
        <pt x="713" y="828" on="1"/>
        <pt x="669" y="852" on="0"/>
        <pt x="584" y="906" on="0"/>
        <pt x="518" y="974" on="0"/>
        <pt x="477" y="1061" on="0"/>
        <pt x="477" y="1118" on="1"/>
        <pt x="477" y="1152" on="0"/>
        <pt x="490" y="1206" on="0"/>
        <pt x="510" y="1249" on="0"/>
        <pt x="535" y="1283" on="0"/>
        <pt x="548" y="1298" on="1"/>
        <pt x="559" y="1311" on="0"/>
        <pt x="575" y="1338" on="0"/>
        <pt x="575" y="1354" on="1"/>
        <pt x="575" y="1374" on="0"/>
        <pt x="547" y="1393" on="0"/>
        <pt x="526" y="1393" on="1"/>
        <pt x="480" y="1393" on="0"/>
        <pt x="389" y="1318" on="0"/>
        <pt x="317" y="1165" on="0"/>
        <pt x="272" y="933" on="0"/>
        <pt x="272" y="776" on="1"/>
        <pt x="272" y="619" on="0"/>
        <pt x="358" y="392" on="0"/>
        <pt x="500" y="244" on="0"/>
        <pt x="683" y="173" on="0"/>
        <pt x="781" y="173" on="1"/>
        <pt x="886" y="173" on="0"/>
        <pt x="1053" y="252" on="0"/>
        <pt x="1181" y="377" on="0"/>
        <pt x="1270" y="532" on="0"/>
        <pt x="1299" y="607" on="1"/>
        <pt x="1461" y="543" on="1"/>
        <pt x="1437" y="480" on="0"/>
        <pt x="1370" y="351" on="0"/>
        <pt x="1281" y="230" on="0"/>
        <pt x="1170" y="124" on="0"/>
        <pt x="1035" y="45" on="0"/>
        <pt x="874" y="-1" on="0"/>
        <pt x="781" y="-1" on="1"/>
        <pt x="695" y="-1" on="0"/>
        <pt x="526" y="39" on="0"/>
        <pt x="374" y="122" on="0"/>
        <pt x="245" y="249" on="0"/>
        <pt x="150" y="421" on="0"/>
        <pt x="97" y="641" on="0"/>
        <pt x="97" y="776" on="1"/>
        <pt x="97" y="978" on="0"/>
        <pt x="173" y="1275" on="0"/>
        <pt x="295" y="1471" on="0"/>
        <pt x="448" y="1567" on="0"/>
        <pt x="526" y="1567" on="1"/>
        <pt x="585" y="1567" on="0"/>
        <pt x="674" y="1528" on="0"/>
        <pt x="703" y="1491" on="1"/>
        <pt x="805" y="1617" on="1"/>
        <pt x="822" y="1563" on="0"/>
        <pt x="867" y="1454" on="0"/>
        <pt x="920" y="1368" on="0"/>
        <pt x="980" y="1314" on="0"/>
        <pt x="1013" y="1314" on="1"/>
        <pt x="1044" y="1314" on="0"/>
        <pt x="1092" y="1347" on="0"/>
        <pt x="1126" y="1406" on="0"/>
        <pt x="1144" y="1488" on="0"/>
        <pt x="1144" y="1537" on="1"/>
        <pt x="1318" y="1537" on="1"/>
        <pt x="1318" y="1451" on="0"/>
        <pt x="1277" y="1305" on="0"/>
        <pt x="1198" y="1199" on="0"/>
        <pt x="1085" y="1139" on="0"/>
        <pt x="1013" y="1139" on="1"/>
        <pt x="968" y="1139" on="0"/>
        <pt x="891" y="1160" on="0"/>
        <pt x="827" y="1197" on="0"/>
        <pt x="775" y="1246" on="0"/>
        <pt x="754" y="1275" on="1"/>
        <pt x="682" y="1187" on="1"/>
        <pt x="671" y="1173" on="0"/>
        <pt x="652" y="1139" on="0"/>
        <pt x="652" y="1119" on="1"/>
        <pt x="652" y="1097" on="0"/>
        <pt x="676" y="1060" on="0"/>
        <pt x="717" y="1027" on="0"/>
        <pt x="769" y="996" on="0"/>
        <pt x="798" y="980" on="1"/>
        <pt x="824" y="966" on="0"/>
        <pt x="876" y="936" on="0"/>
        <pt x="902" y="918" on="1"/>
        <pt x="918" y="952" on="0"/>
        <pt x="958" y="1012" on="0"/>
        <pt x="1010" y="1056" on="0"/>
        <pt x="1077" y="1081" on="0"/>
        <pt x="1119" y="1081" on="1"/>
        <pt x="1146" y="1081" on="0"/>
        <pt x="1189" y="1071" on="0"/>
        <pt x="1222" y="1055" on="0"/>
        <pt x="1250" y="1034" on="0"/>
        <pt x="1262" y="1024" on="1"/>
        <pt x="1262" y="1131" on="1"/>
        <pt x="1432" y="1131" on="1"/>
        <pt x="1432" y="1078" on="0"/>
        <pt x="1425" y="974" on="0"/>
        <pt x="1395" y="893" on="0"/>
        <pt x="1334" y="843" on="0"/>
        <pt x="1280" y="843" on="1"/>
        <pt x="1247" y="843" on="0"/>
        <pt x="1209" y="863" on="0"/>
        <pt x="1182" y="887" on="0"/>
        <pt x="1158" y="907" on="0"/>
        <pt x="1140" y="907" on="1"/>
        <pt x="1120" y="907" on="0"/>
        <pt x="1089" y="886" on="0"/>
        <pt x="1065" y="852" on="0"/>
        <pt x="1046" y="808" on="0"/>
        <pt x="1038" y="785" on="1"/>
        <pt x="1061" y="747" on="0"/>
        <pt x="1086" y="661" on="0"/>
        <pt x="1086" y="605" on="1"/>
        <pt x="1086" y="542" on="0"/>
        <pt x="1038" y="430" on="0"/>
        <pt x="954" y="347" on="0"/>
        <pt x="842" y="299" on="0"/>
        <pt x="779" y="299" on="1"/>
        <pt x="716" y="299" on="0"/>
        <pt x="604" y="347" on="0"/>
        <pt x="521" y="430" on="0"/>
        <pt x="473" y="542" on="0"/>
        <pt x="473" y="605" on="1"/>
        <pt x="473" y="653" on="0"/>
        <pt x="500" y="738" on="0"/>
        <pt x="525" y="775" on="1"/>
      </contour>
      <contour>
        <pt x="498" y="1745" on="1"/>
        <pt x="859" y="1997" on="1"/>
        <pt x="1207" y="1745" on="1"/>
        <pt x="1104" y="1609" on="1"/>
        <pt x="859" y="1790" on="1"/>
        <pt x="830" y="1767" on="0"/>
        <pt x="743" y="1706" on="0"/>
        <pt x="701" y="1677" on="1"/>
        <pt x="653" y="1644" on="0"/>
        <pt x="601" y="1609" on="1"/>
      </contour>
    </TTGlyph>
    <TTGlyph name="Edieresis" xMin="97" yMin="-1" xMax="1461" yMax="1992">
      <contour>
        <pt x="663" y="673" on="1"/>
        <pt x="645" y="643" on="0"/>
        <pt x="645" y="605" on="1"/>
        <pt x="645" y="577" on="0"/>
        <pt x="666" y="529" on="0"/>
        <pt x="702" y="493" on="0"/>
        <pt x="750" y="472" on="0"/>
        <pt x="778" y="472" on="1"/>
        <pt x="806" y="472" on="0"/>
        <pt x="855" y="493" on="0"/>
        <pt x="891" y="529" on="0"/>
        <pt x="912" y="577" on="0"/>
        <pt x="912" y="605" on="1"/>
        <pt x="912" y="645" on="0"/>
        <pt x="876" y="710" on="0"/>
        <pt x="818" y="764" on="0"/>
        <pt x="747" y="808" on="0"/>
        <pt x="713" y="828" on="1"/>
        <pt x="669" y="852" on="0"/>
        <pt x="584" y="906" on="0"/>
        <pt x="518" y="974" on="0"/>
        <pt x="477" y="1061" on="0"/>
        <pt x="477" y="1118" on="1"/>
        <pt x="477" y="1152" on="0"/>
        <pt x="490" y="1206" on="0"/>
        <pt x="510" y="1249" on="0"/>
        <pt x="535" y="1283" on="0"/>
        <pt x="548" y="1298" on="1"/>
        <pt x="559" y="1311" on="0"/>
        <pt x="575" y="1338" on="0"/>
        <pt x="575" y="1354" on="1"/>
        <pt x="575" y="1374" on="0"/>
        <pt x="547" y="1393" on="0"/>
        <pt x="526" y="1393" on="1"/>
        <pt x="480" y="1393" on="0"/>
        <pt x="389" y="1318" on="0"/>
        <pt x="317" y="1165" on="0"/>
        <pt x="272" y="933" on="0"/>
        <pt x="272" y="776" on="1"/>
        <pt x="272" y="619" on="0"/>
        <pt x="358" y="392" on="0"/>
        <pt x="500" y="244" on="0"/>
        <pt x="683" y="173" on="0"/>
        <pt x="781" y="173" on="1"/>
        <pt x="886" y="173" on="0"/>
        <pt x="1053" y="252" on="0"/>
        <pt x="1181" y="377" on="0"/>
        <pt x="1270" y="532" on="0"/>
        <pt x="1299" y="607" on="1"/>
        <pt x="1461" y="543" on="1"/>
        <pt x="1437" y="480" on="0"/>
        <pt x="1370" y="351" on="0"/>
        <pt x="1281" y="230" on="0"/>
        <pt x="1170" y="124" on="0"/>
        <pt x="1035" y="45" on="0"/>
        <pt x="874" y="-1" on="0"/>
        <pt x="781" y="-1" on="1"/>
        <pt x="695" y="-1" on="0"/>
        <pt x="526" y="39" on="0"/>
        <pt x="374" y="122" on="0"/>
        <pt x="245" y="249" on="0"/>
        <pt x="150" y="421" on="0"/>
        <pt x="97" y="641" on="0"/>
        <pt x="97" y="776" on="1"/>
        <pt x="97" y="978" on="0"/>
        <pt x="173" y="1275" on="0"/>
        <pt x="295" y="1471" on="0"/>
        <pt x="448" y="1567" on="0"/>
        <pt x="526" y="1567" on="1"/>
        <pt x="585" y="1567" on="0"/>
        <pt x="674" y="1528" on="0"/>
        <pt x="703" y="1491" on="1"/>
        <pt x="805" y="1617" on="1"/>
        <pt x="822" y="1563" on="0"/>
        <pt x="867" y="1454" on="0"/>
        <pt x="920" y="1368" on="0"/>
        <pt x="980" y="1314" on="0"/>
        <pt x="1013" y="1314" on="1"/>
        <pt x="1044" y="1314" on="0"/>
        <pt x="1092" y="1347" on="0"/>
        <pt x="1126" y="1406" on="0"/>
        <pt x="1144" y="1488" on="0"/>
        <pt x="1144" y="1537" on="1"/>
        <pt x="1318" y="1537" on="1"/>
        <pt x="1318" y="1451" on="0"/>
        <pt x="1277" y="1305" on="0"/>
        <pt x="1198" y="1199" on="0"/>
        <pt x="1085" y="1139" on="0"/>
        <pt x="1013" y="1139" on="1"/>
        <pt x="968" y="1139" on="0"/>
        <pt x="891" y="1160" on="0"/>
        <pt x="827" y="1197" on="0"/>
        <pt x="775" y="1246" on="0"/>
        <pt x="754" y="1275" on="1"/>
        <pt x="682" y="1187" on="1"/>
        <pt x="671" y="1173" on="0"/>
        <pt x="652" y="1139" on="0"/>
        <pt x="652" y="1119" on="1"/>
        <pt x="652" y="1097" on="0"/>
        <pt x="676" y="1060" on="0"/>
        <pt x="717" y="1027" on="0"/>
        <pt x="769" y="996" on="0"/>
        <pt x="798" y="980" on="1"/>
        <pt x="824" y="966" on="0"/>
        <pt x="876" y="936" on="0"/>
        <pt x="902" y="918" on="1"/>
        <pt x="918" y="952" on="0"/>
        <pt x="958" y="1012" on="0"/>
        <pt x="1010" y="1056" on="0"/>
        <pt x="1077" y="1081" on="0"/>
        <pt x="1119" y="1081" on="1"/>
        <pt x="1146" y="1081" on="0"/>
        <pt x="1189" y="1071" on="0"/>
        <pt x="1222" y="1055" on="0"/>
        <pt x="1250" y="1034" on="0"/>
        <pt x="1262" y="1024" on="1"/>
        <pt x="1262" y="1131" on="1"/>
        <pt x="1432" y="1131" on="1"/>
        <pt x="1432" y="1078" on="0"/>
        <pt x="1425" y="974" on="0"/>
        <pt x="1395" y="893" on="0"/>
        <pt x="1334" y="843" on="0"/>
        <pt x="1280" y="843" on="1"/>
        <pt x="1247" y="843" on="0"/>
        <pt x="1209" y="863" on="0"/>
        <pt x="1182" y="887" on="0"/>
        <pt x="1158" y="907" on="0"/>
        <pt x="1140" y="907" on="1"/>
        <pt x="1120" y="907" on="0"/>
        <pt x="1089" y="886" on="0"/>
        <pt x="1065" y="852" on="0"/>
        <pt x="1046" y="808" on="0"/>
        <pt x="1038" y="785" on="1"/>
        <pt x="1061" y="747" on="0"/>
        <pt x="1086" y="661" on="0"/>
        <pt x="1086" y="605" on="1"/>
        <pt x="1086" y="542" on="0"/>
        <pt x="1038" y="430" on="0"/>
        <pt x="954" y="347" on="0"/>
        <pt x="842" y="299" on="0"/>
        <pt x="779" y="299" on="1"/>
        <pt x="716" y="299" on="0"/>
        <pt x="604" y="347" on="0"/>
        <pt x="521" y="430" on="0"/>
        <pt x="473" y="542" on="0"/>
        <pt x="473" y="605" on="1"/>
        <pt x="473" y="653" on="0"/>
        <pt x="500" y="738" on="0"/>
        <pt x="525" y="775" on="1"/>
      </contour>
      <contour>
        <pt x="1021" y="1657" on="1"/>
        <pt x="863" y="1710" on="1"/>
        <pt x="981" y="1992" on="1"/>
        <pt x="1158" y="1921" on="1"/>
      </contour>
      <contour>
        <pt x="716" y="1657" on="1"/>
        <pt x="558" y="1710" on="1"/>
        <pt x="677" y="1992" on="1"/>
        <pt x="854" y="1921" on="1"/>
      </contour>
    </TTGlyph>
    <TTGlyph name="Egrave" xMin="97" yMin="-1" xMax="1461" yMax="1995">
      <contour>
        <pt x="663" y="673" on="1"/>
        <pt x="645" y="643" on="0"/>
        <pt x="645" y="605" on="1"/>
        <pt x="645" y="577" on="0"/>
        <pt x="666" y="529" on="0"/>
        <pt x="702" y="493" on="0"/>
        <pt x="750" y="472" on="0"/>
        <pt x="778" y="472" on="1"/>
        <pt x="806" y="472" on="0"/>
        <pt x="855" y="493" on="0"/>
        <pt x="891" y="529" on="0"/>
        <pt x="912" y="577" on="0"/>
        <pt x="912" y="605" on="1"/>
        <pt x="912" y="645" on="0"/>
        <pt x="876" y="710" on="0"/>
        <pt x="818" y="764" on="0"/>
        <pt x="747" y="808" on="0"/>
        <pt x="713" y="828" on="1"/>
        <pt x="669" y="852" on="0"/>
        <pt x="584" y="906" on="0"/>
        <pt x="518" y="974" on="0"/>
        <pt x="477" y="1061" on="0"/>
        <pt x="477" y="1118" on="1"/>
        <pt x="477" y="1152" on="0"/>
        <pt x="490" y="1206" on="0"/>
        <pt x="510" y="1249" on="0"/>
        <pt x="535" y="1283" on="0"/>
        <pt x="548" y="1298" on="1"/>
        <pt x="559" y="1311" on="0"/>
        <pt x="575" y="1338" on="0"/>
        <pt x="575" y="1354" on="1"/>
        <pt x="575" y="1374" on="0"/>
        <pt x="547" y="1393" on="0"/>
        <pt x="526" y="1393" on="1"/>
        <pt x="480" y="1393" on="0"/>
        <pt x="389" y="1318" on="0"/>
        <pt x="317" y="1165" on="0"/>
        <pt x="272" y="933" on="0"/>
        <pt x="272" y="776" on="1"/>
        <pt x="272" y="619" on="0"/>
        <pt x="358" y="392" on="0"/>
        <pt x="500" y="244" on="0"/>
        <pt x="683" y="173" on="0"/>
        <pt x="781" y="173" on="1"/>
        <pt x="886" y="173" on="0"/>
        <pt x="1053" y="252" on="0"/>
        <pt x="1181" y="377" on="0"/>
        <pt x="1270" y="532" on="0"/>
        <pt x="1299" y="607" on="1"/>
        <pt x="1461" y="543" on="1"/>
        <pt x="1437" y="480" on="0"/>
        <pt x="1370" y="351" on="0"/>
        <pt x="1281" y="230" on="0"/>
        <pt x="1170" y="124" on="0"/>
        <pt x="1035" y="45" on="0"/>
        <pt x="874" y="-1" on="0"/>
        <pt x="781" y="-1" on="1"/>
        <pt x="695" y="-1" on="0"/>
        <pt x="526" y="39" on="0"/>
        <pt x="374" y="122" on="0"/>
        <pt x="245" y="249" on="0"/>
        <pt x="150" y="421" on="0"/>
        <pt x="97" y="641" on="0"/>
        <pt x="97" y="776" on="1"/>
        <pt x="97" y="978" on="0"/>
        <pt x="173" y="1275" on="0"/>
        <pt x="295" y="1471" on="0"/>
        <pt x="448" y="1567" on="0"/>
        <pt x="526" y="1567" on="1"/>
        <pt x="585" y="1567" on="0"/>
        <pt x="674" y="1528" on="0"/>
        <pt x="703" y="1491" on="1"/>
        <pt x="796" y="1606" on="1"/>
        <pt x="437" y="1837" on="1"/>
        <pt x="553" y="1995" on="1"/>
        <pt x="901" y="1741" on="1"/>
        <pt x="810" y="1599" on="1"/>
        <pt x="828" y="1546" on="0"/>
        <pt x="872" y="1444" on="0"/>
        <pt x="923" y="1364" on="0"/>
        <pt x="981" y="1314" on="0"/>
        <pt x="1013" y="1314" on="1"/>
        <pt x="1044" y="1314" on="0"/>
        <pt x="1092" y="1347" on="0"/>
        <pt x="1126" y="1406" on="0"/>
        <pt x="1144" y="1488" on="0"/>
        <pt x="1144" y="1537" on="1"/>
        <pt x="1318" y="1537" on="1"/>
        <pt x="1318" y="1451" on="0"/>
        <pt x="1277" y="1305" on="0"/>
        <pt x="1198" y="1199" on="0"/>
        <pt x="1085" y="1139" on="0"/>
        <pt x="1013" y="1139" on="1"/>
        <pt x="968" y="1139" on="0"/>
        <pt x="891" y="1160" on="0"/>
        <pt x="827" y="1197" on="0"/>
        <pt x="775" y="1246" on="0"/>
        <pt x="754" y="1275" on="1"/>
        <pt x="682" y="1187" on="1"/>
        <pt x="671" y="1173" on="0"/>
        <pt x="652" y="1139" on="0"/>
        <pt x="652" y="1119" on="1"/>
        <pt x="652" y="1097" on="0"/>
        <pt x="676" y="1060" on="0"/>
        <pt x="717" y="1027" on="0"/>
        <pt x="769" y="996" on="0"/>
        <pt x="798" y="980" on="1"/>
        <pt x="824" y="966" on="0"/>
        <pt x="876" y="936" on="0"/>
        <pt x="902" y="918" on="1"/>
        <pt x="918" y="952" on="0"/>
        <pt x="958" y="1012" on="0"/>
        <pt x="1010" y="1056" on="0"/>
        <pt x="1077" y="1081" on="0"/>
        <pt x="1119" y="1081" on="1"/>
        <pt x="1146" y="1081" on="0"/>
        <pt x="1189" y="1071" on="0"/>
        <pt x="1222" y="1055" on="0"/>
        <pt x="1250" y="1034" on="0"/>
        <pt x="1262" y="1024" on="1"/>
        <pt x="1262" y="1131" on="1"/>
        <pt x="1432" y="1131" on="1"/>
        <pt x="1432" y="1078" on="0"/>
        <pt x="1425" y="974" on="0"/>
        <pt x="1395" y="893" on="0"/>
        <pt x="1334" y="843" on="0"/>
        <pt x="1280" y="843" on="1"/>
        <pt x="1247" y="843" on="0"/>
        <pt x="1209" y="863" on="0"/>
        <pt x="1182" y="887" on="0"/>
        <pt x="1158" y="907" on="0"/>
        <pt x="1140" y="907" on="1"/>
        <pt x="1120" y="907" on="0"/>
        <pt x="1089" y="886" on="0"/>
        <pt x="1065" y="852" on="0"/>
        <pt x="1046" y="808" on="0"/>
        <pt x="1038" y="785" on="1"/>
        <pt x="1061" y="747" on="0"/>
        <pt x="1086" y="661" on="0"/>
        <pt x="1086" y="605" on="1"/>
        <pt x="1086" y="542" on="0"/>
        <pt x="1038" y="430" on="0"/>
        <pt x="954" y="347" on="0"/>
        <pt x="842" y="299" on="0"/>
        <pt x="779" y="299" on="1"/>
        <pt x="716" y="299" on="0"/>
        <pt x="604" y="347" on="0"/>
        <pt x="521" y="430" on="0"/>
        <pt x="473" y="542" on="0"/>
        <pt x="473" y="605" on="1"/>
        <pt x="473" y="653" on="0"/>
        <pt x="500" y="738" on="0"/>
        <pt x="525" y="775" on="1"/>
      </contour>
    </TTGlyph>
    <TTGlyph name="Eth" xMin="89" yMin="0" xMax="1645" yMax="1568">
      <contour>
        <pt x="462" y="734" on="1"/>
        <pt x="389" y="734" on="0"/>
        <pt x="277" y="767" on="0"/>
        <pt x="194" y="823" on="0"/>
        <pt x="138" y="896" on="0"/>
        <pt x="104" y="977" on="0"/>
        <pt x="89" y="1060" on="0"/>
        <pt x="89" y="1098" on="1"/>
        <pt x="89" y="1198" on="0"/>
        <pt x="174" y="1370" on="0"/>
        <pt x="333" y="1496" on="0"/>
        <pt x="560" y="1568" on="0"/>
        <pt x="702" y="1568" on="1"/>
        <pt x="831" y="1568" on="0"/>
        <pt x="1071" y="1495" on="0"/>
        <pt x="1281" y="1369" on="0"/>
        <pt x="1453" y="1199" on="0"/>
        <pt x="1577" y="1003" on="0"/>
        <pt x="1645" y="792" on="0"/>
        <pt x="1645" y="688" on="1"/>
        <pt x="1645" y="597" on="0"/>
        <pt x="1608" y="425" on="0"/>
        <pt x="1538" y="272" on="0"/>
        <pt x="1437" y="145" on="0"/>
        <pt x="1309" y="52" on="0"/>
        <pt x="1157" y="1" on="0"/>
        <pt x="1070" y="1" on="1"/>
        <pt x="1003" y="1" on="0"/>
        <pt x="895" y="37" on="0"/>
        <pt x="805" y="94" on="0"/>
        <pt x="727" y="165" on="0"/>
        <pt x="654" y="235" on="0"/>
        <pt x="582" y="297" on="0"/>
        <pt x="542" y="317" on="1"/>
        <pt x="552" y="296" on="0"/>
        <pt x="563" y="248" on="0"/>
        <pt x="563" y="223" on="1"/>
        <pt x="563" y="176" on="0"/>
        <pt x="528" y="95" on="0"/>
        <pt x="467" y="35" on="0"/>
        <pt x="385" y="0" on="0"/>
        <pt x="339" y="0" on="1"/>
        <pt x="292" y="0" on="0"/>
        <pt x="211" y="35" on="0"/>
        <pt x="151" y="95" on="0"/>
        <pt x="116" y="176" on="0"/>
        <pt x="116" y="223" on="1"/>
        <pt x="116" y="284" on="0"/>
        <pt x="172" y="377" on="0"/>
        <pt x="263" y="440" on="0"/>
        <pt x="379" y="473" on="0"/>
        <pt x="439" y="473" on="1"/>
        <pt x="521" y="473" on="0"/>
        <pt x="650" y="429" on="0"/>
        <pt x="757" y="363" on="0"/>
        <pt x="848" y="285" on="0"/>
        <pt x="936" y="219" on="0"/>
        <pt x="1029" y="175" on="0"/>
        <pt x="1083" y="175" on="1"/>
        <pt x="1168" y="175" on="0"/>
        <pt x="1311" y="260" on="0"/>
        <pt x="1414" y="402" on="0"/>
        <pt x="1471" y="587" on="0"/>
        <pt x="1471" y="688" on="1"/>
        <pt x="1471" y="759" on="0"/>
        <pt x="1428" y="903" on="0"/>
        <pt x="1351" y="1040" on="0"/>
        <pt x="1242" y="1166" on="0"/>
        <pt x="1109" y="1270" on="0"/>
        <pt x="958" y="1349" on="0"/>
        <pt x="876" y="1371" on="1"/>
        <pt x="588" y="1095" on="1"/>
        <pt x="610" y="1063" on="0"/>
        <pt x="671" y="1004" on="0"/>
        <pt x="737" y="955" on="0"/>
        <pt x="803" y="917" on="0"/>
        <pt x="831" y="905" on="1"/>
        <pt x="1119" y="905" on="1"/>
        <pt x="1119" y="734" on="1"/>
        <pt x="909" y="734" on="1"/>
        <pt x="909" y="686" on="0"/>
        <pt x="873" y="604" on="0"/>
        <pt x="812" y="544" on="0"/>
        <pt x="730" y="511" on="0"/>
        <pt x="685" y="511" on="1"/>
        <pt x="638" y="511" on="0"/>
        <pt x="557" y="546" on="0"/>
        <pt x="497" y="606" on="0"/>
        <pt x="462" y="687" on="0"/>
      </contour>
      <contour>
        <pt x="544" y="905" on="1"/>
        <pt x="511" y="926" on="0"/>
        <pt x="453" y="972" on="0"/>
        <pt x="410" y="1027" on="0"/>
        <pt x="385" y="1096" on="0"/>
        <pt x="385" y="1141" on="1"/>
        <pt x="645" y="1391" on="1"/>
        <pt x="556" y="1384" on="0"/>
        <pt x="414" y="1333" on="0"/>
        <pt x="316" y="1255" on="0"/>
        <pt x="264" y="1156" on="0"/>
        <pt x="264" y="1101" on="1"/>
        <pt x="264" y="1063" on="0"/>
        <pt x="287" y="992" on="0"/>
        <pt x="333" y="938" on="0"/>
        <pt x="401" y="905" on="0"/>
        <pt x="447" y="905" on="1"/>
      </contour>
      <contour>
        <pt x="268" y="224" on="1"/>
        <pt x="268" y="194" on="0"/>
        <pt x="310" y="152" on="0"/>
        <pt x="340" y="152" on="1"/>
        <pt x="370" y="152" on="0"/>
        <pt x="413" y="194" on="0"/>
        <pt x="413" y="224" on="1"/>
        <pt x="413" y="254" on="0"/>
        <pt x="370" y="297" on="0"/>
        <pt x="340" y="297" on="1"/>
        <pt x="310" y="297" on="0"/>
        <pt x="268" y="254" on="0"/>
      </contour>
      <contour>
        <pt x="615" y="734" on="1"/>
        <pt x="615" y="704" on="0"/>
        <pt x="657" y="662" on="0"/>
        <pt x="687" y="662" on="1"/>
        <pt x="717" y="662" on="0"/>
        <pt x="760" y="704" on="0"/>
        <pt x="760" y="734" on="1"/>
      </contour>
    </TTGlyph>
    <TTGlyph name="F" xMin="71" yMin="-219" xMax="1518" yMax="1567">
      <contour>
        <pt x="1139" y="1051" on="1"/>
        <pt x="1128" y="1051" on="0"/>
        <pt x="1109" y="1051" on="0"/>
        <pt x="1099" y="1053" on="1"/>
        <pt x="1057" y="1025" on="0"/>
        <pt x="985" y="952" on="0"/>
        <pt x="931" y="871" on="0"/>
        <pt x="900" y="786" on="0"/>
        <pt x="900" y="747" on="1"/>
        <pt x="900" y="718" on="0"/>
        <pt x="909" y="693" on="1"/>
        <pt x="922" y="723" on="0"/>
        <pt x="959" y="790" on="0"/>
        <pt x="1008" y="848" on="0"/>
        <pt x="1068" y="886" on="0"/>
        <pt x="1104" y="886" on="1"/>
        <pt x="1130" y="886" on="0"/>
        <pt x="1181" y="869" on="0"/>
        <pt x="1229" y="845" on="0"/>
        <pt x="1271" y="822" on="0"/>
        <pt x="1288" y="816" on="1"/>
        <pt x="1192" y="922" on="1"/>
        <pt x="1310" y="1048" on="1"/>
        <pt x="1346" y="1015" on="0"/>
        <pt x="1402" y="960" on="0"/>
        <pt x="1441" y="907" on="0"/>
        <pt x="1461" y="851" on="0"/>
        <pt x="1461" y="816" on="1"/>
        <pt x="1461" y="778" on="0"/>
        <pt x="1434" y="719" on="0"/>
        <pt x="1390" y="679" on="0"/>
        <pt x="1334" y="658" on="0"/>
        <pt x="1305" y="658" on="1"/>
        <pt x="1266" y="658" on="0"/>
        <pt x="1214" y="675" on="0"/>
        <pt x="1175" y="695" on="0"/>
        <pt x="1142" y="712" on="0"/>
        <pt x="1123" y="712" on="1"/>
        <pt x="1107" y="712" on="0"/>
        <pt x="1072" y="686" on="0"/>
        <pt x="1042" y="638" on="0"/>
        <pt x="1019" y="572" on="0"/>
        <pt x="1015" y="532" on="1"/>
        <pt x="1054" y="490" on="0"/>
        <pt x="1118" y="416" on="0"/>
        <pt x="1165" y="340" on="0"/>
        <pt x="1190" y="257" on="0"/>
        <pt x="1190" y="207" on="1"/>
        <pt x="1190" y="118" on="0"/>
        <pt x="1130" y="-37" on="0"/>
        <pt x="1015" y="-153" on="0"/>
        <pt x="845" y="-219" on="0"/>
        <pt x="735" y="-219" on="1"/>
        <pt x="647" y="-219" on="0"/>
        <pt x="487" y="-162" on="0"/>
        <pt x="365" y="-57" on="0"/>
        <pt x="293" y="90" on="0"/>
        <pt x="293" y="180" on="1"/>
        <pt x="293" y="253" on="0"/>
        <pt x="346" y="356" on="0"/>
        <pt x="383" y="396" on="1"/>
        <pt x="346" y="405" on="0"/>
        <pt x="284" y="445" on="0"/>
        <pt x="238" y="503" on="0"/>
        <pt x="212" y="575" on="0"/>
        <pt x="212" y="616" on="1"/>
        <pt x="212" y="683" on="0"/>
        <pt x="282" y="790" on="0"/>
        <pt x="339" y="817" on="1"/>
        <pt x="280" y="835" on="0"/>
        <pt x="182" y="906" on="0"/>
        <pt x="111" y="1002" on="0"/>
        <pt x="71" y="1118" on="0"/>
        <pt x="71" y="1183" on="1"/>
        <pt x="71" y="1262" on="0"/>
        <pt x="131" y="1402" on="0"/>
        <pt x="236" y="1507" on="0"/>
        <pt x="375" y="1567" on="0"/>
        <pt x="455" y="1567" on="1"/>
        <pt x="519" y="1567" on="0"/>
        <pt x="630" y="1526" on="0"/>
        <pt x="732" y="1461" on="0"/>
        <pt x="829" y="1382" on="0"/>
        <pt x="930" y="1307" on="0"/>
        <pt x="1039" y="1243" on="0"/>
        <pt x="1102" y="1227" on="1"/>
        <pt x="1071" y="1280" on="0"/>
        <pt x="1071" y="1343" on="1"/>
        <pt x="1071" y="1389" on="0"/>
        <pt x="1106" y="1471" on="0"/>
        <pt x="1166" y="1532" on="0"/>
        <pt x="1247" y="1567" on="0"/>
        <pt x="1294" y="1567" on="1"/>
        <pt x="1340" y="1567" on="0"/>
        <pt x="1422" y="1532" on="0"/>
        <pt x="1483" y="1471" on="0"/>
        <pt x="1518" y="1389" on="0"/>
        <pt x="1518" y="1343" on="1"/>
        <pt x="1518" y="1272" on="0"/>
        <pt x="1451" y="1164" on="0"/>
        <pt x="1343" y="1089" on="0"/>
        <pt x="1208" y="1051" on="0"/>
      </contour>
      <contour>
        <pt x="740" y="743" on="1"/>
        <pt x="740" y="803" on="0"/>
        <pt x="767" y="908" on="0"/>
        <pt x="816" y="999" on="0"/>
        <pt x="883" y="1077" on="0"/>
        <pt x="923" y="1110" on="1"/>
        <pt x="901" y="1122" on="0"/>
        <pt x="859" y="1150" on="0"/>
        <pt x="838" y="1164" on="1"/>
        <pt x="835" y="1099" on="0"/>
        <pt x="789" y="983" on="0"/>
        <pt x="711" y="890" on="0"/>
        <pt x="606" y="824" on="0"/>
        <pt x="545" y="809" on="1"/>
        <pt x="597" y="780" on="0"/>
        <pt x="660" y="679" on="0"/>
        <pt x="660" y="616" on="1"/>
        <pt x="660" y="611" on="0"/>
        <pt x="660" y="600" on="0"/>
        <pt x="659" y="595" on="1"/>
        <pt x="656" y="542" on="0"/>
        <pt x="626" y="460" on="0"/>
        <pt x="583" y="394" on="0"/>
        <pt x="534" y="337" on="0"/>
        <pt x="493" y="280" on="0"/>
        <pt x="466" y="218" on="0"/>
        <pt x="466" y="180" on="1"/>
        <pt x="466" y="129" on="0"/>
        <pt x="509" y="46" on="0"/>
        <pt x="582" y="-14" on="0"/>
        <pt x="680" y="-46" on="0"/>
        <pt x="735" y="-46" on="1"/>
        <pt x="804" y="-46" on="0"/>
        <pt x="909" y="-6" on="0"/>
        <pt x="980" y="63" on="0"/>
        <pt x="1017" y="155" on="0"/>
        <pt x="1017" y="207" on="1"/>
        <pt x="1017" y="251" on="0"/>
        <pt x="976" y="325" on="0"/>
        <pt x="914" y="395" on="0"/>
        <pt x="843" y="468" on="0"/>
        <pt x="781" y="558" on="0"/>
        <pt x="740" y="669" on="0"/>
      </contour>
      <contour>
        <pt x="246" y="1183" on="1"/>
        <pt x="246" y="1140" on="0"/>
        <pt x="279" y="1064" on="0"/>
        <pt x="336" y="1007" on="0"/>
        <pt x="412" y="974" on="0"/>
        <pt x="455" y="974" on="1"/>
        <pt x="498" y="974" on="0"/>
        <pt x="574" y="1007" on="0"/>
        <pt x="631" y="1064" on="0"/>
        <pt x="664" y="1140" on="0"/>
        <pt x="664" y="1183" on="1"/>
        <pt x="664" y="1226" on="0"/>
        <pt x="631" y="1302" on="0"/>
        <pt x="574" y="1359" on="0"/>
        <pt x="498" y="1392" on="0"/>
        <pt x="455" y="1392" on="1"/>
        <pt x="412" y="1392" on="0"/>
        <pt x="336" y="1359" on="0"/>
        <pt x="279" y="1302" on="0"/>
        <pt x="246" y="1226" on="0"/>
      </contour>
      <contour>
        <pt x="382" y="614" on="1"/>
        <pt x="382" y="591" on="0"/>
        <pt x="413" y="560" on="0"/>
        <pt x="436" y="560" on="1"/>
        <pt x="458" y="560" on="0"/>
        <pt x="490" y="591" on="0"/>
        <pt x="490" y="614" on="1"/>
        <pt x="490" y="636" on="0"/>
        <pt x="458" y="668" on="0"/>
        <pt x="436" y="668" on="1"/>
        <pt x="413" y="668" on="0"/>
        <pt x="382" y="636" on="0"/>
      </contour>
      <contour>
        <pt x="1240" y="1343" on="1"/>
        <pt x="1240" y="1320" on="0"/>
        <pt x="1271" y="1289" on="0"/>
        <pt x="1294" y="1289" on="1"/>
        <pt x="1316" y="1289" on="0"/>
        <pt x="1348" y="1320" on="0"/>
        <pt x="1348" y="1343" on="1"/>
        <pt x="1348" y="1365" on="0"/>
        <pt x="1316" y="1397" on="0"/>
        <pt x="1294" y="1397" on="1"/>
        <pt x="1271" y="1397" on="0"/>
        <pt x="1240" y="1365" on="0"/>
      </contour>
    </TTGlyph>
    <TTGlyph name="G" xMin="89" yMin="0" xMax="1640" yMax="1567">
      <contour>
        <pt x="1199" y="1393" on="1"/>
        <pt x="1145" y="1393" on="0"/>
        <pt x="1068" y="1386" on="0"/>
        <pt x="1047" y="1380" on="1"/>
        <pt x="1076" y="1321" on="0"/>
        <pt x="1103" y="1171" on="0"/>
        <pt x="1103" y="1083" on="1"/>
        <pt x="929" y="1083" on="1"/>
        <pt x="929" y="1152" on="0"/>
        <pt x="916" y="1256" on="0"/>
        <pt x="902" y="1285" on="1"/>
        <pt x="882" y="1259" on="0"/>
        <pt x="859" y="1201" on="0"/>
        <pt x="859" y="1167" on="1"/>
        <pt x="859" y="1134" on="0"/>
        <pt x="877" y="1074" on="0"/>
        <pt x="907" y="1018" on="0"/>
        <pt x="946" y="964" on="0"/>
        <pt x="967" y="937" on="1"/>
        <pt x="1536" y="1380" on="1"/>
        <pt x="1640" y="1241" on="1"/>
        <pt x="1419" y="1069" on="1"/>
        <pt x="1449" y="1032" on="0"/>
        <pt x="1505" y="941" on="0"/>
        <pt x="1548" y="832" on="0"/>
        <pt x="1573" y="705" on="0"/>
        <pt x="1573" y="632" on="1"/>
        <pt x="1573" y="501" on="0"/>
        <pt x="1479" y="270" on="0"/>
        <pt x="1301" y="99" on="0"/>
        <pt x="1042" y="0" on="0"/>
        <pt x="876" y="0" on="1"/>
        <pt x="739" y="0" on="0"/>
        <pt x="516" y="61" on="0"/>
        <pt x="341" y="168" on="0"/>
        <pt x="213" y="314" on="0"/>
        <pt x="130" y="485" on="0"/>
        <pt x="89" y="673" on="0"/>
        <pt x="89" y="769" on="1"/>
        <pt x="89" y="931" on="0"/>
        <pt x="179" y="1220" on="0"/>
        <pt x="343" y="1439" on="0"/>
        <pt x="573" y="1567" on="0"/>
        <pt x="713" y="1567" on="1"/>
        <pt x="775" y="1567" on="0"/>
        <pt x="877" y="1540" on="0"/>
        <pt x="919" y="1515" on="1"/>
        <pt x="973" y="1538" on="0"/>
        <pt x="1120" y="1567" on="0"/>
        <pt x="1199" y="1567" on="1"/>
      </contour>
      <contour>
        <pt x="716" y="507" on="1"/>
        <pt x="716" y="551" on="0"/>
        <pt x="747" y="628" on="0"/>
        <pt x="802" y="688" on="0"/>
        <pt x="877" y="725" on="0"/>
        <pt x="920" y="728" on="1"/>
        <pt x="884" y="775" on="0"/>
        <pt x="801" y="868" on="0"/>
        <pt x="730" y="973" on="0"/>
        <pt x="684" y="1093" on="0"/>
        <pt x="684" y="1167" on="1"/>
        <pt x="684" y="1231" on="0"/>
        <pt x="726" y="1341" on="0"/>
        <pt x="762" y="1389" on="1"/>
        <pt x="739" y="1393" on="0"/>
        <pt x="713" y="1393" on="1"/>
        <pt x="612" y="1393" on="0"/>
        <pt x="446" y="1292" on="0"/>
        <pt x="328" y="1122" on="0"/>
        <pt x="263" y="896" on="0"/>
        <pt x="263" y="770" on="1"/>
        <pt x="263" y="698" on="0"/>
        <pt x="295" y="555" on="0"/>
        <pt x="360" y="422" on="0"/>
        <pt x="459" y="307" on="0"/>
        <pt x="595" y="223" on="0"/>
        <pt x="769" y="174" on="0"/>
        <pt x="875" y="174" on="1"/>
        <pt x="1000" y="174" on="0"/>
        <pt x="1195" y="247" on="0"/>
        <pt x="1329" y="372" on="0"/>
        <pt x="1399" y="539" on="0"/>
        <pt x="1399" y="632" on="1"/>
        <pt x="1399" y="688" on="0"/>
        <pt x="1380" y="785" on="0"/>
        <pt x="1347" y="868" on="0"/>
        <pt x="1304" y="937" on="0"/>
        <pt x="1281" y="965" on="1"/>
        <pt x="1254" y="944" on="0"/>
        <pt x="1204" y="905" on="0"/>
        <pt x="1155" y="866" on="0"/>
        <pt x="1101" y="824" on="0"/>
        <pt x="1070" y="800" on="1"/>
        <pt x="1106" y="740" on="0"/>
        <pt x="1162" y="593" on="0"/>
        <pt x="1164" y="507" on="1"/>
        <pt x="1164" y="460" on="0"/>
        <pt x="1129" y="377" on="0"/>
        <pt x="1068" y="316" on="0"/>
        <pt x="985" y="281" on="0"/>
        <pt x="938" y="281" on="1"/>
        <pt x="892" y="281" on="0"/>
        <pt x="811" y="316" on="0"/>
        <pt x="751" y="377" on="0"/>
        <pt x="716" y="460" on="0"/>
      </contour>
      <contour>
        <pt x="886" y="505" on="1"/>
        <pt x="886" y="482" on="0"/>
        <pt x="917" y="451" on="0"/>
        <pt x="940" y="451" on="1"/>
        <pt x="962" y="451" on="0"/>
        <pt x="994" y="482" on="0"/>
        <pt x="994" y="505" on="1"/>
        <pt x="994" y="527" on="0"/>
        <pt x="962" y="559" on="0"/>
        <pt x="940" y="559" on="1"/>
        <pt x="917" y="559" on="0"/>
        <pt x="886" y="527" on="0"/>
      </contour>
    </TTGlyph>
    <TTGlyph name="H" xMin="34" yMin="-301" xMax="1355" yMax="1574">
      <contour>
        <pt x="1128" y="1399" on="1"/>
        <pt x="1094" y="1390" on="0"/>
        <pt x="1041" y="1375" on="0"/>
        <pt x="1005" y="1354" on="0"/>
        <pt x="986" y="1325" on="0"/>
        <pt x="986" y="1302" on="1"/>
        <pt x="986" y="1282" on="0"/>
        <pt x="1005" y="1239" on="0"/>
        <pt x="1036" y="1193" on="0"/>
        <pt x="1076" y="1145" on="0"/>
        <pt x="1098" y="1121" on="1"/>
        <pt x="1141" y="1073" on="0"/>
        <pt x="1232" y="966" on="0"/>
        <pt x="1307" y="837" on="0"/>
        <pt x="1355" y="681" on="0"/>
        <pt x="1355" y="585" on="1"/>
        <pt x="1355" y="460" on="0"/>
        <pt x="1280" y="268" on="0"/>
        <pt x="1147" y="124" on="0"/>
        <pt x="965" y="26" on="0"/>
        <pt x="859" y="-5" on="1"/>
        <pt x="800" y="23" on="0"/>
        <pt x="709" y="60" on="0"/>
        <pt x="629" y="83" on="0"/>
        <pt x="553" y="92" on="0"/>
        <pt x="508" y="92" on="1"/>
        <pt x="470" y="92" on="0"/>
        <pt x="414" y="73" on="0"/>
        <pt x="377" y="40" on="0"/>
        <pt x="359" y="-2" on="0"/>
        <pt x="359" y="-25" on="1"/>
        <pt x="359" y="-48" on="0"/>
        <pt x="376" y="-88" on="0"/>
        <pt x="406" y="-118" on="0"/>
        <pt x="446" y="-135" on="0"/>
        <pt x="469" y="-135" on="1"/>
        <pt x="469" y="-301" on="1"/>
        <pt x="411" y="-301" on="0"/>
        <pt x="310" y="-257" on="0"/>
        <pt x="234" y="-181" on="0"/>
        <pt x="190" y="-80" on="0"/>
        <pt x="190" y="-22" on="1"/>
        <pt x="190" y="51" on="0"/>
        <pt x="257" y="172" on="0"/>
        <pt x="314" y="210" on="1"/>
        <pt x="253" y="226" on="0"/>
        <pt x="151" y="296" on="0"/>
        <pt x="76" y="393" on="0"/>
        <pt x="34" y="512" on="0"/>
        <pt x="34" y="578" on="1"/>
        <pt x="212" y="578" on="1"/>
        <pt x="212" y="535" on="0"/>
        <pt x="245" y="459" on="0"/>
        <pt x="301" y="403" on="0"/>
        <pt x="377" y="370" on="0"/>
        <pt x="420" y="370" on="1"/>
        <pt x="462" y="370" on="0"/>
        <pt x="537" y="401" on="0"/>
        <pt x="594" y="455" on="0"/>
        <pt x="628" y="527" on="0"/>
        <pt x="628" y="569" on="1"/>
        <pt x="628" y="620" on="0"/>
        <pt x="594" y="703" on="0"/>
        <pt x="539" y="771" on="0"/>
        <pt x="470" y="830" on="0"/>
        <pt x="435" y="857" on="1"/>
        <pt x="390" y="892" on="0"/>
        <pt x="306" y="964" on="0"/>
        <pt x="241" y="1050" on="0"/>
        <pt x="202" y="1156" on="0"/>
        <pt x="202" y="1226" on="1"/>
        <pt x="202" y="1278" on="0"/>
        <pt x="235" y="1372" on="0"/>
        <pt x="308" y="1459" on="0"/>
        <pt x="424" y="1538" on="0"/>
        <pt x="507" y="1574" on="1"/>
        <pt x="579" y="1423" on="1"/>
        <pt x="531" y="1399" on="0"/>
        <pt x="455" y="1356" on="0"/>
        <pt x="404" y="1310" on="0"/>
        <pt x="377" y="1258" on="0"/>
        <pt x="377" y="1226" on="1"/>
        <pt x="377" y="1189" on="0"/>
        <pt x="405" y="1126" on="0"/>
        <pt x="452" y="1070" on="0"/>
        <pt x="511" y="1019" on="0"/>
        <pt x="542" y="995" on="1"/>
        <pt x="578" y="966" on="0"/>
        <pt x="658" y="899" on="0"/>
        <pt x="688" y="867" on="1"/>
        <pt x="747" y="912" on="0"/>
        <pt x="865" y="1005" on="0"/>
        <pt x="925" y="1050" on="1"/>
        <pt x="902" y="1080" on="0"/>
        <pt x="860" y="1137" on="0"/>
        <pt x="829" y="1198" on="0"/>
        <pt x="811" y="1268" on="0"/>
        <pt x="811" y="1311" on="1"/>
        <pt x="811" y="1410" on="0"/>
        <pt x="953" y="1534" on="0"/>
        <pt x="1086" y="1568" on="1"/>
      </contour>
      <contour>
        <pt x="802" y="575" on="1"/>
        <pt x="800" y="475" on="0"/>
        <pt x="707" y="310" on="0"/>
        <pt x="629" y="259" on="1"/>
        <pt x="688" y="251" on="0"/>
        <pt x="811" y="208" on="0"/>
        <pt x="869" y="180" on="1"/>
        <pt x="936" y="203" on="0"/>
        <pt x="1050" y="273" on="0"/>
        <pt x="1134" y="372" on="0"/>
        <pt x="1181" y="502" on="0"/>
        <pt x="1181" y="585" on="1"/>
        <pt x="1181" y="636" on="0"/>
        <pt x="1158" y="729" on="0"/>
        <pt x="1121" y="814" on="0"/>
        <pt x="1072" y="889" on="0"/>
        <pt x="1046" y="921" on="1"/>
        <pt x="779" y="716" on="1"/>
        <pt x="788" y="687" on="0"/>
        <pt x="802" y="615" on="0"/>
      </contour>
    </TTGlyph>
    <TTGlyph name="I" xMin="96" yMin="-1" xMax="1555" yMax="1567">
      <contour>
        <pt x="828" y="968" on="1"/>
        <pt x="851" y="917" on="0"/>
        <pt x="913" y="824" on="0"/>
        <pt x="978" y="733" on="0"/>
        <pt x="1040" y="640" on="0"/>
        <pt x="1089" y="538" on="0"/>
        <pt x="1119" y="423" on="0"/>
        <pt x="1119" y="356" on="1"/>
        <pt x="1119" y="308" on="0"/>
        <pt x="1095" y="218" on="0"/>
        <pt x="1072" y="180" on="1"/>
        <pt x="1078" y="178" on="0"/>
        <pt x="1101" y="175" on="0"/>
        <pt x="1125" y="174" on="0"/>
        <pt x="1148" y="173" on="0"/>
        <pt x="1155" y="173" on="1"/>
        <pt x="1198" y="173" on="0"/>
        <pt x="1274" y="206" on="0"/>
        <pt x="1331" y="263" on="0"/>
        <pt x="1364" y="339" on="0"/>
        <pt x="1364" y="382" on="1"/>
        <pt x="1364" y="425" on="0"/>
        <pt x="1330" y="501" on="0"/>
        <pt x="1273" y="558" on="0"/>
        <pt x="1196" y="591" on="0"/>
        <pt x="1153" y="591" on="1"/>
        <pt x="1153" y="766" on="1"/>
        <pt x="1232" y="766" on="0"/>
        <pt x="1372" y="706" on="0"/>
        <pt x="1477" y="601" on="0"/>
        <pt x="1537" y="461" on="0"/>
        <pt x="1537" y="382" on="1"/>
        <pt x="1537" y="302" on="0"/>
        <pt x="1477" y="163" on="0"/>
        <pt x="1372" y="59" on="0"/>
        <pt x="1232" y="-1" on="0"/>
        <pt x="1153" y="-1" on="1"/>
        <pt x="1066" y="-1" on="0"/>
        <pt x="927" y="46" on="0"/>
        <pt x="809" y="116" on="0"/>
        <pt x="704" y="198" on="0"/>
        <pt x="598" y="268" on="0"/>
        <pt x="484" y="315" on="0"/>
        <pt x="415" y="315" on="1"/>
        <pt x="376" y="315" on="0"/>
        <pt x="321" y="295" on="0"/>
        <pt x="286" y="266" on="0"/>
        <pt x="271" y="235" on="0"/>
        <pt x="271" y="224" on="1"/>
        <pt x="271" y="201" on="0"/>
        <pt x="300" y="170" on="0"/>
        <pt x="323" y="170" on="1"/>
        <pt x="323" y="0" on="1"/>
        <pt x="277" y="0" on="0"/>
        <pt x="196" y="35" on="0"/>
        <pt x="136" y="96" on="0"/>
        <pt x="101" y="179" on="0"/>
        <pt x="101" y="226" on="1"/>
        <pt x="101" y="272" on="0"/>
        <pt x="138" y="366" on="0"/>
        <pt x="215" y="441" on="0"/>
        <pt x="334" y="489" on="0"/>
        <pt x="415" y="489" on="1"/>
        <pt x="503" y="489" on="0"/>
        <pt x="642" y="447" on="0"/>
        <pt x="760" y="381" on="0"/>
        <pt x="864" y="300" on="0"/>
        <pt x="917" y="261" on="1"/>
        <pt x="930" y="281" on="0"/>
        <pt x="945" y="330" on="0"/>
        <pt x="945" y="356" on="1"/>
        <pt x="945" y="427" on="0"/>
        <pt x="901" y="538" on="0"/>
        <pt x="835" y="636" on="0"/>
        <pt x="757" y="728" on="0"/>
        <pt x="691" y="834" on="0"/>
        <pt x="647" y="963" on="0"/>
        <pt x="647" y="1047" on="1"/>
        <pt x="824" y="1187" on="1"/>
        <pt x="792" y="1210" on="0"/>
        <pt x="713" y="1280" on="0"/>
        <pt x="626" y="1346" on="0"/>
        <pt x="535" y="1393" on="0"/>
        <pt x="492" y="1393" on="1"/>
        <pt x="441" y="1393" on="0"/>
        <pt x="359" y="1352" on="0"/>
        <pt x="302" y="1289" on="0"/>
        <pt x="271" y="1213" on="0"/>
        <pt x="271" y="1178" on="1"/>
        <pt x="271" y="1128" on="0"/>
        <pt x="310" y="1052" on="0"/>
        <pt x="381" y="1000" on="0"/>
        <pt x="478" y="974" on="0"/>
        <pt x="536" y="974" on="1"/>
        <pt x="536" y="800" on="1"/>
        <pt x="441" y="800" on="0"/>
        <pt x="279" y="849" on="0"/>
        <pt x="162" y="944" on="0"/>
        <pt x="96" y="1085" on="0"/>
        <pt x="96" y="1178" on="1"/>
        <pt x="96" y="1221" on="0"/>
        <pt x="121" y="1312" on="0"/>
        <pt x="169" y="1399" on="0"/>
        <pt x="238" y="1475" on="0"/>
        <pt x="326" y="1533" on="0"/>
        <pt x="432" y="1567" on="0"/>
        <pt x="492" y="1567" on="1"/>
        <pt x="564" y="1567" on="0"/>
        <pt x="683" y="1521" on="0"/>
        <pt x="788" y="1450" on="0"/>
        <pt x="884" y="1365" on="0"/>
        <pt x="980" y="1290" on="0"/>
        <pt x="1081" y="1234" on="0"/>
        <pt x="1139" y="1227" on="1"/>
        <pt x="1108" y="1280" on="0"/>
        <pt x="1108" y="1343" on="1"/>
        <pt x="1108" y="1389" on="0"/>
        <pt x="1143" y="1471" on="0"/>
        <pt x="1203" y="1532" on="0"/>
        <pt x="1284" y="1567" on="0"/>
        <pt x="1331" y="1567" on="1"/>
        <pt x="1377" y="1567" on="0"/>
        <pt x="1459" y="1532" on="0"/>
        <pt x="1520" y="1471" on="0"/>
        <pt x="1555" y="1389" on="0"/>
        <pt x="1555" y="1343" on="1"/>
        <pt x="1555" y="1272" on="0"/>
        <pt x="1488" y="1164" on="0"/>
        <pt x="1380" y="1089" on="0"/>
        <pt x="1245" y="1051" on="0"/>
        <pt x="1176" y="1051" on="1"/>
        <pt x="1122" y="1051" on="0"/>
        <pt x="1030" y="1073" on="0"/>
        <pt x="985" y="1092" on="1"/>
        <pt x="946" y="1062" on="0"/>
        <pt x="873" y="1003" on="0"/>
      </contour>
      <contour>
        <pt x="1277" y="1343" on="1"/>
        <pt x="1277" y="1320" on="0"/>
        <pt x="1308" y="1289" on="0"/>
        <pt x="1331" y="1289" on="1"/>
        <pt x="1353" y="1289" on="0"/>
        <pt x="1385" y="1320" on="0"/>
        <pt x="1385" y="1343" on="1"/>
        <pt x="1385" y="1365" on="0"/>
        <pt x="1353" y="1397" on="0"/>
        <pt x="1331" y="1397" on="1"/>
        <pt x="1308" y="1397" on="0"/>
        <pt x="1277" y="1365" on="0"/>
      </contour>
    </TTGlyph>
    <TTGlyph name="Iacute" xMin="96" yMin="-1" xMax="1555" yMax="2033">
      <contour>
        <pt x="828" y="968" on="1"/>
        <pt x="851" y="917" on="0"/>
        <pt x="913" y="824" on="0"/>
        <pt x="978" y="733" on="0"/>
        <pt x="1040" y="640" on="0"/>
        <pt x="1089" y="538" on="0"/>
        <pt x="1119" y="423" on="0"/>
        <pt x="1119" y="356" on="1"/>
        <pt x="1119" y="308" on="0"/>
        <pt x="1095" y="218" on="0"/>
        <pt x="1072" y="180" on="1"/>
        <pt x="1078" y="178" on="0"/>
        <pt x="1101" y="175" on="0"/>
        <pt x="1125" y="174" on="0"/>
        <pt x="1148" y="173" on="0"/>
        <pt x="1155" y="173" on="1"/>
        <pt x="1198" y="173" on="0"/>
        <pt x="1274" y="206" on="0"/>
        <pt x="1331" y="263" on="0"/>
        <pt x="1364" y="339" on="0"/>
        <pt x="1364" y="382" on="1"/>
        <pt x="1364" y="425" on="0"/>
        <pt x="1330" y="501" on="0"/>
        <pt x="1273" y="558" on="0"/>
        <pt x="1196" y="591" on="0"/>
        <pt x="1153" y="591" on="1"/>
        <pt x="1153" y="766" on="1"/>
        <pt x="1232" y="766" on="0"/>
        <pt x="1372" y="706" on="0"/>
        <pt x="1477" y="601" on="0"/>
        <pt x="1537" y="461" on="0"/>
        <pt x="1537" y="382" on="1"/>
        <pt x="1537" y="302" on="0"/>
        <pt x="1477" y="163" on="0"/>
        <pt x="1372" y="59" on="0"/>
        <pt x="1232" y="-1" on="0"/>
        <pt x="1153" y="-1" on="1"/>
        <pt x="1066" y="-1" on="0"/>
        <pt x="927" y="46" on="0"/>
        <pt x="809" y="116" on="0"/>
        <pt x="704" y="198" on="0"/>
        <pt x="598" y="268" on="0"/>
        <pt x="484" y="315" on="0"/>
        <pt x="415" y="315" on="1"/>
        <pt x="376" y="315" on="0"/>
        <pt x="321" y="295" on="0"/>
        <pt x="286" y="266" on="0"/>
        <pt x="271" y="235" on="0"/>
        <pt x="271" y="224" on="1"/>
        <pt x="271" y="201" on="0"/>
        <pt x="300" y="170" on="0"/>
        <pt x="323" y="170" on="1"/>
        <pt x="323" y="0" on="1"/>
        <pt x="277" y="0" on="0"/>
        <pt x="196" y="35" on="0"/>
        <pt x="136" y="96" on="0"/>
        <pt x="101" y="179" on="0"/>
        <pt x="101" y="226" on="1"/>
        <pt x="101" y="272" on="0"/>
        <pt x="138" y="366" on="0"/>
        <pt x="215" y="441" on="0"/>
        <pt x="334" y="489" on="0"/>
        <pt x="415" y="489" on="1"/>
        <pt x="503" y="489" on="0"/>
        <pt x="642" y="447" on="0"/>
        <pt x="760" y="381" on="0"/>
        <pt x="864" y="300" on="0"/>
        <pt x="917" y="261" on="1"/>
        <pt x="930" y="281" on="0"/>
        <pt x="945" y="330" on="0"/>
        <pt x="945" y="356" on="1"/>
        <pt x="945" y="427" on="0"/>
        <pt x="901" y="538" on="0"/>
        <pt x="835" y="636" on="0"/>
        <pt x="757" y="728" on="0"/>
        <pt x="691" y="834" on="0"/>
        <pt x="647" y="963" on="0"/>
        <pt x="647" y="1047" on="1"/>
        <pt x="824" y="1187" on="1"/>
        <pt x="792" y="1210" on="0"/>
        <pt x="713" y="1280" on="0"/>
        <pt x="626" y="1346" on="0"/>
        <pt x="535" y="1393" on="0"/>
        <pt x="492" y="1393" on="1"/>
        <pt x="441" y="1393" on="0"/>
        <pt x="359" y="1352" on="0"/>
        <pt x="302" y="1289" on="0"/>
        <pt x="271" y="1213" on="0"/>
        <pt x="271" y="1178" on="1"/>
        <pt x="271" y="1128" on="0"/>
        <pt x="310" y="1052" on="0"/>
        <pt x="381" y="1000" on="0"/>
        <pt x="478" y="974" on="0"/>
        <pt x="536" y="974" on="1"/>
        <pt x="536" y="800" on="1"/>
        <pt x="441" y="800" on="0"/>
        <pt x="279" y="849" on="0"/>
        <pt x="162" y="944" on="0"/>
        <pt x="96" y="1085" on="0"/>
        <pt x="96" y="1178" on="1"/>
        <pt x="96" y="1221" on="0"/>
        <pt x="121" y="1312" on="0"/>
        <pt x="169" y="1399" on="0"/>
        <pt x="238" y="1475" on="0"/>
        <pt x="326" y="1533" on="0"/>
        <pt x="432" y="1567" on="0"/>
        <pt x="492" y="1567" on="1"/>
        <pt x="564" y="1567" on="0"/>
        <pt x="683" y="1521" on="0"/>
        <pt x="788" y="1450" on="0"/>
        <pt x="884" y="1365" on="0"/>
        <pt x="980" y="1290" on="0"/>
        <pt x="1081" y="1234" on="0"/>
        <pt x="1139" y="1227" on="1"/>
        <pt x="1108" y="1280" on="0"/>
        <pt x="1108" y="1343" on="1"/>
        <pt x="1108" y="1389" on="0"/>
        <pt x="1143" y="1471" on="0"/>
        <pt x="1203" y="1532" on="0"/>
        <pt x="1284" y="1567" on="0"/>
        <pt x="1331" y="1567" on="1"/>
        <pt x="1377" y="1567" on="0"/>
        <pt x="1459" y="1532" on="0"/>
        <pt x="1520" y="1471" on="0"/>
        <pt x="1555" y="1389" on="0"/>
        <pt x="1555" y="1343" on="1"/>
        <pt x="1555" y="1272" on="0"/>
        <pt x="1488" y="1164" on="0"/>
        <pt x="1380" y="1089" on="0"/>
        <pt x="1245" y="1051" on="0"/>
        <pt x="1176" y="1051" on="1"/>
        <pt x="1122" y="1051" on="0"/>
        <pt x="1030" y="1073" on="0"/>
        <pt x="985" y="1092" on="1"/>
        <pt x="946" y="1062" on="0"/>
        <pt x="873" y="1003" on="0"/>
      </contour>
      <contour>
        <pt x="1277" y="1343" on="1"/>
        <pt x="1277" y="1320" on="0"/>
        <pt x="1308" y="1289" on="0"/>
        <pt x="1331" y="1289" on="1"/>
        <pt x="1353" y="1289" on="0"/>
        <pt x="1385" y="1320" on="0"/>
        <pt x="1385" y="1343" on="1"/>
        <pt x="1385" y="1365" on="0"/>
        <pt x="1353" y="1397" on="0"/>
        <pt x="1331" y="1397" on="1"/>
        <pt x="1308" y="1397" on="0"/>
        <pt x="1277" y="1365" on="0"/>
      </contour>
      <contour>
        <pt x="1060" y="1637" on="1"/>
        <pt x="970" y="1779" on="1"/>
        <pt x="1319" y="2033" on="1"/>
        <pt x="1435" y="1875" on="1"/>
      </contour>
    </TTGlyph>
    <TTGlyph name="Icircumflex" xMin="96" yMin="-1" xMax="1555" yMax="2035">
      <contour>
        <pt x="828" y="968" on="1"/>
        <pt x="851" y="917" on="0"/>
        <pt x="913" y="824" on="0"/>
        <pt x="978" y="733" on="0"/>
        <pt x="1040" y="640" on="0"/>
        <pt x="1089" y="538" on="0"/>
        <pt x="1119" y="423" on="0"/>
        <pt x="1119" y="356" on="1"/>
        <pt x="1119" y="308" on="0"/>
        <pt x="1095" y="218" on="0"/>
        <pt x="1072" y="180" on="1"/>
        <pt x="1078" y="178" on="0"/>
        <pt x="1101" y="175" on="0"/>
        <pt x="1125" y="174" on="0"/>
        <pt x="1148" y="173" on="0"/>
        <pt x="1155" y="173" on="1"/>
        <pt x="1198" y="173" on="0"/>
        <pt x="1274" y="206" on="0"/>
        <pt x="1331" y="263" on="0"/>
        <pt x="1364" y="339" on="0"/>
        <pt x="1364" y="382" on="1"/>
        <pt x="1364" y="425" on="0"/>
        <pt x="1330" y="501" on="0"/>
        <pt x="1273" y="558" on="0"/>
        <pt x="1196" y="591" on="0"/>
        <pt x="1153" y="591" on="1"/>
        <pt x="1153" y="766" on="1"/>
        <pt x="1232" y="766" on="0"/>
        <pt x="1372" y="706" on="0"/>
        <pt x="1477" y="601" on="0"/>
        <pt x="1537" y="461" on="0"/>
        <pt x="1537" y="382" on="1"/>
        <pt x="1537" y="302" on="0"/>
        <pt x="1477" y="163" on="0"/>
        <pt x="1372" y="59" on="0"/>
        <pt x="1232" y="-1" on="0"/>
        <pt x="1153" y="-1" on="1"/>
        <pt x="1066" y="-1" on="0"/>
        <pt x="927" y="46" on="0"/>
        <pt x="809" y="116" on="0"/>
        <pt x="704" y="198" on="0"/>
        <pt x="598" y="268" on="0"/>
        <pt x="484" y="315" on="0"/>
        <pt x="415" y="315" on="1"/>
        <pt x="376" y="315" on="0"/>
        <pt x="321" y="295" on="0"/>
        <pt x="286" y="266" on="0"/>
        <pt x="271" y="235" on="0"/>
        <pt x="271" y="224" on="1"/>
        <pt x="271" y="201" on="0"/>
        <pt x="300" y="170" on="0"/>
        <pt x="323" y="170" on="1"/>
        <pt x="323" y="0" on="1"/>
        <pt x="277" y="0" on="0"/>
        <pt x="196" y="35" on="0"/>
        <pt x="136" y="96" on="0"/>
        <pt x="101" y="179" on="0"/>
        <pt x="101" y="226" on="1"/>
        <pt x="101" y="272" on="0"/>
        <pt x="138" y="366" on="0"/>
        <pt x="215" y="441" on="0"/>
        <pt x="334" y="489" on="0"/>
        <pt x="415" y="489" on="1"/>
        <pt x="503" y="489" on="0"/>
        <pt x="642" y="447" on="0"/>
        <pt x="760" y="381" on="0"/>
        <pt x="864" y="300" on="0"/>
        <pt x="917" y="261" on="1"/>
        <pt x="930" y="281" on="0"/>
        <pt x="945" y="330" on="0"/>
        <pt x="945" y="356" on="1"/>
        <pt x="945" y="427" on="0"/>
        <pt x="901" y="538" on="0"/>
        <pt x="835" y="636" on="0"/>
        <pt x="757" y="728" on="0"/>
        <pt x="691" y="834" on="0"/>
        <pt x="647" y="963" on="0"/>
        <pt x="647" y="1047" on="1"/>
        <pt x="824" y="1187" on="1"/>
        <pt x="792" y="1210" on="0"/>
        <pt x="713" y="1280" on="0"/>
        <pt x="626" y="1346" on="0"/>
        <pt x="535" y="1393" on="0"/>
        <pt x="492" y="1393" on="1"/>
        <pt x="441" y="1393" on="0"/>
        <pt x="359" y="1352" on="0"/>
        <pt x="302" y="1289" on="0"/>
        <pt x="271" y="1213" on="0"/>
        <pt x="271" y="1178" on="1"/>
        <pt x="271" y="1128" on="0"/>
        <pt x="310" y="1052" on="0"/>
        <pt x="381" y="1000" on="0"/>
        <pt x="478" y="974" on="0"/>
        <pt x="536" y="974" on="1"/>
        <pt x="536" y="800" on="1"/>
        <pt x="441" y="800" on="0"/>
        <pt x="279" y="849" on="0"/>
        <pt x="162" y="944" on="0"/>
        <pt x="96" y="1085" on="0"/>
        <pt x="96" y="1178" on="1"/>
        <pt x="96" y="1221" on="0"/>
        <pt x="121" y="1312" on="0"/>
        <pt x="169" y="1399" on="0"/>
        <pt x="238" y="1475" on="0"/>
        <pt x="326" y="1533" on="0"/>
        <pt x="432" y="1567" on="0"/>
        <pt x="492" y="1567" on="1"/>
        <pt x="564" y="1567" on="0"/>
        <pt x="683" y="1521" on="0"/>
        <pt x="788" y="1450" on="0"/>
        <pt x="884" y="1365" on="0"/>
        <pt x="980" y="1290" on="0"/>
        <pt x="1081" y="1234" on="0"/>
        <pt x="1139" y="1227" on="1"/>
        <pt x="1108" y="1280" on="0"/>
        <pt x="1108" y="1343" on="1"/>
        <pt x="1108" y="1389" on="0"/>
        <pt x="1143" y="1471" on="0"/>
        <pt x="1203" y="1532" on="0"/>
        <pt x="1284" y="1567" on="0"/>
        <pt x="1331" y="1567" on="1"/>
        <pt x="1377" y="1567" on="0"/>
        <pt x="1459" y="1532" on="0"/>
        <pt x="1520" y="1471" on="0"/>
        <pt x="1555" y="1389" on="0"/>
        <pt x="1555" y="1343" on="1"/>
        <pt x="1555" y="1272" on="0"/>
        <pt x="1488" y="1164" on="0"/>
        <pt x="1380" y="1089" on="0"/>
        <pt x="1245" y="1051" on="0"/>
        <pt x="1176" y="1051" on="1"/>
        <pt x="1122" y="1051" on="0"/>
        <pt x="1030" y="1073" on="0"/>
        <pt x="985" y="1092" on="1"/>
        <pt x="946" y="1062" on="0"/>
        <pt x="873" y="1003" on="0"/>
      </contour>
      <contour>
        <pt x="1277" y="1343" on="1"/>
        <pt x="1277" y="1320" on="0"/>
        <pt x="1308" y="1289" on="0"/>
        <pt x="1331" y="1289" on="1"/>
        <pt x="1353" y="1289" on="0"/>
        <pt x="1385" y="1320" on="0"/>
        <pt x="1385" y="1343" on="1"/>
        <pt x="1385" y="1365" on="0"/>
        <pt x="1353" y="1397" on="0"/>
        <pt x="1331" y="1397" on="1"/>
        <pt x="1308" y="1397" on="0"/>
        <pt x="1277" y="1365" on="0"/>
      </contour>
      <contour>
        <pt x="584" y="1783" on="1"/>
        <pt x="945" y="2035" on="1"/>
        <pt x="1293" y="1783" on="1"/>
        <pt x="1190" y="1647" on="1"/>
        <pt x="945" y="1828" on="1"/>
        <pt x="916" y="1805" on="0"/>
        <pt x="829" y="1744" on="0"/>
        <pt x="787" y="1715" on="1"/>
        <pt x="739" y="1682" on="0"/>
        <pt x="687" y="1647" on="1"/>
      </contour>
    </TTGlyph>
    <TTGlyph name="Idieresis" xMin="96" yMin="-1" xMax="1555" yMax="2030">
      <contour>
        <pt x="828" y="968" on="1"/>
        <pt x="851" y="917" on="0"/>
        <pt x="913" y="824" on="0"/>
        <pt x="978" y="733" on="0"/>
        <pt x="1040" y="640" on="0"/>
        <pt x="1089" y="538" on="0"/>
        <pt x="1119" y="423" on="0"/>
        <pt x="1119" y="356" on="1"/>
        <pt x="1119" y="308" on="0"/>
        <pt x="1095" y="218" on="0"/>
        <pt x="1072" y="180" on="1"/>
        <pt x="1078" y="178" on="0"/>
        <pt x="1101" y="175" on="0"/>
        <pt x="1125" y="174" on="0"/>
        <pt x="1148" y="173" on="0"/>
        <pt x="1155" y="173" on="1"/>
        <pt x="1198" y="173" on="0"/>
        <pt x="1274" y="206" on="0"/>
        <pt x="1331" y="263" on="0"/>
        <pt x="1364" y="339" on="0"/>
        <pt x="1364" y="382" on="1"/>
        <pt x="1364" y="425" on="0"/>
        <pt x="1330" y="501" on="0"/>
        <pt x="1273" y="558" on="0"/>
        <pt x="1196" y="591" on="0"/>
        <pt x="1153" y="591" on="1"/>
        <pt x="1153" y="766" on="1"/>
        <pt x="1232" y="766" on="0"/>
        <pt x="1372" y="706" on="0"/>
        <pt x="1477" y="601" on="0"/>
        <pt x="1537" y="461" on="0"/>
        <pt x="1537" y="382" on="1"/>
        <pt x="1537" y="302" on="0"/>
        <pt x="1477" y="163" on="0"/>
        <pt x="1372" y="59" on="0"/>
        <pt x="1232" y="-1" on="0"/>
        <pt x="1153" y="-1" on="1"/>
        <pt x="1066" y="-1" on="0"/>
        <pt x="927" y="46" on="0"/>
        <pt x="809" y="116" on="0"/>
        <pt x="704" y="198" on="0"/>
        <pt x="598" y="268" on="0"/>
        <pt x="484" y="315" on="0"/>
        <pt x="415" y="315" on="1"/>
        <pt x="376" y="315" on="0"/>
        <pt x="321" y="295" on="0"/>
        <pt x="286" y="266" on="0"/>
        <pt x="271" y="235" on="0"/>
        <pt x="271" y="224" on="1"/>
        <pt x="271" y="201" on="0"/>
        <pt x="300" y="170" on="0"/>
        <pt x="323" y="170" on="1"/>
        <pt x="323" y="0" on="1"/>
        <pt x="277" y="0" on="0"/>
        <pt x="196" y="35" on="0"/>
        <pt x="136" y="96" on="0"/>
        <pt x="101" y="179" on="0"/>
        <pt x="101" y="226" on="1"/>
        <pt x="101" y="272" on="0"/>
        <pt x="138" y="366" on="0"/>
        <pt x="215" y="441" on="0"/>
        <pt x="334" y="489" on="0"/>
        <pt x="415" y="489" on="1"/>
        <pt x="503" y="489" on="0"/>
        <pt x="642" y="447" on="0"/>
        <pt x="760" y="381" on="0"/>
        <pt x="864" y="300" on="0"/>
        <pt x="917" y="261" on="1"/>
        <pt x="930" y="281" on="0"/>
        <pt x="945" y="330" on="0"/>
        <pt x="945" y="356" on="1"/>
        <pt x="945" y="427" on="0"/>
        <pt x="901" y="538" on="0"/>
        <pt x="835" y="636" on="0"/>
        <pt x="757" y="728" on="0"/>
        <pt x="691" y="834" on="0"/>
        <pt x="647" y="963" on="0"/>
        <pt x="647" y="1047" on="1"/>
        <pt x="824" y="1187" on="1"/>
        <pt x="792" y="1210" on="0"/>
        <pt x="713" y="1280" on="0"/>
        <pt x="626" y="1346" on="0"/>
        <pt x="535" y="1393" on="0"/>
        <pt x="492" y="1393" on="1"/>
        <pt x="441" y="1393" on="0"/>
        <pt x="359" y="1352" on="0"/>
        <pt x="302" y="1289" on="0"/>
        <pt x="271" y="1213" on="0"/>
        <pt x="271" y="1178" on="1"/>
        <pt x="271" y="1128" on="0"/>
        <pt x="310" y="1052" on="0"/>
        <pt x="381" y="1000" on="0"/>
        <pt x="478" y="974" on="0"/>
        <pt x="536" y="974" on="1"/>
        <pt x="536" y="800" on="1"/>
        <pt x="441" y="800" on="0"/>
        <pt x="279" y="849" on="0"/>
        <pt x="162" y="944" on="0"/>
        <pt x="96" y="1085" on="0"/>
        <pt x="96" y="1178" on="1"/>
        <pt x="96" y="1221" on="0"/>
        <pt x="121" y="1312" on="0"/>
        <pt x="169" y="1399" on="0"/>
        <pt x="238" y="1475" on="0"/>
        <pt x="326" y="1533" on="0"/>
        <pt x="432" y="1567" on="0"/>
        <pt x="492" y="1567" on="1"/>
        <pt x="564" y="1567" on="0"/>
        <pt x="683" y="1521" on="0"/>
        <pt x="788" y="1450" on="0"/>
        <pt x="884" y="1365" on="0"/>
        <pt x="980" y="1290" on="0"/>
        <pt x="1081" y="1234" on="0"/>
        <pt x="1139" y="1227" on="1"/>
        <pt x="1108" y="1280" on="0"/>
        <pt x="1108" y="1343" on="1"/>
        <pt x="1108" y="1389" on="0"/>
        <pt x="1143" y="1471" on="0"/>
        <pt x="1203" y="1532" on="0"/>
        <pt x="1284" y="1567" on="0"/>
        <pt x="1331" y="1567" on="1"/>
        <pt x="1377" y="1567" on="0"/>
        <pt x="1459" y="1532" on="0"/>
        <pt x="1520" y="1471" on="0"/>
        <pt x="1555" y="1389" on="0"/>
        <pt x="1555" y="1343" on="1"/>
        <pt x="1555" y="1272" on="0"/>
        <pt x="1488" y="1164" on="0"/>
        <pt x="1380" y="1089" on="0"/>
        <pt x="1245" y="1051" on="0"/>
        <pt x="1176" y="1051" on="1"/>
        <pt x="1122" y="1051" on="0"/>
        <pt x="1030" y="1073" on="0"/>
        <pt x="985" y="1092" on="1"/>
        <pt x="946" y="1062" on="0"/>
        <pt x="873" y="1003" on="0"/>
      </contour>
      <contour>
        <pt x="1277" y="1343" on="1"/>
        <pt x="1277" y="1320" on="0"/>
        <pt x="1308" y="1289" on="0"/>
        <pt x="1331" y="1289" on="1"/>
        <pt x="1353" y="1289" on="0"/>
        <pt x="1385" y="1320" on="0"/>
        <pt x="1385" y="1343" on="1"/>
        <pt x="1385" y="1365" on="0"/>
        <pt x="1353" y="1397" on="0"/>
        <pt x="1331" y="1397" on="1"/>
        <pt x="1308" y="1397" on="0"/>
        <pt x="1277" y="1365" on="0"/>
      </contour>
      <contour>
        <pt x="1180" y="1695" on="1"/>
        <pt x="1022" y="1748" on="1"/>
        <pt x="1140" y="2030" on="1"/>
        <pt x="1317" y="1959" on="1"/>
      </contour>
      <contour>
        <pt x="875" y="1695" on="1"/>
        <pt x="717" y="1748" on="1"/>
        <pt x="836" y="2030" on="1"/>
        <pt x="1013" y="1959" on="1"/>
      </contour>
    </TTGlyph>
    <TTGlyph name="Igrave" xMin="96" yMin="-1" xMax="1555" yMax="2033">
      <contour>
        <pt x="828" y="968" on="1"/>
        <pt x="851" y="917" on="0"/>
        <pt x="913" y="824" on="0"/>
        <pt x="978" y="733" on="0"/>
        <pt x="1040" y="640" on="0"/>
        <pt x="1089" y="538" on="0"/>
        <pt x="1119" y="423" on="0"/>
        <pt x="1119" y="356" on="1"/>
        <pt x="1119" y="308" on="0"/>
        <pt x="1095" y="218" on="0"/>
        <pt x="1072" y="180" on="1"/>
        <pt x="1078" y="178" on="0"/>
        <pt x="1101" y="175" on="0"/>
        <pt x="1125" y="174" on="0"/>
        <pt x="1148" y="173" on="0"/>
        <pt x="1155" y="173" on="1"/>
        <pt x="1198" y="173" on="0"/>
        <pt x="1274" y="206" on="0"/>
        <pt x="1331" y="263" on="0"/>
        <pt x="1364" y="339" on="0"/>
        <pt x="1364" y="382" on="1"/>
        <pt x="1364" y="425" on="0"/>
        <pt x="1330" y="501" on="0"/>
        <pt x="1273" y="558" on="0"/>
        <pt x="1196" y="591" on="0"/>
        <pt x="1153" y="591" on="1"/>
        <pt x="1153" y="766" on="1"/>
        <pt x="1232" y="766" on="0"/>
        <pt x="1372" y="706" on="0"/>
        <pt x="1477" y="601" on="0"/>
        <pt x="1537" y="461" on="0"/>
        <pt x="1537" y="382" on="1"/>
        <pt x="1537" y="302" on="0"/>
        <pt x="1477" y="163" on="0"/>
        <pt x="1372" y="59" on="0"/>
        <pt x="1232" y="-1" on="0"/>
        <pt x="1153" y="-1" on="1"/>
        <pt x="1066" y="-1" on="0"/>
        <pt x="927" y="46" on="0"/>
        <pt x="809" y="116" on="0"/>
        <pt x="704" y="198" on="0"/>
        <pt x="598" y="268" on="0"/>
        <pt x="484" y="315" on="0"/>
        <pt x="415" y="315" on="1"/>
        <pt x="376" y="315" on="0"/>
        <pt x="321" y="295" on="0"/>
        <pt x="286" y="266" on="0"/>
        <pt x="271" y="235" on="0"/>
        <pt x="271" y="224" on="1"/>
        <pt x="271" y="201" on="0"/>
        <pt x="300" y="170" on="0"/>
        <pt x="323" y="170" on="1"/>
        <pt x="323" y="0" on="1"/>
        <pt x="277" y="0" on="0"/>
        <pt x="196" y="35" on="0"/>
        <pt x="136" y="96" on="0"/>
        <pt x="101" y="179" on="0"/>
        <pt x="101" y="226" on="1"/>
        <pt x="101" y="272" on="0"/>
        <pt x="138" y="366" on="0"/>
        <pt x="215" y="441" on="0"/>
        <pt x="334" y="489" on="0"/>
        <pt x="415" y="489" on="1"/>
        <pt x="503" y="489" on="0"/>
        <pt x="642" y="447" on="0"/>
        <pt x="760" y="381" on="0"/>
        <pt x="864" y="300" on="0"/>
        <pt x="917" y="261" on="1"/>
        <pt x="930" y="281" on="0"/>
        <pt x="945" y="330" on="0"/>
        <pt x="945" y="356" on="1"/>
        <pt x="945" y="427" on="0"/>
        <pt x="901" y="538" on="0"/>
        <pt x="835" y="636" on="0"/>
        <pt x="757" y="728" on="0"/>
        <pt x="691" y="834" on="0"/>
        <pt x="647" y="963" on="0"/>
        <pt x="647" y="1047" on="1"/>
        <pt x="824" y="1187" on="1"/>
        <pt x="792" y="1210" on="0"/>
        <pt x="713" y="1280" on="0"/>
        <pt x="626" y="1346" on="0"/>
        <pt x="535" y="1393" on="0"/>
        <pt x="492" y="1393" on="1"/>
        <pt x="441" y="1393" on="0"/>
        <pt x="359" y="1352" on="0"/>
        <pt x="302" y="1289" on="0"/>
        <pt x="271" y="1213" on="0"/>
        <pt x="271" y="1178" on="1"/>
        <pt x="271" y="1128" on="0"/>
        <pt x="310" y="1052" on="0"/>
        <pt x="381" y="1000" on="0"/>
        <pt x="478" y="974" on="0"/>
        <pt x="536" y="974" on="1"/>
        <pt x="536" y="800" on="1"/>
        <pt x="441" y="800" on="0"/>
        <pt x="279" y="849" on="0"/>
        <pt x="162" y="944" on="0"/>
        <pt x="96" y="1085" on="0"/>
        <pt x="96" y="1178" on="1"/>
        <pt x="96" y="1221" on="0"/>
        <pt x="121" y="1312" on="0"/>
        <pt x="169" y="1399" on="0"/>
        <pt x="238" y="1475" on="0"/>
        <pt x="326" y="1533" on="0"/>
        <pt x="432" y="1567" on="0"/>
        <pt x="492" y="1567" on="1"/>
        <pt x="564" y="1567" on="0"/>
        <pt x="683" y="1521" on="0"/>
        <pt x="788" y="1450" on="0"/>
        <pt x="884" y="1365" on="0"/>
        <pt x="980" y="1290" on="0"/>
        <pt x="1081" y="1234" on="0"/>
        <pt x="1139" y="1227" on="1"/>
        <pt x="1108" y="1280" on="0"/>
        <pt x="1108" y="1343" on="1"/>
        <pt x="1108" y="1389" on="0"/>
        <pt x="1143" y="1471" on="0"/>
        <pt x="1203" y="1532" on="0"/>
        <pt x="1284" y="1567" on="0"/>
        <pt x="1331" y="1567" on="1"/>
        <pt x="1377" y="1567" on="0"/>
        <pt x="1459" y="1532" on="0"/>
        <pt x="1520" y="1471" on="0"/>
        <pt x="1555" y="1389" on="0"/>
        <pt x="1555" y="1343" on="1"/>
        <pt x="1555" y="1272" on="0"/>
        <pt x="1488" y="1164" on="0"/>
        <pt x="1380" y="1089" on="0"/>
        <pt x="1245" y="1051" on="0"/>
        <pt x="1176" y="1051" on="1"/>
        <pt x="1122" y="1051" on="0"/>
        <pt x="1030" y="1073" on="0"/>
        <pt x="985" y="1092" on="1"/>
        <pt x="946" y="1062" on="0"/>
        <pt x="873" y="1003" on="0"/>
      </contour>
      <contour>
        <pt x="1277" y="1343" on="1"/>
        <pt x="1277" y="1320" on="0"/>
        <pt x="1308" y="1289" on="0"/>
        <pt x="1331" y="1289" on="1"/>
        <pt x="1353" y="1289" on="0"/>
        <pt x="1385" y="1320" on="0"/>
        <pt x="1385" y="1343" on="1"/>
        <pt x="1385" y="1365" on="0"/>
        <pt x="1353" y="1397" on="0"/>
        <pt x="1331" y="1397" on="1"/>
        <pt x="1308" y="1397" on="0"/>
        <pt x="1277" y="1365" on="0"/>
      </contour>
      <contour>
        <pt x="547" y="1875" on="1"/>
        <pt x="663" y="2033" on="1"/>
        <pt x="1011" y="1779" on="1"/>
        <pt x="920" y="1636" on="1"/>
      </contour>
    </TTGlyph>
    <TTGlyph name="J" xMin="24" yMin="-255" xMax="1684" yMax="1567">
      <contour>
        <pt x="24" y="244" on="1"/>
        <pt x="27" y="287" on="0"/>
        <pt x="66" y="366" on="0"/>
        <pt x="136" y="426" on="0"/>
        <pt x="235" y="462" on="0"/>
        <pt x="300" y="462" on="1"/>
        <pt x="374" y="462" on="0"/>
        <pt x="485" y="415" on="0"/>
        <pt x="570" y="339" on="0"/>
        <pt x="636" y="241" on="0"/>
        <pt x="696" y="140" on="0"/>
        <pt x="755" y="42" on="0"/>
        <pt x="825" y="-34" on="0"/>
        <pt x="914" y="-81" on="0"/>
        <pt x="973" y="-81" on="1"/>
        <pt x="1020" y="-81" on="0"/>
        <pt x="1093" y="-52" on="0"/>
        <pt x="1144" y="-3" on="0"/>
        <pt x="1170" y="60" on="0"/>
        <pt x="1170" y="94" on="1"/>
        <pt x="1170" y="150" on="0"/>
        <pt x="1136" y="252" on="0"/>
        <pt x="1081" y="349" on="0"/>
        <pt x="1011" y="441" on="0"/>
        <pt x="974" y="487" on="1"/>
        <pt x="933" y="538" on="0"/>
        <pt x="854" y="643" on="0"/>
        <pt x="792" y="755" on="0"/>
        <pt x="755" y="879" on="0"/>
        <pt x="755" y="950" on="1"/>
        <pt x="755" y="1039" on="0"/>
        <pt x="835" y="1181" on="0"/>
        <pt x="907" y="1223" on="1"/>
        <pt x="876" y="1249" on="0"/>
        <pt x="806" y="1308" on="0"/>
        <pt x="732" y="1359" on="0"/>
        <pt x="657" y="1393" on="0"/>
        <pt x="621" y="1393" on="1"/>
        <pt x="570" y="1393" on="0"/>
        <pt x="488" y="1352" on="0"/>
        <pt x="431" y="1289" on="0"/>
        <pt x="400" y="1213" on="0"/>
        <pt x="400" y="1178" on="1"/>
        <pt x="400" y="1128" on="0"/>
        <pt x="439" y="1052" on="0"/>
        <pt x="510" y="1000" on="0"/>
        <pt x="607" y="974" on="0"/>
        <pt x="665" y="974" on="1"/>
        <pt x="665" y="800" on="1"/>
        <pt x="570" y="800" on="0"/>
        <pt x="408" y="849" on="0"/>
        <pt x="291" y="944" on="0"/>
        <pt x="225" y="1085" on="0"/>
        <pt x="225" y="1178" on="1"/>
        <pt x="225" y="1221" on="0"/>
        <pt x="250" y="1312" on="0"/>
        <pt x="298" y="1399" on="0"/>
        <pt x="367" y="1475" on="0"/>
        <pt x="455" y="1533" on="0"/>
        <pt x="561" y="1567" on="0"/>
        <pt x="621" y="1567" on="1"/>
        <pt x="693" y="1567" on="0"/>
        <pt x="812" y="1521" on="0"/>
        <pt x="917" y="1450" on="0"/>
        <pt x="1013" y="1365" on="0"/>
        <pt x="1109" y="1290" on="0"/>
        <pt x="1210" y="1234" on="0"/>
        <pt x="1268" y="1227" on="1"/>
        <pt x="1237" y="1280" on="0"/>
        <pt x="1237" y="1343" on="1"/>
        <pt x="1237" y="1389" on="0"/>
        <pt x="1272" y="1471" on="0"/>
        <pt x="1332" y="1532" on="0"/>
        <pt x="1413" y="1567" on="0"/>
        <pt x="1460" y="1567" on="1"/>
        <pt x="1506" y="1567" on="0"/>
        <pt x="1588" y="1532" on="0"/>
        <pt x="1649" y="1471" on="0"/>
        <pt x="1684" y="1389" on="0"/>
        <pt x="1684" y="1343" on="1"/>
        <pt x="1684" y="1281" on="0"/>
        <pt x="1631" y="1181" on="0"/>
        <pt x="1544" y="1109" on="0"/>
        <pt x="1431" y="1063" on="0"/>
        <pt x="1371" y="1055" on="1"/>
        <pt x="1375" y="1042" on="1"/>
        <pt x="1389" y="997" on="0"/>
        <pt x="1389" y="950" on="1"/>
        <pt x="1389" y="881" on="0"/>
        <pt x="1311" y="740" on="0"/>
        <pt x="1243" y="676" on="1"/>
        <pt x="1125" y="802" on="1"/>
        <pt x="1167" y="842" on="0"/>
        <pt x="1215" y="918" on="0"/>
        <pt x="1215" y="950" on="1"/>
        <pt x="1215" y="980" on="0"/>
        <pt x="1192" y="1032" on="0"/>
        <pt x="1153" y="1071" on="0"/>
        <pt x="1101" y="1093" on="0"/>
        <pt x="1071" y="1093" on="1"/>
        <pt x="1041" y="1093" on="0"/>
        <pt x="990" y="1071" on="0"/>
        <pt x="951" y="1032" on="0"/>
        <pt x="929" y="980" on="0"/>
        <pt x="929" y="950" on="1"/>
        <pt x="929" y="902" on="0"/>
        <pt x="960" y="811" on="0"/>
        <pt x="1012" y="722" on="0"/>
        <pt x="1078" y="636" on="0"/>
        <pt x="1113" y="592" on="1"/>
        <pt x="1112" y="592" on="1"/>
        <pt x="1155" y="539" on="0"/>
        <pt x="1238" y="429" on="0"/>
        <pt x="1304" y="308" on="0"/>
        <pt x="1345" y="172" on="0"/>
        <pt x="1345" y="94" on="1"/>
        <pt x="1345" y="25" on="0"/>
        <pt x="1296" y="-101" on="0"/>
        <pt x="1200" y="-197" on="0"/>
        <pt x="1060" y="-255" on="0"/>
        <pt x="970" y="-255" on="1"/>
        <pt x="893" y="-255" on="0"/>
        <pt x="774" y="-212" on="0"/>
        <pt x="680" y="-140" on="0"/>
        <pt x="609" y="-47" on="0"/>
        <pt x="549" y="52" on="0"/>
        <pt x="496" y="151" on="0"/>
        <pt x="469" y="192" on="1"/>
        <pt x="463" y="151" on="0"/>
        <pt x="424" y="80" on="0"/>
        <pt x="365" y="29" on="0"/>
        <pt x="289" y="0" on="0"/>
        <pt x="246" y="0" on="1"/>
        <pt x="200" y="0" on="0"/>
        <pt x="119" y="35" on="0"/>
        <pt x="59" y="96" on="0"/>
        <pt x="24" y="179" on="0"/>
        <pt x="24" y="226" on="1"/>
      </contour>
      <contour>
        <pt x="194" y="224" on="1"/>
        <pt x="194" y="201" on="0"/>
        <pt x="225" y="170" on="0"/>
        <pt x="248" y="170" on="1"/>
        <pt x="270" y="170" on="0"/>
        <pt x="302" y="201" on="0"/>
        <pt x="302" y="224" on="1"/>
        <pt x="302" y="246" on="0"/>
        <pt x="270" y="278" on="0"/>
        <pt x="248" y="278" on="1"/>
        <pt x="225" y="278" on="0"/>
        <pt x="194" y="246" on="0"/>
      </contour>
      <contour>
        <pt x="1406" y="1343" on="1"/>
        <pt x="1406" y="1320" on="0"/>
        <pt x="1437" y="1289" on="0"/>
        <pt x="1460" y="1289" on="1"/>
        <pt x="1482" y="1289" on="0"/>
        <pt x="1514" y="1320" on="0"/>
        <pt x="1514" y="1343" on="1"/>
        <pt x="1514" y="1365" on="0"/>
        <pt x="1482" y="1397" on="0"/>
        <pt x="1460" y="1397" on="1"/>
        <pt x="1437" y="1397" on="0"/>
        <pt x="1406" y="1365" on="0"/>
      </contour>
    </TTGlyph>
    <TTGlyph name="K" xMin="34" yMin="-44" xMax="1393" yMax="1567">
      <contour>
        <pt x="310" y="356" on="1"/>
        <pt x="310" y="397" on="0"/>
        <pt x="288" y="456" on="0"/>
        <pt x="274" y="456" on="1"/>
        <pt x="251" y="456" on="0"/>
        <pt x="209" y="414" on="0"/>
        <pt x="209" y="369" on="1"/>
        <pt x="209" y="319" on="0"/>
        <pt x="247" y="246" on="0"/>
        <pt x="304" y="198" on="0"/>
        <pt x="372" y="174" on="0"/>
        <pt x="402" y="174" on="1"/>
        <pt x="455" y="174" on="0"/>
        <pt x="540" y="210" on="0"/>
        <pt x="599" y="275" on="0"/>
        <pt x="631" y="365" on="0"/>
        <pt x="631" y="420" on="1"/>
        <pt x="631" y="462" on="0"/>
        <pt x="606" y="541" on="0"/>
        <pt x="565" y="618" on="0"/>
        <pt x="512" y="693" on="0"/>
        <pt x="485" y="731" on="1"/>
        <pt x="486" y="731" on="1"/>
        <pt x="451" y="778" on="0"/>
        <pt x="384" y="875" on="0"/>
        <pt x="332" y="982" on="0"/>
        <pt x="299" y="1101" on="0"/>
        <pt x="299" y="1170" on="1"/>
        <pt x="299" y="1273" on="0"/>
        <pt x="360" y="1422" on="0"/>
        <pt x="469" y="1520" on="0"/>
        <pt x="619" y="1567" on="0"/>
        <pt x="708" y="1567" on="1"/>
        <pt x="778" y="1567" on="0"/>
        <pt x="905" y="1525" on="0"/>
        <pt x="999" y="1447" on="0"/>
        <pt x="1055" y="1333" on="0"/>
        <pt x="1055" y="1261" on="1"/>
        <pt x="1055" y="1223" on="0"/>
        <pt x="1033" y="1149" on="0"/>
        <pt x="1015" y="1115" on="1"/>
        <pt x="1075" y="1163" on="1"/>
        <pt x="1092" y="1177" on="0"/>
        <pt x="1128" y="1232" on="0"/>
        <pt x="1128" y="1267" on="1"/>
        <pt x="1128" y="1281" on="0"/>
        <pt x="1109" y="1341" on="0"/>
        <pt x="1088" y="1390" on="1"/>
        <pt x="1249" y="1456" on="1"/>
        <pt x="1277" y="1392" on="0"/>
        <pt x="1303" y="1299" on="0"/>
        <pt x="1303" y="1267" on="1"/>
        <pt x="1303" y="1225" on="0"/>
        <pt x="1280" y="1151" on="0"/>
        <pt x="1245" y="1089" on="0"/>
        <pt x="1203" y="1041" on="0"/>
        <pt x="1184" y="1025" on="1"/>
        <pt x="1167" y="1011" on="0"/>
        <pt x="1128" y="981" on="0"/>
        <pt x="1108" y="966" on="1"/>
        <pt x="1139" y="920" on="0"/>
        <pt x="1150" y="849" on="1"/>
        <pt x="1235" y="294" on="1"/>
        <pt x="1243" y="240" on="0"/>
        <pt x="1317" y="150" on="0"/>
        <pt x="1393" y="114" on="1"/>
        <pt x="1318" y="-44" on="1"/>
        <pt x="1259" y="-17" on="0"/>
        <pt x="1170" y="53" on="0"/>
        <pt x="1107" y="134" on="0"/>
        <pt x="1070" y="222" on="0"/>
        <pt x="1062" y="268" on="1"/>
        <pt x="978" y="823" on="1"/>
        <pt x="976" y="837" on="0"/>
        <pt x="972" y="853" on="0"/>
        <pt x="971" y="856" on="1"/>
        <pt x="737" y="670" on="1"/>
        <pt x="767" y="616" on="0"/>
        <pt x="805" y="495" on="0"/>
        <pt x="805" y="422" on="1"/>
        <pt x="805" y="327" on="0"/>
        <pt x="752" y="172" on="0"/>
        <pt x="650" y="61" on="0"/>
        <pt x="499" y="0" on="0"/>
        <pt x="401" y="0" on="1"/>
        <pt x="342" y="0" on="0"/>
        <pt x="212" y="44" on="0"/>
        <pt x="104" y="134" on="0"/>
        <pt x="34" y="273" on="0"/>
        <pt x="34" y="369" on="1"/>
        <pt x="34" y="436" on="0"/>
        <pt x="79" y="535" on="0"/>
        <pt x="149" y="599" on="0"/>
        <pt x="234" y="631" on="0"/>
        <pt x="274" y="631" on="1"/>
        <pt x="317" y="631" on="0"/>
        <pt x="394" y="588" on="0"/>
        <pt x="451" y="513" on="0"/>
        <pt x="484" y="413" on="0"/>
        <pt x="484" y="356" on="1"/>
      </contour>
      <contour>
        <pt x="638" y="815" on="1"/>
        <pt x="777" y="925" on="1"/>
        <pt x="700" y="1025" on="1"/>
        <pt x="727" y="1047" on="0"/>
        <pt x="790" y="1100" on="0"/>
        <pt x="845" y="1160" on="0"/>
        <pt x="881" y="1227" on="0"/>
        <pt x="881" y="1263" on="1"/>
        <pt x="881" y="1294" on="0"/>
        <pt x="853" y="1342" on="0"/>
        <pt x="805" y="1375" on="0"/>
        <pt x="742" y="1393" on="0"/>
        <pt x="708" y="1393" on="1"/>
        <pt x="655" y="1393" on="0"/>
        <pt x="568" y="1364" on="0"/>
        <pt x="506" y="1307" on="0"/>
        <pt x="473" y="1222" on="0"/>
        <pt x="473" y="1167" on="1"/>
        <pt x="473" y="1117" on="0"/>
        <pt x="500" y="1028" on="0"/>
        <pt x="543" y="946" on="0"/>
        <pt x="598" y="868" on="0"/>
        <pt x="626" y="831" on="1"/>
        <pt x="631" y="823" on="0"/>
        <pt x="633" y="823" on="1"/>
      </contour>
      <contour>
        <pt x="971" y="856" on="1"/>
        <pt x="970" y="856" on="1"/>
      </contour>
    </TTGlyph>
    <TTGlyph name="L" xMin="53" yMin="-1" xMax="1489" yMax="1568">
      <contour>
        <pt x="212" y="598" on="1"/>
        <pt x="212" y="642" on="0"/>
        <pt x="244" y="720" on="0"/>
        <pt x="300" y="780" on="0"/>
        <pt x="376" y="816" on="0"/>
        <pt x="420" y="819" on="1"/>
        <pt x="399" y="855" on="0"/>
        <pt x="355" y="927" on="0"/>
        <pt x="320" y="1010" on="0"/>
        <pt x="298" y="1106" on="0"/>
        <pt x="298" y="1166" on="1"/>
        <pt x="298" y="1252" on="0"/>
        <pt x="362" y="1399" on="0"/>
        <pt x="479" y="1507" on="0"/>
        <pt x="643" y="1568" on="0"/>
        <pt x="743" y="1568" on="1"/>
        <pt x="845" y="1568" on="0"/>
        <pt x="997" y="1489" on="0"/>
        <pt x="1098" y="1359" on="0"/>
        <pt x="1148" y="1193" on="0"/>
        <pt x="1148" y="1105" on="1"/>
        <pt x="973" y="1105" on="1"/>
        <pt x="973" y="1159" on="0"/>
        <pt x="944" y="1263" on="0"/>
        <pt x="887" y="1344" on="0"/>
        <pt x="800" y="1394" on="0"/>
        <pt x="743" y="1394" on="1"/>
        <pt x="682" y="1394" on="0"/>
        <pt x="582" y="1360" on="0"/>
        <pt x="511" y="1299" on="0"/>
        <pt x="472" y="1215" on="0"/>
        <pt x="472" y="1166" on="1"/>
        <pt x="472" y="1116" on="0"/>
        <pt x="500" y="1029" on="0"/>
        <pt x="542" y="946" on="0"/>
        <pt x="590" y="862" on="0"/>
        <pt x="632" y="769" on="0"/>
        <pt x="660" y="663" on="0"/>
        <pt x="660" y="598" on="1"/>
        <pt x="660" y="550" on="0"/>
        <pt x="625" y="468" on="0"/>
        <pt x="593" y="437" on="1"/>
        <pt x="640" y="414" on="0"/>
        <pt x="723" y="358" on="0"/>
        <pt x="802" y="299" on="0"/>
        <pt x="880" y="243" on="0"/>
        <pt x="963" y="200" on="0"/>
        <pt x="1054" y="173" on="0"/>
        <pt x="1107" y="173" on="1"/>
        <pt x="1150" y="173" on="0"/>
        <pt x="1226" y="206" on="0"/>
        <pt x="1283" y="263" on="0"/>
        <pt x="1316" y="339" on="0"/>
        <pt x="1316" y="382" on="1"/>
        <pt x="1316" y="425" on="0"/>
        <pt x="1282" y="501" on="0"/>
        <pt x="1225" y="558" on="0"/>
        <pt x="1148" y="591" on="0"/>
        <pt x="1105" y="591" on="1"/>
        <pt x="1105" y="766" on="1"/>
        <pt x="1184" y="766" on="0"/>
        <pt x="1324" y="706" on="0"/>
        <pt x="1429" y="601" on="0"/>
        <pt x="1489" y="461" on="0"/>
        <pt x="1489" y="382" on="1"/>
        <pt x="1489" y="302" on="0"/>
        <pt x="1429" y="163" on="0"/>
        <pt x="1324" y="59" on="0"/>
        <pt x="1184" y="-1" on="0"/>
        <pt x="1105" y="-1" on="1"/>
        <pt x="1011" y="-1" on="0"/>
        <pt x="866" y="46" on="0"/>
        <pt x="747" y="116" on="0"/>
        <pt x="645" y="198" on="0"/>
        <pt x="543" y="268" on="0"/>
        <pt x="434" y="315" on="0"/>
        <pt x="367" y="315" on="1"/>
        <pt x="328" y="315" on="0"/>
        <pt x="273" y="295" on="0"/>
        <pt x="238" y="266" on="0"/>
        <pt x="223" y="235" on="0"/>
        <pt x="223" y="224" on="1"/>
        <pt x="223" y="201" on="0"/>
        <pt x="252" y="170" on="0"/>
        <pt x="275" y="170" on="1"/>
        <pt x="275" y="0" on="1"/>
        <pt x="229" y="0" on="0"/>
        <pt x="148" y="35" on="0"/>
        <pt x="88" y="96" on="0"/>
        <pt x="53" y="179" on="0"/>
        <pt x="53" y="226" on="1"/>
        <pt x="53" y="263" on="0"/>
        <pt x="76" y="338" on="0"/>
        <pt x="124" y="404" on="0"/>
        <pt x="198" y="458" on="0"/>
        <pt x="248" y="473" on="1"/>
        <pt x="231" y="499" on="0"/>
        <pt x="212" y="563" on="0"/>
      </contour>
      <contour>
        <pt x="382" y="596" on="1"/>
        <pt x="382" y="573" on="0"/>
        <pt x="413" y="542" on="0"/>
        <pt x="436" y="542" on="1"/>
        <pt x="458" y="542" on="0"/>
        <pt x="490" y="573" on="0"/>
        <pt x="490" y="596" on="1"/>
        <pt x="490" y="618" on="0"/>
        <pt x="458" y="650" on="0"/>
        <pt x="436" y="650" on="1"/>
        <pt x="413" y="650" on="0"/>
        <pt x="382" y="618" on="0"/>
      </contour>
    </TTGlyph>
    <TTGlyph name="M" xMin="29" yMin="-40" xMax="2293" yMax="1567">
      <contour>
        <pt x="696" y="62" on="1"/>
        <pt x="746" y="139" on="0"/>
        <pt x="843" y="238" on="0"/>
        <pt x="930" y="296" on="0"/>
        <pt x="1004" y="318" on="0"/>
        <pt x="1031" y="318" on="1"/>
        <pt x="1091" y="318" on="0"/>
        <pt x="1167" y="268" on="0"/>
        <pt x="1182" y="220" on="1"/>
        <pt x="1238" y="312" on="0"/>
        <pt x="1322" y="514" on="0"/>
        <pt x="1379" y="714" on="0"/>
        <pt x="1408" y="903" on="0"/>
        <pt x="1408" y="983" on="1"/>
        <pt x="1408" y="1087" on="0"/>
        <pt x="1394" y="1241" on="0"/>
        <pt x="1359" y="1342" on="0"/>
        <pt x="1300" y="1392" on="0"/>
        <pt x="1255" y="1392" on="1"/>
        <pt x="1208" y="1392" on="0"/>
        <pt x="1121" y="1353" on="0"/>
        <pt x="1041" y="1292" on="0"/>
        <pt x="970" y="1216" on="0"/>
        <pt x="940" y="1179" on="1"/>
        <pt x="955" y="1129" on="0"/>
        <pt x="971" y="1022" on="0"/>
        <pt x="971" y="960" on="1"/>
        <pt x="971" y="905" on="0"/>
        <pt x="958" y="783" on="0"/>
        <pt x="924" y="644" on="0"/>
        <pt x="865" y="486" on="0"/>
        <pt x="773" y="303" on="0"/>
        <pt x="644" y="93" on="0"/>
        <pt x="557" y="-28" on="1"/>
        <pt x="438" y="18" on="1"/>
        <pt x="438" y="85" on="0"/>
        <pt x="401" y="143" on="0"/>
        <pt x="375" y="143" on="1"/>
        <pt x="361" y="143" on="0"/>
        <pt x="325" y="127" on="0"/>
        <pt x="274" y="87" on="0"/>
        <pt x="209" y="15" on="0"/>
        <pt x="167" y="-40" on="1"/>
        <pt x="29" y="65" on="1"/>
        <pt x="87" y="142" on="0"/>
        <pt x="186" y="241" on="0"/>
        <pt x="272" y="297" on="0"/>
        <pt x="345" y="318" on="0"/>
        <pt x="377" y="318" on="1"/>
        <pt x="433" y="318" on="0"/>
        <pt x="511" y="269" on="0"/>
        <pt x="529" y="223" on="1"/>
        <pt x="602" y="332" on="0"/>
        <pt x="705" y="530" on="0"/>
        <pt x="768" y="713" on="0"/>
        <pt x="797" y="881" on="0"/>
        <pt x="797" y="960" on="1"/>
        <pt x="797" y="1055" on="0"/>
        <pt x="747" y="1214" on="0"/>
        <pt x="667" y="1329" on="0"/>
        <pt x="566" y="1393" on="0"/>
        <pt x="514" y="1393" on="1"/>
        <pt x="431" y="1393" on="0"/>
        <pt x="348" y="1318" on="0"/>
        <pt x="348" y="1259" on="1"/>
        <pt x="348" y="1216" on="0"/>
        <pt x="388" y="1149" on="0"/>
        <pt x="447" y="1087" on="0"/>
        <pt x="516" y="1024" on="0"/>
        <pt x="575" y="948" on="0"/>
        <pt x="615" y="854" on="0"/>
        <pt x="615" y="792" on="1"/>
        <pt x="615" y="745" on="0"/>
        <pt x="580" y="662" on="0"/>
        <pt x="519" y="601" on="0"/>
        <pt x="436" y="566" on="0"/>
        <pt x="389" y="566" on="1"/>
        <pt x="343" y="566" on="0"/>
        <pt x="262" y="601" on="0"/>
        <pt x="202" y="662" on="0"/>
        <pt x="167" y="745" on="0"/>
        <pt x="167" y="792" on="1"/>
        <pt x="167" y="828" on="0"/>
        <pt x="189" y="895" on="0"/>
        <pt x="229" y="950" on="0"/>
        <pt x="283" y="991" on="0"/>
        <pt x="316" y="1002" on="1"/>
        <pt x="289" y="1022" on="0"/>
        <pt x="238" y="1067" on="0"/>
        <pt x="198" y="1126" on="0"/>
        <pt x="173" y="1205" on="0"/>
        <pt x="173" y="1259" on="1"/>
        <pt x="173" y="1326" on="0"/>
        <pt x="217" y="1439" on="0"/>
        <pt x="302" y="1521" on="0"/>
        <pt x="430" y="1567" on="0"/>
        <pt x="514" y="1567" on="1"/>
        <pt x="612" y="1567" on="0"/>
        <pt x="792" y="1465" on="0"/>
        <pt x="858" y="1371" on="1"/>
        <pt x="895" y="1411" on="0"/>
        <pt x="983" y="1483" on="0"/>
        <pt x="1084" y="1536" on="0"/>
        <pt x="1195" y="1567" on="0"/>
        <pt x="1255" y="1567" on="1"/>
        <pt x="1348" y="1567" on="0"/>
        <pt x="1460" y="1507" on="0"/>
        <pt x="1499" y="1442" on="1"/>
        <pt x="1526" y="1466" on="0"/>
        <pt x="1585" y="1512" on="0"/>
        <pt x="1652" y="1546" on="0"/>
        <pt x="1730" y="1567" on="0"/>
        <pt x="1778" y="1567" on="1"/>
        <pt x="1871" y="1567" on="0"/>
        <pt x="1984" y="1461" on="0"/>
        <pt x="1999" y="1369" on="1"/>
        <pt x="2002" y="1348" on="0"/>
        <pt x="2011" y="1296" on="0"/>
        <pt x="2028" y="1247" on="0"/>
        <pt x="2055" y="1209" on="0"/>
        <pt x="2077" y="1203" on="1"/>
        <pt x="2101" y="1224" on="0"/>
        <pt x="2118" y="1285" on="0"/>
        <pt x="2118" y="1327" on="1"/>
        <pt x="2293" y="1327" on="1"/>
        <pt x="2293" y="1258" on="0"/>
        <pt x="2265" y="1163" on="0"/>
        <pt x="2214" y="1092" on="0"/>
        <pt x="2143" y="1035" on="0"/>
        <pt x="2101" y="1004" on="1"/>
        <pt x="2062" y="975" on="0"/>
        <pt x="1986" y="886" on="0"/>
        <pt x="1927" y="770" on="0"/>
        <pt x="1890" y="626" on="0"/>
        <pt x="1890" y="541" on="1"/>
        <pt x="1890" y="439" on="0"/>
        <pt x="1944" y="299" on="0"/>
        <pt x="2029" y="212" on="0"/>
        <pt x="2132" y="174" on="0"/>
        <pt x="2180" y="174" on="1"/>
        <pt x="2180" y="0" on="1"/>
        <pt x="2102" y="0" on="0"/>
        <pt x="1938" y="58" on="0"/>
        <pt x="1802" y="188" on="0"/>
        <pt x="1715" y="397" on="0"/>
        <pt x="1715" y="549" on="1"/>
        <pt x="1715" y="648" on="0"/>
        <pt x="1752" y="812" on="0"/>
        <pt x="1814" y="947" on="0"/>
        <pt x="1895" y="1052" on="0"/>
        <pt x="1938" y="1093" on="1"/>
        <pt x="1911" y="1111" on="0"/>
        <pt x="1876" y="1161" on="0"/>
        <pt x="1854" y="1217" on="0"/>
        <pt x="1841" y="1277" on="0"/>
        <pt x="1835" y="1304" on="1"/>
        <pt x="1824" y="1355" on="0"/>
        <pt x="1788" y="1392" on="0"/>
        <pt x="1756" y="1392" on="1"/>
        <pt x="1713" y="1392" on="0"/>
        <pt x="1622" y="1331" on="0"/>
        <pt x="1560" y="1263" on="1"/>
        <pt x="1565" y="1233" on="0"/>
        <pt x="1573" y="1161" on="0"/>
        <pt x="1579" y="1084" on="0"/>
        <pt x="1582" y="1009" on="0"/>
        <pt x="1582" y="976" on="1"/>
        <pt x="1582" y="875" on="0"/>
        <pt x="1545" y="638" on="0"/>
        <pt x="1458" y="379" on="0"/>
        <pt x="1315" y="107" on="0"/>
        <pt x="1209" y="-28" on="1"/>
        <pt x="1089" y="17" on="1"/>
        <pt x="1089" y="81" on="0"/>
        <pt x="1057" y="143" on="0"/>
        <pt x="1031" y="143" on="1"/>
        <pt x="1015" y="143" on="0"/>
        <pt x="977" y="130" on="0"/>
        <pt x="928" y="92" on="0"/>
        <pt x="863" y="23" on="0"/>
        <pt x="821" y="-33" on="1"/>
      </contour>
      <contour>
        <pt x="337" y="790" on="1"/>
        <pt x="337" y="767" on="0"/>
        <pt x="368" y="736" on="0"/>
        <pt x="391" y="736" on="1"/>
        <pt x="413" y="736" on="0"/>
        <pt x="445" y="767" on="0"/>
        <pt x="445" y="790" on="1"/>
        <pt x="445" y="812" on="0"/>
        <pt x="413" y="844" on="0"/>
        <pt x="391" y="844" on="1"/>
        <pt x="368" y="844" on="0"/>
        <pt x="337" y="812" on="0"/>
      </contour>
    </TTGlyph>
    <TTGlyph name="N" xMin="39" yMin="-29" xMax="1710" yMax="1568">
      <contour>
        <pt x="504" y="1393" on="1"/>
        <pt x="423" y="1393" on="0"/>
        <pt x="341" y="1318" on="0"/>
        <pt x="341" y="1259" on="1"/>
        <pt x="341" y="1216" on="0"/>
        <pt x="381" y="1149" on="0"/>
        <pt x="440" y="1087" on="0"/>
        <pt x="509" y="1024" on="0"/>
        <pt x="568" y="948" on="0"/>
        <pt x="608" y="854" on="0"/>
        <pt x="608" y="792" on="1"/>
        <pt x="608" y="745" on="0"/>
        <pt x="573" y="662" on="0"/>
        <pt x="512" y="601" on="0"/>
        <pt x="429" y="566" on="0"/>
        <pt x="382" y="566" on="1"/>
        <pt x="336" y="566" on="0"/>
        <pt x="255" y="601" on="0"/>
        <pt x="195" y="662" on="0"/>
        <pt x="160" y="745" on="0"/>
        <pt x="160" y="792" on="1"/>
        <pt x="160" y="828" on="0"/>
        <pt x="182" y="895" on="0"/>
        <pt x="222" y="950" on="0"/>
        <pt x="276" y="991" on="0"/>
        <pt x="309" y="1002" on="1"/>
        <pt x="282" y="1022" on="0"/>
        <pt x="231" y="1067" on="0"/>
        <pt x="191" y="1126" on="0"/>
        <pt x="166" y="1205" on="0"/>
        <pt x="166" y="1259" on="1"/>
        <pt x="166" y="1326" on="0"/>
        <pt x="209" y="1439" on="0"/>
        <pt x="295" y="1521" on="0"/>
        <pt x="421" y="1567" on="0"/>
        <pt x="504" y="1567" on="1"/>
        <pt x="579" y="1567" on="0"/>
        <pt x="704" y="1523" on="0"/>
        <pt x="806" y="1441" on="0"/>
        <pt x="888" y="1325" on="0"/>
        <pt x="921" y="1254" on="1"/>
        <pt x="1145" y="763" on="1"/>
        <pt x="1162" y="868" on="0"/>
        <pt x="1234" y="1031" on="0"/>
        <pt x="1320" y="1164" on="0"/>
        <pt x="1412" y="1276" on="0"/>
        <pt x="1488" y="1385" on="0"/>
        <pt x="1536" y="1499" on="0"/>
        <pt x="1536" y="1568" on="1"/>
        <pt x="1710" y="1568" on="1"/>
        <pt x="1710" y="1494" on="0"/>
        <pt x="1675" y="1374" on="0"/>
        <pt x="1619" y="1271" on="0"/>
        <pt x="1546" y="1179" on="0"/>
        <pt x="1471" y="1084" on="0"/>
        <pt x="1398" y="980" on="0"/>
        <pt x="1342" y="855" on="0"/>
        <pt x="1307" y="701" on="0"/>
        <pt x="1307" y="604" on="1"/>
        <pt x="1307" y="479" on="0"/>
        <pt x="1361" y="314" on="0"/>
        <pt x="1446" y="215" on="0"/>
        <pt x="1549" y="174" on="0"/>
        <pt x="1597" y="174" on="1"/>
        <pt x="1597" y="0" on="1"/>
        <pt x="1538" y="0" on="0"/>
        <pt x="1421" y="27" on="0"/>
        <pt x="1313" y="87" on="0"/>
        <pt x="1222" y="185" on="0"/>
        <pt x="1189" y="256" on="1"/>
        <pt x="959" y="757" on="1"/>
        <pt x="944" y="677" on="0"/>
        <pt x="884" y="505" on="0"/>
        <pt x="789" y="312" on="0"/>
        <pt x="654" y="96" on="0"/>
        <pt x="564" y="-28" on="1"/>
        <pt x="445" y="18" on="1"/>
        <pt x="445" y="46" on="0"/>
        <pt x="441" y="93" on="0"/>
        <pt x="428" y="125" on="0"/>
        <pt x="403" y="143" on="0"/>
        <pt x="382" y="143" on="1"/>
        <pt x="369" y="143" on="0"/>
        <pt x="333" y="131" on="0"/>
        <pt x="284" y="94" on="0"/>
        <pt x="220" y="26" on="0"/>
        <pt x="178" y="-29" on="1"/>
        <pt x="39" y="77" on="1"/>
        <pt x="97" y="153" on="0"/>
        <pt x="194" y="247" on="0"/>
        <pt x="278" y="300" on="0"/>
        <pt x="351" y="318" on="0"/>
        <pt x="384" y="318" on="1"/>
        <pt x="440" y="318" on="0"/>
        <pt x="515" y="274" on="0"/>
        <pt x="539" y="232" on="1"/>
        <pt x="612" y="341" on="0"/>
        <pt x="714" y="536" on="0"/>
        <pt x="776" y="716" on="0"/>
        <pt x="804" y="881" on="0"/>
        <pt x="804" y="960" on="1"/>
        <pt x="804" y="1056" on="0"/>
        <pt x="756" y="1215" on="0"/>
        <pt x="675" y="1329" on="0"/>
        <pt x="565" y="1393" on="0"/>
      </contour>
      <contour>
        <pt x="330" y="790" on="1"/>
        <pt x="330" y="767" on="0"/>
        <pt x="361" y="736" on="0"/>
        <pt x="384" y="736" on="1"/>
        <pt x="406" y="736" on="0"/>
        <pt x="438" y="767" on="0"/>
        <pt x="438" y="790" on="1"/>
        <pt x="438" y="812" on="0"/>
        <pt x="406" y="844" on="0"/>
        <pt x="384" y="844" on="1"/>
        <pt x="361" y="844" on="0"/>
        <pt x="330" y="812" on="0"/>
      </contour>
    </TTGlyph>
    <TTGlyph name="Ntilde" xMin="39" yMin="-29" xMax="1710" yMax="1993">
      <contour>
        <pt x="504" y="1393" on="1"/>
        <pt x="423" y="1393" on="0"/>
        <pt x="341" y="1318" on="0"/>
        <pt x="341" y="1259" on="1"/>
        <pt x="341" y="1216" on="0"/>
        <pt x="381" y="1149" on="0"/>
        <pt x="440" y="1087" on="0"/>
        <pt x="509" y="1024" on="0"/>
        <pt x="568" y="948" on="0"/>
        <pt x="608" y="854" on="0"/>
        <pt x="608" y="792" on="1"/>
        <pt x="608" y="745" on="0"/>
        <pt x="573" y="662" on="0"/>
        <pt x="512" y="601" on="0"/>
        <pt x="429" y="566" on="0"/>
        <pt x="382" y="566" on="1"/>
        <pt x="336" y="566" on="0"/>
        <pt x="255" y="601" on="0"/>
        <pt x="195" y="662" on="0"/>
        <pt x="160" y="745" on="0"/>
        <pt x="160" y="792" on="1"/>
        <pt x="160" y="828" on="0"/>
        <pt x="182" y="895" on="0"/>
        <pt x="222" y="950" on="0"/>
        <pt x="276" y="991" on="0"/>
        <pt x="309" y="1002" on="1"/>
        <pt x="282" y="1022" on="0"/>
        <pt x="231" y="1067" on="0"/>
        <pt x="191" y="1126" on="0"/>
        <pt x="166" y="1205" on="0"/>
        <pt x="166" y="1259" on="1"/>
        <pt x="166" y="1326" on="0"/>
        <pt x="209" y="1439" on="0"/>
        <pt x="295" y="1521" on="0"/>
        <pt x="421" y="1567" on="0"/>
        <pt x="504" y="1567" on="1"/>
        <pt x="579" y="1567" on="0"/>
        <pt x="704" y="1523" on="0"/>
        <pt x="806" y="1441" on="0"/>
        <pt x="888" y="1325" on="0"/>
        <pt x="921" y="1254" on="1"/>
        <pt x="1145" y="763" on="1"/>
        <pt x="1162" y="868" on="0"/>
        <pt x="1234" y="1031" on="0"/>
        <pt x="1320" y="1164" on="0"/>
        <pt x="1412" y="1276" on="0"/>
        <pt x="1488" y="1385" on="0"/>
        <pt x="1536" y="1499" on="0"/>
        <pt x="1536" y="1568" on="1"/>
        <pt x="1710" y="1568" on="1"/>
        <pt x="1710" y="1494" on="0"/>
        <pt x="1675" y="1374" on="0"/>
        <pt x="1619" y="1271" on="0"/>
        <pt x="1546" y="1179" on="0"/>
        <pt x="1471" y="1084" on="0"/>
        <pt x="1398" y="980" on="0"/>
        <pt x="1342" y="855" on="0"/>
        <pt x="1307" y="701" on="0"/>
        <pt x="1307" y="604" on="1"/>
        <pt x="1307" y="479" on="0"/>
        <pt x="1361" y="314" on="0"/>
        <pt x="1446" y="215" on="0"/>
        <pt x="1549" y="174" on="0"/>
        <pt x="1597" y="174" on="1"/>
        <pt x="1597" y="0" on="1"/>
        <pt x="1538" y="0" on="0"/>
        <pt x="1421" y="27" on="0"/>
        <pt x="1313" y="87" on="0"/>
        <pt x="1222" y="185" on="0"/>
        <pt x="1189" y="256" on="1"/>
        <pt x="959" y="757" on="1"/>
        <pt x="944" y="677" on="0"/>
        <pt x="884" y="505" on="0"/>
        <pt x="789" y="312" on="0"/>
        <pt x="654" y="96" on="0"/>
        <pt x="564" y="-28" on="1"/>
        <pt x="445" y="18" on="1"/>
        <pt x="445" y="46" on="0"/>
        <pt x="441" y="93" on="0"/>
        <pt x="428" y="125" on="0"/>
        <pt x="403" y="143" on="0"/>
        <pt x="382" y="143" on="1"/>
        <pt x="369" y="143" on="0"/>
        <pt x="333" y="131" on="0"/>
        <pt x="284" y="94" on="0"/>
        <pt x="220" y="26" on="0"/>
        <pt x="178" y="-29" on="1"/>
        <pt x="39" y="77" on="1"/>
        <pt x="97" y="153" on="0"/>
        <pt x="194" y="247" on="0"/>
        <pt x="278" y="300" on="0"/>
        <pt x="351" y="318" on="0"/>
        <pt x="384" y="318" on="1"/>
        <pt x="440" y="318" on="0"/>
        <pt x="515" y="274" on="0"/>
        <pt x="539" y="232" on="1"/>
        <pt x="612" y="341" on="0"/>
        <pt x="714" y="536" on="0"/>
        <pt x="776" y="716" on="0"/>
        <pt x="804" y="881" on="0"/>
        <pt x="804" y="960" on="1"/>
        <pt x="804" y="1056" on="0"/>
        <pt x="756" y="1215" on="0"/>
        <pt x="675" y="1329" on="0"/>
        <pt x="565" y="1393" on="0"/>
      </contour>
      <contour>
        <pt x="330" y="790" on="1"/>
        <pt x="330" y="767" on="0"/>
        <pt x="361" y="736" on="0"/>
        <pt x="384" y="736" on="1"/>
        <pt x="406" y="736" on="0"/>
        <pt x="438" y="767" on="0"/>
        <pt x="438" y="790" on="1"/>
        <pt x="438" y="812" on="0"/>
        <pt x="406" y="844" on="0"/>
        <pt x="384" y="844" on="1"/>
        <pt x="361" y="844" on="0"/>
        <pt x="330" y="812" on="0"/>
      </contour>
      <contour>
        <pt x="1623" y="1910" on="1"/>
        <pt x="1598" y="1865" on="0"/>
        <pt x="1532" y="1780" on="0"/>
        <pt x="1458" y="1715" on="0"/>
        <pt x="1383" y="1675" on="0"/>
        <pt x="1349" y="1675" on="1"/>
        <pt x="1305" y="1675" on="0"/>
        <pt x="1237" y="1715" on="0"/>
        <pt x="1181" y="1763" on="0"/>
        <pt x="1135" y="1803" on="0"/>
        <pt x="1112" y="1803" on="1"/>
        <pt x="1064" y="1803" on="0"/>
        <pt x="985" y="1724" on="0"/>
        <pt x="953" y="1662" on="1"/>
        <pt x="804" y="1746" on="1"/>
        <pt x="830" y="1795" on="0"/>
        <pt x="895" y="1879" on="0"/>
        <pt x="968" y="1940" on="0"/>
        <pt x="1047" y="1974" on="0"/>
        <pt x="1086" y="1974" on="1"/>
        <pt x="1128" y="1974" on="0"/>
        <pt x="1194" y="1934" on="0"/>
        <pt x="1249" y="1886" on="0"/>
        <pt x="1299" y="1846" on="0"/>
        <pt x="1326" y="1846" on="1"/>
        <pt x="1345" y="1846" on="0"/>
        <pt x="1385" y="1871" on="0"/>
        <pt x="1423" y="1912" on="0"/>
        <pt x="1459" y="1965" on="0"/>
        <pt x="1474" y="1993" on="1"/>
      </contour>
    </TTGlyph>
    <TTGlyph name="O" xMin="24" yMin="0" xMax="1576" yMax="1568">
      <contour>
        <pt x="194" y="714" on="1"/>
        <pt x="194" y="676" on="0"/>
        <pt x="246" y="624" on="0"/>
        <pt x="284" y="624" on="1"/>
        <pt x="322" y="624" on="0"/>
        <pt x="375" y="676" on="0"/>
        <pt x="375" y="714" on="1"/>
        <pt x="375" y="759" on="0"/>
        <pt x="347" y="828" on="0"/>
        <pt x="304" y="891" on="0"/>
        <pt x="255" y="952" on="0"/>
        <pt x="212" y="1023" on="0"/>
        <pt x="184" y="1112" on="0"/>
        <pt x="184" y="1171" on="1"/>
        <pt x="184" y="1268" on="0"/>
        <pt x="270" y="1417" on="0"/>
        <pt x="428" y="1517" on="0"/>
        <pt x="651" y="1568" on="0"/>
        <pt x="787" y="1568" on="1"/>
        <pt x="896" y="1568" on="0"/>
        <pt x="1097" y="1513" on="0"/>
        <pt x="1273" y="1411" on="0"/>
        <pt x="1417" y="1269" on="0"/>
        <pt x="1520" y="1095" on="0"/>
        <pt x="1576" y="895" on="0"/>
        <pt x="1576" y="786" on="1"/>
        <pt x="1576" y="677" on="0"/>
        <pt x="1520" y="476" on="0"/>
        <pt x="1418" y="302" on="0"/>
        <pt x="1274" y="158" on="0"/>
        <pt x="1100" y="56" on="0"/>
        <pt x="899" y="0" on="0"/>
        <pt x="790" y="0" on="1"/>
        <pt x="702" y="0" on="0"/>
        <pt x="533" y="42" on="0"/>
        <pt x="378" y="120" on="0"/>
        <pt x="239" y="232" on="0"/>
        <pt x="181" y="301" on="1"/>
        <pt x="318" y="412" on="1"/>
        <pt x="411" y="302" on="0"/>
        <pt x="653" y="174" on="0"/>
        <pt x="790" y="174" on="1"/>
        <pt x="874" y="174" on="0"/>
        <pt x="1030" y="218" on="0"/>
        <pt x="1166" y="297" on="0"/>
        <pt x="1278" y="409" on="0"/>
        <pt x="1358" y="545" on="0"/>
        <pt x="1402" y="702" on="0"/>
        <pt x="1402" y="786" on="1"/>
        <pt x="1402" y="913" on="0"/>
        <pt x="1305" y="1134" on="0"/>
        <pt x="1138" y="1299" on="0"/>
        <pt x="914" y="1394" on="0"/>
        <pt x="787" y="1394" on="1"/>
        <pt x="691" y="1394" on="0"/>
        <pt x="533" y="1369" on="0"/>
        <pt x="420" y="1315" on="0"/>
        <pt x="358" y="1231" on="0"/>
        <pt x="358" y="1173" on="1"/>
        <pt x="358" y="1129" on="0"/>
        <pt x="386" y="1061" on="0"/>
        <pt x="428" y="1001" on="0"/>
        <pt x="478" y="941" on="0"/>
        <pt x="520" y="867" on="0"/>
        <pt x="548" y="775" on="0"/>
        <pt x="548" y="712" on="1"/>
        <pt x="548" y="658" on="0"/>
        <pt x="507" y="562" on="0"/>
        <pt x="436" y="491" on="0"/>
        <pt x="340" y="450" on="0"/>
        <pt x="286" y="450" on="1"/>
        <pt x="232" y="450" on="0"/>
        <pt x="136" y="492" on="0"/>
        <pt x="65" y="564" on="0"/>
        <pt x="24" y="660" on="0"/>
        <pt x="24" y="714" on="1"/>
      </contour>
    </TTGlyph>
    <TTGlyph name="OE" xMin="24" yMin="-1" xMax="2574" yMax="1617">
      <contour>
        <pt x="1776" y="673" on="1"/>
        <pt x="1758" y="643" on="0"/>
        <pt x="1758" y="605" on="1"/>
        <pt x="1758" y="577" on="0"/>
        <pt x="1779" y="529" on="0"/>
        <pt x="1815" y="493" on="0"/>
        <pt x="1863" y="472" on="0"/>
        <pt x="1891" y="472" on="1"/>
        <pt x="1919" y="472" on="0"/>
        <pt x="1968" y="493" on="0"/>
        <pt x="2004" y="529" on="0"/>
        <pt x="2025" y="577" on="0"/>
        <pt x="2025" y="605" on="1"/>
        <pt x="2025" y="645" on="0"/>
        <pt x="1989" y="710" on="0"/>
        <pt x="1931" y="764" on="0"/>
        <pt x="1860" y="808" on="0"/>
        <pt x="1826" y="828" on="1"/>
        <pt x="1782" y="852" on="0"/>
        <pt x="1697" y="906" on="0"/>
        <pt x="1631" y="974" on="0"/>
        <pt x="1590" y="1061" on="0"/>
        <pt x="1590" y="1118" on="1"/>
        <pt x="1590" y="1152" on="0"/>
        <pt x="1603" y="1206" on="0"/>
        <pt x="1623" y="1249" on="0"/>
        <pt x="1648" y="1283" on="0"/>
        <pt x="1661" y="1298" on="1"/>
        <pt x="1672" y="1311" on="0"/>
        <pt x="1688" y="1338" on="0"/>
        <pt x="1688" y="1354" on="1"/>
        <pt x="1688" y="1374" on="0"/>
        <pt x="1660" y="1393" on="0"/>
        <pt x="1639" y="1393" on="1"/>
        <pt x="1593" y="1393" on="0"/>
        <pt x="1502" y="1318" on="0"/>
        <pt x="1430" y="1165" on="0"/>
        <pt x="1385" y="933" on="0"/>
        <pt x="1385" y="776" on="1"/>
        <pt x="1385" y="619" on="0"/>
        <pt x="1471" y="392" on="0"/>
        <pt x="1613" y="244" on="0"/>
        <pt x="1796" y="173" on="0"/>
        <pt x="1894" y="173" on="1"/>
        <pt x="1999" y="173" on="0"/>
        <pt x="2166" y="252" on="0"/>
        <pt x="2294" y="377" on="0"/>
        <pt x="2383" y="532" on="0"/>
        <pt x="2412" y="607" on="1"/>
        <pt x="2574" y="543" on="1"/>
        <pt x="2550" y="480" on="0"/>
        <pt x="2483" y="351" on="0"/>
        <pt x="2394" y="230" on="0"/>
        <pt x="2283" y="124" on="0"/>
        <pt x="2148" y="45" on="0"/>
        <pt x="1987" y="-1" on="0"/>
        <pt x="1894" y="-1" on="1"/>
        <pt x="1819" y="-1" on="0"/>
        <pt x="1672" y="29" on="0"/>
        <pt x="1535" y="91" on="0"/>
        <pt x="1414" y="186" on="0"/>
        <pt x="1365" y="250" on="1"/>
        <pt x="1311" y="192" on="0"/>
        <pt x="1182" y="100" on="0"/>
        <pt x="1036" y="35" on="0"/>
        <pt x="875" y="0" on="0"/>
        <pt x="790" y="0" on="1"/>
        <pt x="702" y="0" on="0"/>
        <pt x="533" y="42" on="0"/>
        <pt x="378" y="120" on="0"/>
        <pt x="239" y="232" on="0"/>
        <pt x="181" y="301" on="1"/>
        <pt x="318" y="412" on="1"/>
        <pt x="411" y="302" on="0"/>
        <pt x="653" y="174" on="0"/>
        <pt x="790" y="174" on="1"/>
        <pt x="864" y="174" on="0"/>
        <pt x="1002" y="208" on="0"/>
        <pt x="1126" y="270" on="0"/>
        <pt x="1232" y="358" on="0"/>
        <pt x="1274" y="412" on="1"/>
        <pt x="1243" y="488" on="0"/>
        <pt x="1210" y="669" on="0"/>
        <pt x="1210" y="776" on="1"/>
        <pt x="1210" y="894" on="0"/>
        <pt x="1237" y="1092" on="0"/>
        <pt x="1261" y="1174" on="1"/>
        <pt x="1219" y="1225" on="0"/>
        <pt x="1113" y="1306" on="0"/>
        <pt x="992" y="1363" on="0"/>
        <pt x="858" y="1394" on="0"/>
        <pt x="787" y="1394" on="1"/>
        <pt x="691" y="1394" on="0"/>
        <pt x="533" y="1369" on="0"/>
        <pt x="420" y="1315" on="0"/>
        <pt x="358" y="1231" on="0"/>
        <pt x="358" y="1173" on="1"/>
        <pt x="358" y="1129" on="0"/>
        <pt x="386" y="1061" on="0"/>
        <pt x="428" y="1001" on="0"/>
        <pt x="478" y="941" on="0"/>
        <pt x="520" y="867" on="0"/>
        <pt x="548" y="775" on="0"/>
        <pt x="548" y="712" on="1"/>
        <pt x="548" y="658" on="0"/>
        <pt x="507" y="562" on="0"/>
        <pt x="436" y="491" on="0"/>
        <pt x="340" y="450" on="0"/>
        <pt x="286" y="450" on="1"/>
        <pt x="232" y="450" on="0"/>
        <pt x="136" y="492" on="0"/>
        <pt x="65" y="564" on="0"/>
        <pt x="24" y="660" on="0"/>
        <pt x="24" y="714" on="1"/>
        <pt x="194" y="714" on="1"/>
        <pt x="194" y="676" on="0"/>
        <pt x="246" y="624" on="0"/>
        <pt x="284" y="624" on="1"/>
        <pt x="322" y="624" on="0"/>
        <pt x="375" y="676" on="0"/>
        <pt x="375" y="714" on="1"/>
        <pt x="375" y="759" on="0"/>
        <pt x="347" y="828" on="0"/>
        <pt x="304" y="891" on="0"/>
        <pt x="255" y="952" on="0"/>
        <pt x="212" y="1023" on="0"/>
        <pt x="184" y="1112" on="0"/>
        <pt x="184" y="1171" on="1"/>
        <pt x="184" y="1268" on="0"/>
        <pt x="270" y="1417" on="0"/>
        <pt x="428" y="1517" on="0"/>
        <pt x="651" y="1568" on="0"/>
        <pt x="787" y="1568" on="1"/>
        <pt x="947" y="1568" on="0"/>
        <pt x="1226" y="1452" on="0"/>
        <pt x="1333" y="1350" on="1"/>
        <pt x="1396" y="1460" on="0"/>
        <pt x="1556" y="1567" on="0"/>
        <pt x="1639" y="1567" on="1"/>
        <pt x="1698" y="1567" on="0"/>
        <pt x="1787" y="1528" on="0"/>
        <pt x="1816" y="1491" on="1"/>
        <pt x="1918" y="1617" on="1"/>
        <pt x="1935" y="1563" on="0"/>
        <pt x="1980" y="1454" on="0"/>
        <pt x="2033" y="1368" on="0"/>
        <pt x="2093" y="1314" on="0"/>
        <pt x="2126" y="1314" on="1"/>
        <pt x="2157" y="1314" on="0"/>
        <pt x="2205" y="1347" on="0"/>
        <pt x="2239" y="1406" on="0"/>
        <pt x="2257" y="1488" on="0"/>
        <pt x="2257" y="1537" on="1"/>
        <pt x="2431" y="1537" on="1"/>
        <pt x="2431" y="1451" on="0"/>
        <pt x="2390" y="1305" on="0"/>
        <pt x="2311" y="1199" on="0"/>
        <pt x="2198" y="1139" on="0"/>
        <pt x="2126" y="1139" on="1"/>
        <pt x="2081" y="1139" on="0"/>
        <pt x="2004" y="1160" on="0"/>
        <pt x="1940" y="1197" on="0"/>
        <pt x="1888" y="1246" on="0"/>
        <pt x="1867" y="1275" on="1"/>
        <pt x="1795" y="1187" on="1"/>
        <pt x="1784" y="1173" on="0"/>
        <pt x="1765" y="1139" on="0"/>
        <pt x="1765" y="1119" on="1"/>
        <pt x="1765" y="1097" on="0"/>
        <pt x="1789" y="1060" on="0"/>
        <pt x="1830" y="1027" on="0"/>
        <pt x="1882" y="996" on="0"/>
        <pt x="1911" y="980" on="1"/>
        <pt x="1937" y="966" on="0"/>
        <pt x="1989" y="936" on="0"/>
        <pt x="2015" y="918" on="1"/>
        <pt x="2031" y="952" on="0"/>
        <pt x="2071" y="1012" on="0"/>
        <pt x="2123" y="1056" on="0"/>
        <pt x="2190" y="1081" on="0"/>
        <pt x="2232" y="1081" on="1"/>
        <pt x="2259" y="1081" on="0"/>
        <pt x="2302" y="1071" on="0"/>
        <pt x="2335" y="1055" on="0"/>
        <pt x="2363" y="1034" on="0"/>
        <pt x="2375" y="1024" on="1"/>
        <pt x="2375" y="1131" on="1"/>
        <pt x="2545" y="1131" on="1"/>
        <pt x="2545" y="1078" on="0"/>
        <pt x="2538" y="974" on="0"/>
        <pt x="2508" y="893" on="0"/>
        <pt x="2447" y="843" on="0"/>
        <pt x="2393" y="843" on="1"/>
        <pt x="2360" y="843" on="0"/>
        <pt x="2322" y="863" on="0"/>
        <pt x="2295" y="887" on="0"/>
        <pt x="2271" y="907" on="0"/>
        <pt x="2253" y="907" on="1"/>
        <pt x="2233" y="907" on="0"/>
        <pt x="2202" y="886" on="0"/>
        <pt x="2178" y="852" on="0"/>
        <pt x="2159" y="808" on="0"/>
        <pt x="2151" y="785" on="1"/>
        <pt x="2174" y="747" on="0"/>
        <pt x="2199" y="661" on="0"/>
        <pt x="2199" y="605" on="1"/>
        <pt x="2199" y="542" on="0"/>
        <pt x="2151" y="430" on="0"/>
        <pt x="2067" y="347" on="0"/>
        <pt x="1955" y="299" on="0"/>
        <pt x="1892" y="299" on="1"/>
        <pt x="1829" y="299" on="0"/>
        <pt x="1717" y="347" on="0"/>
        <pt x="1634" y="430" on="0"/>
        <pt x="1586" y="542" on="0"/>
        <pt x="1586" y="605" on="1"/>
        <pt x="1586" y="653" on="0"/>
        <pt x="1613" y="738" on="0"/>
        <pt x="1638" y="775" on="1"/>
      </contour>
    </TTGlyph>
    <TTGlyph name="Oacute" xMin="24" yMin="0" xMax="1576" yMax="1995">
      <contour>
        <pt x="194" y="714" on="1"/>
        <pt x="194" y="676" on="0"/>
        <pt x="246" y="624" on="0"/>
        <pt x="284" y="624" on="1"/>
        <pt x="322" y="624" on="0"/>
        <pt x="375" y="676" on="0"/>
        <pt x="375" y="714" on="1"/>
        <pt x="375" y="759" on="0"/>
        <pt x="347" y="828" on="0"/>
        <pt x="304" y="891" on="0"/>
        <pt x="255" y="952" on="0"/>
        <pt x="212" y="1023" on="0"/>
        <pt x="184" y="1112" on="0"/>
        <pt x="184" y="1171" on="1"/>
        <pt x="184" y="1268" on="0"/>
        <pt x="270" y="1417" on="0"/>
        <pt x="428" y="1517" on="0"/>
        <pt x="651" y="1568" on="0"/>
        <pt x="787" y="1568" on="1"/>
        <pt x="896" y="1568" on="0"/>
        <pt x="1097" y="1513" on="0"/>
        <pt x="1273" y="1411" on="0"/>
        <pt x="1417" y="1269" on="0"/>
        <pt x="1520" y="1095" on="0"/>
        <pt x="1576" y="895" on="0"/>
        <pt x="1576" y="786" on="1"/>
        <pt x="1576" y="677" on="0"/>
        <pt x="1520" y="476" on="0"/>
        <pt x="1418" y="302" on="0"/>
        <pt x="1274" y="158" on="0"/>
        <pt x="1100" y="56" on="0"/>
        <pt x="899" y="0" on="0"/>
        <pt x="790" y="0" on="1"/>
        <pt x="702" y="0" on="0"/>
        <pt x="533" y="42" on="0"/>
        <pt x="378" y="120" on="0"/>
        <pt x="239" y="232" on="0"/>
        <pt x="181" y="301" on="1"/>
        <pt x="318" y="412" on="1"/>
        <pt x="411" y="302" on="0"/>
        <pt x="653" y="174" on="0"/>
        <pt x="790" y="174" on="1"/>
        <pt x="874" y="174" on="0"/>
        <pt x="1030" y="218" on="0"/>
        <pt x="1166" y="297" on="0"/>
        <pt x="1278" y="409" on="0"/>
        <pt x="1358" y="545" on="0"/>
        <pt x="1402" y="702" on="0"/>
        <pt x="1402" y="786" on="1"/>
        <pt x="1402" y="913" on="0"/>
        <pt x="1305" y="1134" on="0"/>
        <pt x="1138" y="1299" on="0"/>
        <pt x="914" y="1394" on="0"/>
        <pt x="787" y="1394" on="1"/>
        <pt x="691" y="1394" on="0"/>
        <pt x="533" y="1369" on="0"/>
        <pt x="420" y="1315" on="0"/>
        <pt x="358" y="1231" on="0"/>
        <pt x="358" y="1173" on="1"/>
        <pt x="358" y="1129" on="0"/>
        <pt x="386" y="1061" on="0"/>
        <pt x="428" y="1001" on="0"/>
        <pt x="478" y="941" on="0"/>
        <pt x="520" y="867" on="0"/>
        <pt x="548" y="775" on="0"/>
        <pt x="548" y="712" on="1"/>
        <pt x="548" y="658" on="0"/>
        <pt x="507" y="562" on="0"/>
        <pt x="436" y="491" on="0"/>
        <pt x="340" y="450" on="0"/>
        <pt x="286" y="450" on="1"/>
        <pt x="232" y="450" on="0"/>
        <pt x="136" y="492" on="0"/>
        <pt x="65" y="564" on="0"/>
        <pt x="24" y="660" on="0"/>
        <pt x="24" y="714" on="1"/>
      </contour>
      <contour>
        <pt x="745" y="1599" on="1"/>
        <pt x="655" y="1741" on="1"/>
        <pt x="1004" y="1995" on="1"/>
        <pt x="1120" y="1837" on="1"/>
      </contour>
    </TTGlyph>
    <TTGlyph name="Ocircumflex" xMin="24" yMin="0" xMax="1576" yMax="1997">
      <contour>
        <pt x="194" y="714" on="1"/>
        <pt x="194" y="676" on="0"/>
        <pt x="246" y="624" on="0"/>
        <pt x="284" y="624" on="1"/>
        <pt x="322" y="624" on="0"/>
        <pt x="375" y="676" on="0"/>
        <pt x="375" y="714" on="1"/>
        <pt x="375" y="759" on="0"/>
        <pt x="347" y="828" on="0"/>
        <pt x="304" y="891" on="0"/>
        <pt x="255" y="952" on="0"/>
        <pt x="212" y="1023" on="0"/>
        <pt x="184" y="1112" on="0"/>
        <pt x="184" y="1171" on="1"/>
        <pt x="184" y="1268" on="0"/>
        <pt x="270" y="1417" on="0"/>
        <pt x="428" y="1517" on="0"/>
        <pt x="651" y="1568" on="0"/>
        <pt x="787" y="1568" on="1"/>
        <pt x="896" y="1568" on="0"/>
        <pt x="1097" y="1513" on="0"/>
        <pt x="1273" y="1411" on="0"/>
        <pt x="1417" y="1269" on="0"/>
        <pt x="1520" y="1095" on="0"/>
        <pt x="1576" y="895" on="0"/>
        <pt x="1576" y="786" on="1"/>
        <pt x="1576" y="677" on="0"/>
        <pt x="1520" y="476" on="0"/>
        <pt x="1418" y="302" on="0"/>
        <pt x="1274" y="158" on="0"/>
        <pt x="1100" y="56" on="0"/>
        <pt x="899" y="0" on="0"/>
        <pt x="790" y="0" on="1"/>
        <pt x="702" y="0" on="0"/>
        <pt x="533" y="42" on="0"/>
        <pt x="378" y="120" on="0"/>
        <pt x="239" y="232" on="0"/>
        <pt x="181" y="301" on="1"/>
        <pt x="318" y="412" on="1"/>
        <pt x="411" y="302" on="0"/>
        <pt x="653" y="174" on="0"/>
        <pt x="790" y="174" on="1"/>
        <pt x="874" y="174" on="0"/>
        <pt x="1030" y="218" on="0"/>
        <pt x="1166" y="297" on="0"/>
        <pt x="1278" y="409" on="0"/>
        <pt x="1358" y="545" on="0"/>
        <pt x="1402" y="702" on="0"/>
        <pt x="1402" y="786" on="1"/>
        <pt x="1402" y="913" on="0"/>
        <pt x="1305" y="1134" on="0"/>
        <pt x="1138" y="1299" on="0"/>
        <pt x="914" y="1394" on="0"/>
        <pt x="787" y="1394" on="1"/>
        <pt x="691" y="1394" on="0"/>
        <pt x="533" y="1369" on="0"/>
        <pt x="420" y="1315" on="0"/>
        <pt x="358" y="1231" on="0"/>
        <pt x="358" y="1173" on="1"/>
        <pt x="358" y="1129" on="0"/>
        <pt x="386" y="1061" on="0"/>
        <pt x="428" y="1001" on="0"/>
        <pt x="478" y="941" on="0"/>
        <pt x="520" y="867" on="0"/>
        <pt x="548" y="775" on="0"/>
        <pt x="548" y="712" on="1"/>
        <pt x="548" y="658" on="0"/>
        <pt x="507" y="562" on="0"/>
        <pt x="436" y="491" on="0"/>
        <pt x="340" y="450" on="0"/>
        <pt x="286" y="450" on="1"/>
        <pt x="232" y="450" on="0"/>
        <pt x="136" y="492" on="0"/>
        <pt x="65" y="564" on="0"/>
        <pt x="24" y="660" on="0"/>
        <pt x="24" y="714" on="1"/>
      </contour>
      <contour>
        <pt x="451" y="1745" on="1"/>
        <pt x="812" y="1997" on="1"/>
        <pt x="1160" y="1745" on="1"/>
        <pt x="1057" y="1609" on="1"/>
        <pt x="812" y="1790" on="1"/>
        <pt x="783" y="1767" on="0"/>
        <pt x="696" y="1706" on="0"/>
        <pt x="654" y="1677" on="1"/>
        <pt x="606" y="1644" on="0"/>
        <pt x="554" y="1609" on="1"/>
      </contour>
    </TTGlyph>
    <TTGlyph name="Odieresis" xMin="24" yMin="0" xMax="1576" yMax="1992">
      <contour>
        <pt x="194" y="714" on="1"/>
        <pt x="194" y="676" on="0"/>
        <pt x="246" y="624" on="0"/>
        <pt x="284" y="624" on="1"/>
        <pt x="322" y="624" on="0"/>
        <pt x="375" y="676" on="0"/>
        <pt x="375" y="714" on="1"/>
        <pt x="375" y="759" on="0"/>
        <pt x="347" y="828" on="0"/>
        <pt x="304" y="891" on="0"/>
        <pt x="255" y="952" on="0"/>
        <pt x="212" y="1023" on="0"/>
        <pt x="184" y="1112" on="0"/>
        <pt x="184" y="1171" on="1"/>
        <pt x="184" y="1268" on="0"/>
        <pt x="270" y="1417" on="0"/>
        <pt x="428" y="1517" on="0"/>
        <pt x="651" y="1568" on="0"/>
        <pt x="787" y="1568" on="1"/>
        <pt x="896" y="1568" on="0"/>
        <pt x="1097" y="1513" on="0"/>
        <pt x="1273" y="1411" on="0"/>
        <pt x="1417" y="1269" on="0"/>
        <pt x="1520" y="1095" on="0"/>
        <pt x="1576" y="895" on="0"/>
        <pt x="1576" y="786" on="1"/>
        <pt x="1576" y="677" on="0"/>
        <pt x="1520" y="476" on="0"/>
        <pt x="1418" y="302" on="0"/>
        <pt x="1274" y="158" on="0"/>
        <pt x="1100" y="56" on="0"/>
        <pt x="899" y="0" on="0"/>
        <pt x="790" y="0" on="1"/>
        <pt x="702" y="0" on="0"/>
        <pt x="533" y="42" on="0"/>
        <pt x="378" y="120" on="0"/>
        <pt x="239" y="232" on="0"/>
        <pt x="181" y="301" on="1"/>
        <pt x="318" y="412" on="1"/>
        <pt x="411" y="302" on="0"/>
        <pt x="653" y="174" on="0"/>
        <pt x="790" y="174" on="1"/>
        <pt x="874" y="174" on="0"/>
        <pt x="1030" y="218" on="0"/>
        <pt x="1166" y="297" on="0"/>
        <pt x="1278" y="409" on="0"/>
        <pt x="1358" y="545" on="0"/>
        <pt x="1402" y="702" on="0"/>
        <pt x="1402" y="786" on="1"/>
        <pt x="1402" y="913" on="0"/>
        <pt x="1305" y="1134" on="0"/>
        <pt x="1138" y="1299" on="0"/>
        <pt x="914" y="1394" on="0"/>
        <pt x="787" y="1394" on="1"/>
        <pt x="691" y="1394" on="0"/>
        <pt x="533" y="1369" on="0"/>
        <pt x="420" y="1315" on="0"/>
        <pt x="358" y="1231" on="0"/>
        <pt x="358" y="1173" on="1"/>
        <pt x="358" y="1129" on="0"/>
        <pt x="386" y="1061" on="0"/>
        <pt x="428" y="1001" on="0"/>
        <pt x="478" y="941" on="0"/>
        <pt x="520" y="867" on="0"/>
        <pt x="548" y="775" on="0"/>
        <pt x="548" y="712" on="1"/>
        <pt x="548" y="658" on="0"/>
        <pt x="507" y="562" on="0"/>
        <pt x="436" y="491" on="0"/>
        <pt x="340" y="450" on="0"/>
        <pt x="286" y="450" on="1"/>
        <pt x="232" y="450" on="0"/>
        <pt x="136" y="492" on="0"/>
        <pt x="65" y="564" on="0"/>
        <pt x="24" y="660" on="0"/>
        <pt x="24" y="714" on="1"/>
      </contour>
      <contour>
        <pt x="1046" y="1657" on="1"/>
        <pt x="888" y="1710" on="1"/>
        <pt x="1006" y="1992" on="1"/>
        <pt x="1183" y="1921" on="1"/>
      </contour>
      <contour>
        <pt x="741" y="1657" on="1"/>
        <pt x="583" y="1710" on="1"/>
        <pt x="702" y="1992" on="1"/>
        <pt x="879" y="1921" on="1"/>
      </contour>
    </TTGlyph>
</ttFont>
